<svg width="72" height="72" viewBox="0 0 72 72" fill="none" xmlns="http://www.w3.org/2000/svg">
<g clip-path="url(#clip0_66_5226)">
<path d="M59.9999 0.900024H11.9999C5.86954 0.900024 0.899902 5.86966 0.899902 12V60C0.899902 66.1304 5.86954 71.1 11.9999 71.1H59.9999C66.1303 71.1 71.0999 66.1304 71.0999 60V12C71.0999 5.86966 66.1303 0.900024 59.9999 0.900024Z" fill="#1C1B1C"/>
<path d="M60 1.8C65.624 1.8 70.2 6.376 70.2 12V60C70.2 65.624 65.624 70.2 60 70.2H12C6.376 70.2 1.8 65.624 1.8 60V12C1.8 6.376 6.376 1.8 12 1.8H60ZM60 0H12C5.373 0 0 5.373 0 12V60C0 66.627 5.373 72 12 72H60C66.627 72 72 66.627 72 60V12C72 5.373 66.627 0 60 0Z" fill="#397BFF"/>
<path d="M39.5351 56.51L46.5801 49.443L35.9991 38.833L28.9541 45.9L39.5351 56.51Z" fill="url(#paint0_linear_66_5226)"/>
<path d="M32.4561 15.49L25.4111 22.557L35.9921 33.167L43.0371 26.1L32.4561 15.49Z" fill="url(#paint1_linear_66_5226)"/>
<path d="M33.146 36L26.101 28.933L15.52 39.543L22.565 46.61L33.146 36Z" fill="#397BFF"/>
<path d="M56.48 32.4649L49.435 25.3979L38.854 36.0079L45.899 43.0749L56.48 32.4649Z" fill="#FFF6B6"/>
</g>
<defs>
<linearGradient id="paint0_linear_66_5226" x1="46.5551" y1="47.675" x2="28.9371" y2="47.717" gradientUnits="userSpaceOnUse">
<stop offset="0.2" stop-color="#FFF3B7"/>
<stop offset="0.97" stop-color="#3E7FFA"/>
</linearGradient>
<linearGradient id="paint1_linear_66_5226" x1="25.3931" y1="24.374" x2="43.0111" y2="24.332" gradientUnits="userSpaceOnUse">
<stop offset="0.29" stop-color="#FFF3B7"/>
<stop offset="0.97" stop-color="#3E7FFA"/>
</linearGradient>
<clipPath id="clip0_66_5226">
<rect width="72" height="72" fill="white"/>
</clipPath>
</defs>
</svg>
