<svg width="144" height="144" viewBox="0 0 144 144" fill="none" xmlns="http://www.w3.org/2000/svg">
<g clip-path="url(#clip0_66_4552)">
<path d="M120 1.80005H23.9998C11.7391 1.80005 1.7998 11.7393 1.7998 24V120C1.7998 132.261 11.7391 142.2 23.9998 142.2H120C132.261 142.2 142.2 132.261 142.2 120V24C142.2 11.7393 132.261 1.80005 120 1.80005Z" fill="#1C1B1C"/>
<path d="M120 3.6C131.248 3.6 140.4 12.752 140.4 24V120C140.4 131.248 131.248 140.4 120 140.4H24C12.752 140.4 3.6 131.248 3.6 120V24C3.6 12.752 12.752 3.6 24 3.6H120ZM120 0H24C10.746 0 0 10.746 0 24V120C0 133.254 10.746 144 24 144H120C133.254 144 144 133.254 144 120V24C144 10.746 133.254 0 120 0Z" fill="#397BFF"/>
<path d="M79.0702 113.02L93.1602 98.886L71.9982 77.666L57.9082 91.8L79.0702 113.02Z" fill="url(#paint0_linear_66_4552)"/>
<path d="M64.9123 30.98L50.8223 45.114L71.9843 66.334L86.0743 52.2L64.9123 30.98Z" fill="url(#paint1_linear_66_4552)"/>
<path d="M66.292 72L52.202 57.866L31.04 79.086L45.13 93.22L66.292 72Z" fill="#397BFF"/>
<path d="M112.96 64.93L98.87 50.796L77.708 72.016L91.798 86.15L112.96 64.93Z" fill="#FFF6B6"/>
</g>
<defs>
<linearGradient id="paint0_linear_66_4552" x1="93.1102" y1="95.35" x2="57.8742" y2="95.434" gradientUnits="userSpaceOnUse">
<stop offset="0.2" stop-color="#FFF3B7"/>
<stop offset="0.97" stop-color="#3E7FFA"/>
</linearGradient>
<linearGradient id="paint1_linear_66_4552" x1="50.7863" y1="48.748" x2="86.0223" y2="48.664" gradientUnits="userSpaceOnUse">
<stop offset="0.29" stop-color="#FFF3B7"/>
<stop offset="0.97" stop-color="#3E7FFA"/>
</linearGradient>
<clipPath id="clip0_66_4552">
<rect width="144" height="144" fill="white"/>
</clipPath>
</defs>
</svg>
