<svg width="48" height="48" viewBox="0 0 48 48" fill="none" xmlns="http://www.w3.org/2000/svg">
<g clip-path="url(#clip0_66_5576)">
<path d="M40.0001 0.599976H8.0001C3.91319 0.599976 0.600098 3.91307 0.600098 7.99998V40C0.600098 44.0869 3.91319 47.4 8.0001 47.4H40.0001C44.087 47.4 47.4001 44.0869 47.4001 40V7.99998C47.4001 3.91307 44.087 0.599976 40.0001 0.599976Z" fill="#1C1B1C"/>
<path d="M40 1.2C43.7493 1.2 46.8 4.25067 46.8 8V40C46.8 43.7493 43.7493 46.8 40 46.8H8C4.25067 46.8 1.2 43.7493 1.2 40V8C1.2 4.25067 4.25067 1.2 8 1.2H40ZM40 0H8C3.582 0 0 3.582 0 8V40C0 44.418 3.582 48 8 48H40C44.418 48 48 44.418 48 40V8C48 3.582 44.418 0 40 0Z" fill="#397BFF"/>
<path d="M26.3567 37.6733L31.0534 32.962L23.9994 25.8887L19.3027 30.6L26.3567 37.6733Z" fill="url(#paint0_linear_66_5576)"/>
<path d="M21.6376 10.3267L16.9409 15.038L23.9949 22.1113L28.6916 17.4L21.6376 10.3267Z" fill="url(#paint1_linear_66_5576)"/>
<path d="M22.0973 24L17.4007 19.2887L10.3467 26.362L15.0433 31.0734L22.0973 24Z" fill="#397BFF"/>
<path d="M37.6535 21.6433L32.9568 16.932L25.9028 24.0053L30.5995 28.7167L37.6535 21.6433Z" fill="#FFF6B6"/>
</g>
<defs>
<linearGradient id="paint0_linear_66_5576" x1="31.0367" y1="31.7833" x2="19.2914" y2="31.8113" gradientUnits="userSpaceOnUse">
<stop offset="0.2" stop-color="#FFF3B7"/>
<stop offset="0.97" stop-color="#3E7FFA"/>
</linearGradient>
<linearGradient id="paint1_linear_66_5576" x1="16.9289" y1="16.2493" x2="28.6743" y2="16.2213" gradientUnits="userSpaceOnUse">
<stop offset="0.29" stop-color="#FFF3B7"/>
<stop offset="0.97" stop-color="#3E7FFA"/>
</linearGradient>
<clipPath id="clip0_66_5576">
<rect width="48" height="48" fill="white"/>
</clipPath>
</defs>
</svg>
