<svg width="200" height="200" viewBox="0 0 200 200" fill="none" xmlns="http://www.w3.org/2000/svg">
<g clip-path="url(#clip0_66_4889)">
<path d="M166.667 2.5H33.3333C16.3046 2.5 2.5 16.3046 2.5 33.3333V166.667C2.5 183.695 16.3046 197.5 33.3333 197.5H166.667C183.695 197.5 197.5 183.695 197.5 166.667V33.3333C197.5 16.3046 183.695 2.5 166.667 2.5Z" fill="#1C1B1C"/>
<path d="M166.667 5C182.289 5 195 17.7111 195 33.3333V166.667C195 182.289 182.289 195 166.667 195H33.3333C17.7111 195 5 182.289 5 166.667V33.3333C5 17.7111 17.7111 5 33.3333 5H166.667ZM166.667 0H33.3333C14.925 0 0 14.925 0 33.3333V166.667C0 185.075 14.925 200 33.3333 200H166.667C185.075 200 200 185.075 200 166.667V33.3333C200 14.925 185.075 0 166.667 0Z" fill="#397BFF"/>
<path d="M109.82 156.972L129.389 137.342L99.9977 107.87L80.4282 127.5L109.82 156.972Z" fill="url(#paint0_linear_66_4889)"/>
<path d="M90.1559 43.0278L70.5864 62.6584L99.9781 92.1306L119.548 72.5001L90.1559 43.0278Z" fill="url(#paint1_linear_66_4889)"/>
<path d="M92.0724 100L72.503 80.3695L43.1113 109.842L62.6808 129.472L92.0724 100Z" fill="#397BFF"/>
<path d="M156.889 90.1806L137.32 70.55L107.928 100.022L127.498 119.653L156.889 90.1806Z" fill="#FFF6B6"/>
</g>
<defs>
<linearGradient id="paint0_linear_66_4889" x1="129.32" y1="132.431" x2="80.381" y2="132.547" gradientUnits="userSpaceOnUse">
<stop offset="0.2" stop-color="#FFF3B7"/>
<stop offset="0.97" stop-color="#3E7FFA"/>
</linearGradient>
<linearGradient id="paint1_linear_66_4889" x1="70.5364" y1="67.7056" x2="119.475" y2="67.5889" gradientUnits="userSpaceOnUse">
<stop offset="0.29" stop-color="#FFF3B7"/>
<stop offset="0.97" stop-color="#3E7FFA"/>
</linearGradient>
<clipPath id="clip0_66_4889">
<rect width="200" height="200" fill="white"/>
</clipPath>
</defs>
</svg>
