<svg width="72" height="72" viewBox="0 0 72 72" fill="none" xmlns="http://www.w3.org/2000/svg">
<g clip-path="url(#clip0_66_5098)">
<path d="M59.9999 0.900024H11.9999C5.86954 0.900024 0.899902 5.86966 0.899902 12V60C0.899902 66.1304 5.86954 71.1 11.9999 71.1H59.9999C66.1303 71.1 71.0999 66.1304 71.0999 60V12C71.0999 5.86966 66.1303 0.900024 59.9999 0.900024Z" fill="#1C1B1C"/>
<path d="M60 1.8C65.624 1.8 70.2 6.376 70.2 12V60C70.2 65.624 65.624 70.2 60 70.2H12C6.376 70.2 1.8 65.624 1.8 60V12C1.8 6.376 6.376 1.8 12 1.8H60ZM60 0H12C5.373 0 0 5.373 0 12V60C0 66.627 5.373 72 12 72H60C66.627 72 72 66.627 72 60V12C72 5.373 66.627 0 60 0Z" fill="#FF996C"/>
<path d="M27 45H18V54H27V45Z" fill="#397BFF"/>
<path fill-rule="evenodd" clip-rule="evenodd" d="M33 36C33 39.22 33.72 42.27 35.02 45H18V27H35.02C33.72 29.73 33 32.78 33 36Z" fill="#FF996C"/>
<path d="M42 27V45H35.02C33.72 42.27 33 39.22 33 36C33 32.78 33.72 29.73 35.02 27H42Z" fill="url(#paint0_linear_66_5098)"/>
<path d="M54 15V57C45.62 57 38.39 52.09 35.02 45H42V27H35.02C38.39 19.91 45.62 15 54 15Z" fill="#397BFF"/>
</g>
<defs>
<linearGradient id="paint0_linear_66_5098" x1="43.993" y1="36" x2="32.278" y2="36" gradientUnits="userSpaceOnUse">
<stop offset="0.21" stop-color="#FF956C"/>
<stop offset="0.96" stop-color="#397BFF"/>
</linearGradient>
<clipPath id="clip0_66_5098">
<rect width="72" height="72" fill="white"/>
</clipPath>
</defs>
</svg>
