<svg width="200" height="200" viewBox="0 0 200 200" fill="none" xmlns="http://www.w3.org/2000/svg">
<g clip-path="url(#clip0_66_4761)">
<path d="M166.667 2.5H33.3333C16.3046 2.5 2.5 16.3046 2.5 33.3333V166.667C2.5 183.695 16.3046 197.5 33.3333 197.5H166.667C183.695 197.5 197.5 183.695 197.5 166.667V33.3333C197.5 16.3046 183.695 2.5 166.667 2.5Z" fill="#1C1B1C"/>
<path d="M166.667 5C182.289 5 195 17.7111 195 33.3333V166.667C195 182.289 182.289 195 166.667 195H33.3333C17.7111 195 5 182.289 5 166.667V33.3333C5 17.7111 17.7111 5 33.3333 5H166.667ZM166.667 0H33.3333C14.925 0 0 14.925 0 33.3333V166.667C0 185.075 14.925 200 33.3333 200H166.667C185.075 200 200 185.075 200 166.667V33.3333C200 14.925 185.075 0 166.667 0Z" fill="#FF996C"/>
<path d="M75 125H50V150H75V125Z" fill="#397BFF"/>
<path fill-rule="evenodd" clip-rule="evenodd" d="M91.6667 100C91.6667 108.944 93.6667 117.417 97.2778 125H50V75H97.2778C93.6667 82.5833 91.6667 91.0556 91.6667 100Z" fill="#FF996C"/>
<path d="M116.667 75V125H97.2776C93.6665 117.417 91.6665 108.944 91.6665 100C91.6665 91.0556 93.6665 82.5833 97.2776 75H116.667Z" fill="url(#paint0_linear_66_4761)"/>
<path d="M150 41.6667V158.333C126.722 158.333 106.639 144.694 97.2778 125H116.667V75H97.2778C106.639 55.3056 126.722 41.6667 150 41.6667Z" fill="#397BFF"/>
</g>
<defs>
<linearGradient id="paint0_linear_66_4761" x1="122.203" y1="100" x2="89.6609" y2="100" gradientUnits="userSpaceOnUse">
<stop offset="0.21" stop-color="#FF956C"/>
<stop offset="0.96" stop-color="#397BFF"/>
</linearGradient>
<clipPath id="clip0_66_4761">
<rect width="200" height="200" fill="white"/>
</clipPath>
</defs>
</svg>
