<svg width="48" height="48" viewBox="0 0 48 48" fill="none" xmlns="http://www.w3.org/2000/svg">
<g clip-path="url(#clip0_66_5412)">
<path d="M40.0001 0.600098H8.0001C3.91319 0.600098 0.600098 3.91319 0.600098 8.0001V40.0001C0.600098 44.087 3.91319 47.4001 8.0001 47.4001H40.0001C44.087 47.4001 47.4001 44.087 47.4001 40.0001V8.0001C47.4001 3.91319 44.087 0.600098 40.0001 0.600098Z" fill="#1C1B1C"/>
<path d="M40 1.2C43.7493 1.2 46.8 4.25067 46.8 8V40C46.8 43.7493 43.7493 46.8 40 46.8H8C4.25067 46.8 1.2 43.7493 1.2 40V8C1.2 4.25067 4.25067 1.2 8 1.2H40ZM40 0H8C3.582 0 0 3.582 0 8V40C0 44.418 3.582 48 8 48H40C44.418 48 48 44.418 48 40V8C48 3.582 44.418 0 40 0Z" fill="#8DFCF1"/>
<g clip-path="url(#clip1_66_5412)">
<path d="M36 12V24H32.6667V15.3333H24V12H36Z" fill="#8DFCF1"/>
<path d="M24 32.6667V36H12V24H15.3333V32.6667H24Z" fill="#8DFCF1"/>
<path d="M36.0002 29.3333V35.9999H29.3335V32.6666H32.6668V29.3333H36.0002Z" fill="url(#paint0_linear_66_5412)"/>
<path d="M18.6667 12V15.3333H15.3333V18.6667H12V12H18.6667Z" fill="url(#paint1_linear_66_5412)"/>
</g>
</g>
<defs>
<linearGradient id="paint0_linear_66_5412" x1="31.2788" y1="31.2786" x2="35.7755" y2="35.7753" gradientUnits="userSpaceOnUse">
<stop offset="0.229" stop-color="#4281F5"/>
<stop offset="0.729" stop-color="#90FAEF"/>
</linearGradient>
<linearGradient id="paint1_linear_66_5412" x1="15.9193" y1="15.9193" x2="12.4153" y2="12.4153" gradientUnits="userSpaceOnUse">
<stop offset="0.229" stop-color="#4281F5"/>
<stop offset="0.729" stop-color="#90FAEF"/>
</linearGradient>
<clipPath id="clip0_66_5412">
<rect width="48" height="48" fill="white"/>
</clipPath>
<clipPath id="clip1_66_5412">
<rect width="24" height="24" fill="white" transform="translate(12 12)"/>
</clipPath>
</defs>
</svg>
