<svg width="72" height="72" viewBox="0 0 72 72" fill="none" xmlns="http://www.w3.org/2000/svg">
<g clip-path="url(#clip0_66_5062)">
<path d="M59.9999 0.899902H11.9999C5.86954 0.899902 0.899902 5.86954 0.899902 11.9999V59.9999C0.899902 66.1303 5.86954 71.0999 11.9999 71.0999H59.9999C66.1303 71.0999 71.0999 66.1303 71.0999 59.9999V11.9999C71.0999 5.86954 66.1303 0.899902 59.9999 0.899902Z" fill="#1C1B1C"/>
<path d="M60 1.8C65.624 1.8 70.2 6.376 70.2 12V60C70.2 65.624 65.624 70.2 60 70.2H12C6.376 70.2 1.8 65.624 1.8 60V12C1.8 6.376 6.376 1.8 12 1.8H60ZM60 0H12C5.373 0 0 5.373 0 12V60C0 66.627 5.373 72 12 72H60C66.627 72 72 66.627 72 60V12C72 5.373 66.627 0 60 0Z" fill="#8DFCF1"/>
<g clip-path="url(#clip1_66_5062)">
<path d="M54 18V36H49V23H36V18H54Z" fill="#8DFCF1"/>
<path d="M36 49V54H18V36H23V49H36Z" fill="#8DFCF1"/>
<path d="M54 44V54H44V49H49V44H54Z" fill="url(#paint0_linear_66_5062)"/>
<path d="M28 18V23H23V28H18V18H28Z" fill="url(#paint1_linear_66_5062)"/>
</g>
</g>
<defs>
<linearGradient id="paint0_linear_66_5062" x1="46.918" y1="46.918" x2="53.663" y2="53.663" gradientUnits="userSpaceOnUse">
<stop offset="0.229" stop-color="#4281F5"/>
<stop offset="0.729" stop-color="#90FAEF"/>
</linearGradient>
<linearGradient id="paint1_linear_66_5062" x1="23.879" y1="23.879" x2="18.623" y2="18.623" gradientUnits="userSpaceOnUse">
<stop offset="0.229" stop-color="#4281F5"/>
<stop offset="0.729" stop-color="#90FAEF"/>
</linearGradient>
<clipPath id="clip0_66_5062">
<rect width="72" height="72" fill="white"/>
</clipPath>
<clipPath id="clip1_66_5062">
<rect width="36" height="36" fill="white" transform="translate(18 18)"/>
</clipPath>
</defs>
</svg>
