<svg width="72" height="72" viewBox="0 0 72 72" fill="none" xmlns="http://www.w3.org/2000/svg">
<g clip-path="url(#clip0_66_5046)">
<path d="M60 0.900391H12C5.86986 0.900391 0.900391 5.86986 0.900391 12V60C0.900391 66.1301 5.86986 71.0996 12 71.0996H60C66.1301 71.0996 71.0996 66.1301 71.0996 60V12C71.0996 5.86986 66.1301 0.900391 60 0.900391Z" fill="#1C1B1C"/>
<path d="M60 1.79999C65.6243 1.79999 70.2 6.3757 70.2 12V60C70.2 65.6243 65.6243 70.2 60 70.2H12C6.37573 70.2 1.80005 65.6243 1.80005 60V12C1.80005 6.3757 6.37573 1.79999 12 1.79999H60ZM60 0H12C5.37256 0 0 5.37259 0 12V60C0 66.6274 5.37256 72 12 72H60C66.6274 72 72 66.6274 72 60V12C72 5.37259 66.6274 0 60 0Z" fill="#A97DFF"/>
<path d="M52.225 43.754C53.351 41.403 54 38.78 54 36C54 26.059 45.941 18 36 18C26.059 18 18 26.059 18 36C18 45.941 26.059 54 36 54C38.781 54 41.403 53.351 43.754 52.225L54 54L52.225 43.754Z" fill="#A97DFF"/>
<path d="M47.0001 36L30.0001 26V31.718C25.4461 31.758 20.9321 33.989 18.0771 37.521C18.3201 40.425 19.2571 43.125 20.7151 45.473C20.8531 45.215 20.9901 44.956 21.1631 44.704C23.1581 41.789 26.6151 40.381 30.0001 40.498V46L47.0001 36Z" fill="url(#paint0_linear_66_5046)"/>
<path d="M20.7151 45.473C19.2571 43.125 18.3201 40.425 18.0771 37.521C16.9301 38.94 16.0431 40.563 15.5411 42.348C13.6501 48.173 16.9321 54.465 22.0241 57C22.0241 57 17.9291 50.701 20.7151 45.473Z" fill="#FFF6B6"/>
</g>
<defs>
<linearGradient id="paint0_linear_66_5046" x1="15.9531" y1="36" x2="30.1171" y2="36" gradientUnits="userSpaceOnUse">
<stop stop-color="#A780FB"/>
<stop offset="1" stop-color="#FFF1B9"/>
</linearGradient>
<clipPath id="clip0_66_5046">
<rect width="72" height="72" fill="white"/>
</clipPath>
</defs>
</svg>
