<svg width="48" height="48" viewBox="0 0 48 48" fill="none" xmlns="http://www.w3.org/2000/svg">
<g clip-path="url(#clip0_66_5396)">
<path d="M39.9998 0.600342H7.99984C3.91307 0.600342 0.600098 3.91332 0.600098 8.00008V40.0001C0.600098 44.0868 3.91307 47.3998 7.99984 47.3998H39.9998C44.0866 47.3998 47.3996 44.0868 47.3996 40.0001V8.00008C47.3996 3.91332 44.0866 0.600342 39.9998 0.600342Z" fill="#1C1B1C"/>
<path d="M40 1.19999C43.7495 1.19999 46.8 4.25047 46.8 8V40C46.8 43.7495 43.7495 46.8 40 46.8H8C4.25049 46.8 1.20003 43.7495 1.20003 40V8C1.20003 4.25047 4.25049 1.19999 8 1.19999H40ZM40 0H8C3.58171 0 0 3.58173 0 8V40C0 44.4183 3.58171 48 8 48H40C44.4183 48 48 44.4183 48 40V8C48 3.58173 44.4183 0 40 0Z" fill="#A97DFF"/>
<path d="M34.8167 29.1693C35.5673 27.602 36 25.8533 36 24C36 17.3727 30.6273 12 24 12C17.3727 12 12 17.3727 12 24C12 30.6273 17.3727 36 24 36C25.854 36 27.602 35.5673 29.1693 34.8167L36 36L34.8167 29.1693Z" fill="#A97DFF"/>
<path d="M31.3333 23.9999L19.9999 17.3333V21.1453C16.9639 21.1719 13.9546 22.6593 12.0513 25.0139C12.2133 26.9499 12.8379 28.7499 13.8099 30.3153C13.9019 30.1433 13.9933 29.9706 14.1086 29.8026C15.4386 27.8593 17.7433 26.9206 19.9999 26.9986V30.6666L31.3333 23.9999Z" fill="url(#paint0_linear_66_5396)"/>
<path d="M13.81 30.3152C12.838 28.7499 12.2134 26.9499 12.0514 25.0139C11.2867 25.9599 10.6954 27.0419 10.3607 28.2319C9.10004 32.1152 11.288 36.3099 14.6827 37.9999C14.6827 37.9999 11.9527 33.8006 13.81 30.3152Z" fill="#FFF6B6"/>
</g>
<defs>
<linearGradient id="paint0_linear_66_5396" x1="10.6353" y1="23.9999" x2="20.0779" y2="23.9999" gradientUnits="userSpaceOnUse">
<stop stop-color="#A780FB"/>
<stop offset="1" stop-color="#FFF1B9"/>
</linearGradient>
<clipPath id="clip0_66_5396">
<rect width="48" height="48" fill="white"/>
</clipPath>
</defs>
</svg>
