<svg width="144" height="144" viewBox="0 0 144 144" fill="none" xmlns="http://www.w3.org/2000/svg">
<g clip-path="url(#clip0_66_4372)">
<path d="M120 1.80078H24C11.7397 1.80078 1.80078 11.7397 1.80078 24V120C1.80078 132.26 11.7397 142.199 24 142.199H120C132.26 142.199 142.199 132.26 142.199 120V24C142.199 11.7397 132.26 1.80078 120 1.80078Z" fill="#1C1B1C"/>
<path d="M120 3.59998C131.249 3.59998 140.4 12.7514 140.4 24V120C140.4 131.249 131.249 140.4 120 140.4H24C12.7515 140.4 3.6001 131.249 3.6001 120V24C3.6001 12.7514 12.7515 3.59998 24 3.59998H120ZM120 0H24C10.7451 0 0 10.7452 0 24V120C0 133.255 10.7451 144 24 144H120C133.255 144 144 133.255 144 120V24C144 10.7452 133.255 0 120 0Z" fill="#A97DFF"/>
<path d="M104.45 87.508C106.702 82.806 108 77.56 108 72C108 52.118 91.882 36 72 36C52.118 36 36 52.118 36 72C36 91.882 52.118 108 72 108C77.562 108 82.806 106.702 87.508 104.45L108 108L104.45 87.508Z" fill="#A97DFF"/>
<path d="M94.0003 72L60.0003 52V63.436C50.8923 63.516 41.8643 67.978 36.1543 75.042C36.6403 80.85 38.5143 86.25 41.4303 90.946C41.7063 90.43 41.9803 89.912 42.3263 89.408C46.3163 83.578 53.2303 80.762 60.0003 80.996V92L94.0003 72Z" fill="url(#paint0_linear_66_4372)"/>
<path d="M41.4301 90.946C38.5141 86.25 36.6401 80.85 36.1541 75.042C33.8601 77.88 32.0861 81.126 31.0821 84.696C27.3001 96.346 33.8641 108.93 44.0481 114C44.0481 114 35.8581 101.402 41.4301 90.946Z" fill="#FFF6B6"/>
</g>
<defs>
<linearGradient id="paint0_linear_66_4372" x1="31.9063" y1="72" x2="60.2343" y2="72" gradientUnits="userSpaceOnUse">
<stop stop-color="#A780FB"/>
<stop offset="1" stop-color="#FFF1B9"/>
</linearGradient>
<clipPath id="clip0_66_4372">
<rect width="144" height="144" fill="white"/>
</clipPath>
</defs>
</svg>
