<svg width="24" height="24" viewBox="0 0 24 24" fill="none" xmlns="http://www.w3.org/2000/svg">
<g clip-path="url(#clip0_71_1955)">
<path d="M20.0002 0.300049H4.00016C1.95678 0.300049 0.300293 1.95654 0.300293 3.99992V19.9999C0.300293 22.0433 1.95678 23.6998 4.00016 23.6998H20.0002C22.0435 23.6998 23.7 22.0433 23.7 19.9999V3.99992C23.7 1.95654 22.0435 0.300049 20.0002 0.300049Z" fill="#1C1B1C"/>
<path d="M20 0.599997C21.8748 0.599997 23.4 2.12523 23.4 4V20C23.4 21.8748 21.8748 23.4 20 23.4H4C2.12524 23.4 0.600017 21.8748 0.600017 20V4C0.600017 2.12523 2.12524 0.599997 4 0.599997H20ZM20 0H4C1.79085 0 0 1.79086 0 4V20C0 22.2091 1.79085 24 4 24H20C22.2091 24 24 22.2091 24 20V4C24 1.79086 22.2091 0 20 0Z" fill="#A97DFF"/>
<path d="M17.4083 14.5847C17.7837 13.801 18 12.9267 18 12C18 8.68633 15.3137 6 12 6C8.68633 6 6 8.68633 6 12C6 15.3137 8.68633 18 12 18C12.927 18 13.801 17.7837 14.5847 17.4083L18 18L17.4083 14.5847Z" fill="#A97DFF"/>
<path d="M15.6669 12.0001L10.0002 8.66675V10.5727C8.48221 10.5861 6.97755 11.3297 6.02588 12.5071C6.10688 13.4751 6.41921 14.3751 6.90521 15.1577C6.95121 15.0717 6.99688 14.9854 7.05455 14.9014C7.71955 13.9297 8.87188 13.4604 10.0002 13.4994V15.3334L15.6669 12.0001Z" fill="url(#paint0_linear_71_1955)"/>
<path d="M6.90502 15.1577C6.41902 14.3751 6.10669 13.4751 6.02569 12.5071C5.64335 12.9801 5.34769 13.5211 5.18035 14.1161C4.55002 16.0577 5.64402 18.1551 7.34135 19.0001C7.34135 19.0001 5.97635 16.9004 6.90502 15.1577Z" fill="#FFF6B6"/>
</g>
<defs>
<linearGradient id="paint0_linear_71_1955" x1="5.31788" y1="12.0001" x2="10.0392" y2="12.0001" gradientUnits="userSpaceOnUse">
<stop stop-color="#A780FB"/>
<stop offset="1" stop-color="#FFF1B9"/>
</linearGradient>
<clipPath id="clip0_71_1955">
<rect width="24" height="24" fill="white"/>
</clipPath>
</defs>
</svg>
