<svg width="200" height="200" viewBox="0 0 200 200" fill="none" xmlns="http://www.w3.org/2000/svg">
<g clip-path="url(#clip0_66_4709)">
<path d="M166.667 2.5011H33.3332C16.305 2.5011 2.50098 16.3052 2.50098 33.3334V166.667C2.50098 183.695 16.305 197.499 33.3332 197.499H166.667C183.695 197.499 197.499 183.695 197.499 166.667V33.3334C197.499 16.3052 183.695 2.5011 166.667 2.5011Z" fill="#1C1B1C"/>
<path d="M166.667 4.99997C182.29 4.99997 195 17.7103 195 33.3333V166.667C195 182.29 182.29 195 166.667 195H33.3333C17.7104 195 5.00014 182.29 5.00014 166.667V33.3333C5.00014 17.7103 17.7104 4.99997 33.3333 4.99997H166.667ZM166.667 0H33.3333C14.9238 0 0 14.9239 0 33.3333V166.667C0 185.076 14.9238 200 33.3333 200H166.667C185.076 200 200 185.076 200 166.667V33.3333C200 14.9239 185.076 0 166.667 0Z" fill="#A97DFF"/>
<path d="M145.069 121.539C148.197 115.008 150 107.722 150 100C150 72.3861 127.614 50 100 50C72.3861 50 50 72.3861 50 100C50 127.614 72.3861 150 100 150C107.725 150 115.008 148.197 121.539 145.069L150 150L145.069 121.539Z" fill="#A97DFF"/>
<path d="M130.556 99.9999L83.3338 72.2222V88.1055C70.6838 88.2166 58.1449 94.4138 50.2144 104.225C50.8894 112.292 53.4921 119.792 57.5421 126.314C57.9255 125.597 58.306 124.878 58.7866 124.178C64.3282 116.08 73.931 112.169 83.3338 112.494V127.778L130.556 99.9999Z" fill="url(#paint0_linear_66_4709)"/>
<path d="M57.5417 126.314C53.4917 119.792 50.8889 112.292 50.2139 104.225C47.0278 108.167 44.5639 112.675 43.1695 117.633C37.9167 133.814 47.0333 151.292 61.1778 158.333C61.1778 158.333 49.8028 140.836 57.5417 126.314Z" fill="#FFF6B6"/>
</g>
<defs>
<linearGradient id="paint0_linear_66_4709" x1="44.3144" y1="99.9999" x2="83.6588" y2="99.9999" gradientUnits="userSpaceOnUse">
<stop stop-color="#A780FB"/>
<stop offset="1" stop-color="#FFF1B9"/>
</linearGradient>
<clipPath id="clip0_66_4709">
<rect width="200" height="200" fill="white"/>
</clipPath>
</defs>
</svg>
