<svg width="144" height="144" viewBox="0 0 144 144" fill="none" xmlns="http://www.w3.org/2000/svg">
<g clip-path="url(#clip0_66_4354)">
<path d="M120 1.80005H23.9998C11.7391 1.80005 1.7998 11.7393 1.7998 24V120C1.7998 132.261 11.7391 142.2 23.9998 142.2H120C132.261 142.2 142.2 132.261 142.2 120V24C142.2 11.7393 132.261 1.80005 120 1.80005Z" fill="#1C1B1C"/>
<path d="M120 3.6C131.248 3.6 140.4 12.752 140.4 24V120C140.4 131.248 131.248 140.4 120 140.4H24C12.752 140.4 3.6 131.248 3.6 120V24C3.6 12.752 12.752 3.6 24 3.6H120ZM120 0H24C10.746 0 0 10.746 0 24V120C0 133.254 10.746 144 24 144H120C133.254 144 144 133.254 144 120V24C144 10.746 133.254 0 120 0Z" fill="#A97DFF"/>
<path d="M109.858 90.094C112.486 84.608 114 78.488 114 72C114 48.804 95.196 30 72 30C48.804 30 30 48.804 30 72C30 95.196 48.804 114 72 114C78.488 114 84.608 112.486 90.094 109.858L114 114L109.858 90.094Z" fill="#A97DFF"/>
<path d="M72 100C56.562 100 44 87.438 44 72C44 56.562 56.562 44 72 44C87.438 44 100 56.562 100 72C100 87.438 87.438 100 72 100ZM72 58C64.28 58 58 64.28 58 72C58 79.72 64.28 86 72 86C79.72 86 86 79.72 86 72C86 64.28 79.72 58 72 58Z" fill="#FFF6B6"/>
<path d="M72 86C79.732 86 86 79.732 86 72C86 64.268 79.732 58 72 58C64.268 58 58 64.268 58 72C58 79.732 64.268 86 72 86Z" fill="url(#paint0_linear_66_4354)"/>
</g>
<defs>
<linearGradient id="paint0_linear_66_4354" x1="72" y1="102" x2="72" y2="55" gradientUnits="userSpaceOnUse">
<stop offset="0.21" stop-color="#FFF1B9"/>
<stop offset="0.773003" stop-color="#A683F7"/>
</linearGradient>
<clipPath id="clip0_66_4354">
<rect width="144" height="144" fill="white"/>
</clipPath>
</defs>
</svg>
