<svg width="72" height="72" viewBox="0 0 72 72" fill="none" xmlns="http://www.w3.org/2000/svg">
<g clip-path="url(#clip0_66_5028)">
<path d="M59.9999 0.900024H11.9999C5.86954 0.900024 0.899902 5.86966 0.899902 12V60C0.899902 66.1304 5.86954 71.1 11.9999 71.1H59.9999C66.1303 71.1 71.0999 66.1304 71.0999 60V12C71.0999 5.86966 66.1303 0.900024 59.9999 0.900024Z" fill="#1C1B1C"/>
<path d="M60 1.8C65.624 1.8 70.2 6.376 70.2 12V60C70.2 65.624 65.624 70.2 60 70.2H12C6.376 70.2 1.8 65.624 1.8 60V12C1.8 6.376 6.376 1.8 12 1.8H60ZM60 0H12C5.373 0 0 5.373 0 12V60C0 66.627 5.373 72 12 72H60C66.627 72 72 66.627 72 60V12C72 5.373 66.627 0 60 0Z" fill="#A97DFF"/>
<path d="M54.929 45.047C56.243 42.304 57 39.244 57 36C57 24.402 47.598 15 36 15C24.402 15 15 24.402 15 36C15 47.598 24.402 57 36 57C39.244 57 42.304 56.243 45.047 54.929L57 57L54.929 45.047Z" fill="#A97DFF"/>
<path d="M36 50C28.281 50 22 43.719 22 36C22 28.281 28.281 22 36 22C43.719 22 50 28.281 50 36C50 43.719 43.719 50 36 50ZM36 29C32.14 29 29 32.14 29 36C29 39.86 32.14 43 36 43C39.86 43 43 39.86 43 36C43 32.14 39.86 29 36 29Z" fill="#FFF6B6"/>
<path d="M36 43C39.866 43 43 39.866 43 36C43 32.134 39.866 29 36 29C32.134 29 29 32.134 29 36C29 39.866 32.134 43 36 43Z" fill="url(#paint0_linear_66_5028)"/>
</g>
<defs>
<linearGradient id="paint0_linear_66_5028" x1="36" y1="51" x2="36" y2="27.5" gradientUnits="userSpaceOnUse">
<stop offset="0.21" stop-color="#FFF1B9"/>
<stop offset="0.773003" stop-color="#A683F7"/>
</linearGradient>
<clipPath id="clip0_66_5028">
<rect width="72" height="72" fill="white"/>
</clipPath>
</defs>
</svg>
