<svg width="24" height="24" viewBox="0 0 24 24" fill="none" xmlns="http://www.w3.org/2000/svg">
<g clip-path="url(#clip0_71_1937)">
<path d="M19.9998 0.300049H3.9998C1.95635 0.300049 0.299805 1.9566 0.299805 4.00005V20C0.299805 22.0435 1.95635 23.7 3.9998 23.7H19.9998C22.0433 23.7 23.6998 22.0435 23.6998 20V4.00005C23.6998 1.9566 22.0433 0.300049 19.9998 0.300049Z" fill="#1C1B1C"/>
<path d="M20 0.6C21.8747 0.6 23.4 2.12533 23.4 4V20C23.4 21.8747 21.8747 23.4 20 23.4H4C2.12533 23.4 0.6 21.8747 0.6 20V4C0.6 2.12533 2.12533 0.6 4 0.6H20ZM20 0H4C1.791 0 0 1.791 0 4V20C0 22.209 1.791 24 4 24H20C22.209 24 24 22.209 24 20V4C24 1.791 22.209 0 20 0Z" fill="#A97DFF"/>
<path d="M18.3097 15.0157C18.7477 14.1013 19 13.0813 19 12C19 8.134 15.866 5 12 5C8.134 5 5 8.134 5 12C5 15.866 8.134 19 12 19C13.0813 19 14.1013 18.7477 15.0157 18.3097L19 19L18.3097 15.0157Z" fill="#A97DFF"/>
<path d="M12.0002 16.6667C9.42716 16.6667 7.3335 14.573 7.3335 12C7.3335 9.42704 9.42716 7.33337 12.0002 7.33337C14.5732 7.33337 16.6668 9.42704 16.6668 12C16.6668 14.573 14.5732 16.6667 12.0002 16.6667ZM12.0002 9.66671C10.7135 9.66671 9.66683 10.7134 9.66683 12C9.66683 13.2867 10.7135 14.3334 12.0002 14.3334C13.2868 14.3334 14.3335 13.2867 14.3335 12C14.3335 10.7134 13.2868 9.66671 12.0002 9.66671Z" fill="#FFF6B6"/>
<path d="M11.9998 14.3333C13.2885 14.3333 14.3332 13.2886 14.3332 12C14.3332 10.7113 13.2885 9.66663 11.9998 9.66663C10.7112 9.66663 9.6665 10.7113 9.6665 12C9.6665 13.2886 10.7112 14.3333 11.9998 14.3333Z" fill="url(#paint0_linear_71_1937)"/>
</g>
<defs>
<linearGradient id="paint0_linear_71_1937" x1="11.9998" y1="17" x2="11.9998" y2="9.16663" gradientUnits="userSpaceOnUse">
<stop offset="0.21" stop-color="#FFF1B9"/>
<stop offset="0.773003" stop-color="#A683F7"/>
</linearGradient>
<clipPath id="clip0_71_1937">
<rect width="24" height="24" fill="white"/>
</clipPath>
</defs>
</svg>
