<svg width="200" height="200" viewBox="0 0 200 200" fill="none" xmlns="http://www.w3.org/2000/svg">
<g clip-path="url(#clip0_66_4691)">
<path d="M166.667 2.5H33.3333C16.3046 2.5 2.5 16.3046 2.5 33.3333V166.667C2.5 183.695 16.3046 197.5 33.3333 197.5H166.667C183.695 197.5 197.5 183.695 197.5 166.667V33.3333C197.5 16.3046 183.695 2.5 166.667 2.5Z" fill="#1C1B1C"/>
<path d="M166.667 5C182.289 5 195 17.7111 195 33.3333V166.667C195 182.289 182.289 195 166.667 195H33.3333C17.7111 195 5 182.289 5 166.667V33.3333C5 17.7111 17.7111 5 33.3333 5H166.667ZM166.667 0H33.3333C14.925 0 0 14.925 0 33.3333V166.667C0 185.075 14.925 200 33.3333 200H166.667C185.075 200 200 185.075 200 166.667V33.3333C200 14.925 185.075 0 166.667 0Z" fill="#A97DFF"/>
<path d="M152.58 125.131C156.23 117.511 158.333 109.011 158.333 100C158.333 67.7833 132.216 41.6666 99.9998 41.6666C67.7832 41.6666 41.6665 67.7833 41.6665 100C41.6665 132.217 67.7832 158.333 99.9998 158.333C109.011 158.333 117.511 156.231 125.13 152.581L158.333 158.333L152.58 125.131Z" fill="#A97DFF"/>
<path d="M99.9997 138.889C78.5581 138.889 61.1108 121.442 61.1108 100C61.1108 78.5583 78.5581 61.1111 99.9997 61.1111C121.441 61.1111 138.889 78.5583 138.889 100C138.889 121.442 121.441 138.889 99.9997 138.889ZM99.9997 80.5555C89.2775 80.5555 80.5553 89.2778 80.5553 100C80.5553 110.722 89.2775 119.444 99.9997 119.444C110.722 119.444 119.444 110.722 119.444 100C119.444 89.2778 110.722 80.5555 99.9997 80.5555Z" fill="#FFF6B6"/>
<path d="M99.9996 119.444C110.738 119.444 119.444 110.739 119.444 100C119.444 89.2611 110.738 80.5555 99.9996 80.5555C89.2608 80.5555 80.5552 89.2611 80.5552 100C80.5552 110.739 89.2608 119.444 99.9996 119.444Z" fill="url(#paint0_linear_66_4691)"/>
</g>
<defs>
<linearGradient id="paint0_linear_66_4691" x1="99.9996" y1="141.667" x2="99.9996" y2="76.3889" gradientUnits="userSpaceOnUse">
<stop offset="0.21" stop-color="#FFF1B9"/>
<stop offset="0.773003" stop-color="#A683F7"/>
</linearGradient>
<clipPath id="clip0_66_4691">
<rect width="200" height="200" fill="white"/>
</clipPath>
</defs>
</svg>
