<svg width="48" height="48" viewBox="0 0 48 48" fill="none" xmlns="http://www.w3.org/2000/svg">
<g clip-path="url(#clip0_66_5378)">
<path d="M40.0001 0.599976H8.0001C3.91319 0.599976 0.600098 3.91307 0.600098 7.99998V40C0.600098 44.0869 3.91319 47.4 8.0001 47.4H40.0001C44.087 47.4 47.4001 44.0869 47.4001 40V7.99998C47.4001 3.91307 44.087 0.599976 40.0001 0.599976Z" fill="#1C1B1C"/>
<path d="M40 1.2C43.7493 1.2 46.8 4.25067 46.8 8V40C46.8 43.7493 43.7493 46.8 40 46.8H8C4.25067 46.8 1.2 43.7493 1.2 40V8C1.2 4.25067 4.25067 1.2 8 1.2H40ZM40 0H8C3.582 0 0 3.582 0 8V40C0 44.418 3.582 48 8 48H40C44.418 48 48 44.418 48 40V8C48 3.582 44.418 0 40 0Z" fill="#A97DFF"/>
<path d="M36.6193 30.0313C37.4953 28.2027 38 26.1627 38 24C38 16.268 31.732 10 24 10C16.268 10 10 16.268 10 24C10 31.732 16.268 38 24 38C26.1627 38 28.2027 37.4953 30.0313 36.6193L38 38L36.6193 30.0313Z" fill="#A97DFF"/>
<path d="M23.9998 33.3333C18.8538 33.3333 14.6665 29.146 14.6665 24C14.6665 18.854 18.8538 14.6666 23.9998 14.6666C29.1458 14.6666 33.3332 18.854 33.3332 24C33.3332 29.146 29.1458 33.3333 23.9998 33.3333ZM23.9998 19.3333C21.4265 19.3333 19.3332 21.4266 19.3332 24C19.3332 26.5733 21.4265 28.6666 23.9998 28.6666C26.5732 28.6666 28.6665 26.5733 28.6665 24C28.6665 21.4266 26.5732 19.3333 23.9998 19.3333Z" fill="#FFF6B6"/>
<path d="M24.0002 28.6667C26.5775 28.6667 28.6668 26.5774 28.6668 24C28.6668 21.4227 26.5775 19.3334 24.0002 19.3334C21.4228 19.3334 19.3335 21.4227 19.3335 24C19.3335 26.5774 21.4228 28.6667 24.0002 28.6667Z" fill="url(#paint0_linear_66_5378)"/>
</g>
<defs>
<linearGradient id="paint0_linear_66_5378" x1="24.0002" y1="34" x2="24.0002" y2="18.3334" gradientUnits="userSpaceOnUse">
<stop offset="0.21" stop-color="#FFF1B9"/>
<stop offset="0.773003" stop-color="#A683F7"/>
</linearGradient>
<clipPath id="clip0_66_5378">
<rect width="48" height="48" fill="white"/>
</clipPath>
</defs>
</svg>
