<svg width="200" height="200" viewBox="0 0 200 200" fill="none" xmlns="http://www.w3.org/2000/svg">
<g clip-path="url(#clip0_66_4878)">
<path d="M166.667 2.5H33.3333C16.3046 2.5 2.5 16.3046 2.5 33.3333V166.667C2.5 183.695 16.3046 197.5 33.3333 197.5H166.667C183.695 197.5 197.5 183.695 197.5 166.667V33.3333C197.5 16.3046 183.695 2.5 166.667 2.5Z" fill="#1C1B1C"/>
<path d="M166.667 5C182.289 5 195 17.7111 195 33.3333V166.667C195 182.289 182.289 195 166.667 195H33.3333C17.7111 195 5 182.289 5 166.667V33.3333C5 17.7111 17.7111 5 33.3333 5H166.667ZM166.667 0H33.3333C14.925 0 0 14.925 0 33.3333V166.667C0 185.075 14.925 200 33.3333 200H166.667C185.075 200 200 185.075 200 166.667V33.3333C200 14.925 185.075 0 166.667 0Z" fill="#397BFF"/>
<path fill-rule="evenodd" clip-rule="evenodd" d="M150 127.778L138.889 150H97.2222L108.333 127.778H150Z" fill="#FFF6B6"/>
<path fill-rule="evenodd" clip-rule="evenodd" d="M116.667 100L91.6667 150H50L75 100H116.667Z" fill="#397BFF"/>
<path fill-rule="evenodd" clip-rule="evenodd" d="M91.6667 50H50L75 100H116.667L91.6667 50ZM77.7778 94.4444L58.3333 55.5556H88.8889L108.333 94.4444H77.7778Z" fill="#397BFF"/>
<path fill-rule="evenodd" clip-rule="evenodd" d="M108.333 94.4444H77.7779L58.3335 55.5555H88.889L108.333 94.4444Z" fill="url(#paint0_linear_66_4878)"/>
</g>
<defs>
<linearGradient id="paint0_linear_66_4878" x1="83.3335" y1="48.5805" x2="83.3335" y2="101.553" gradientUnits="userSpaceOnUse">
<stop stop-color="#397BFF"/>
<stop offset="0.76" stop-color="#FFF6B6"/>
</linearGradient>
<clipPath id="clip0_66_4878">
<rect width="200" height="200" fill="white"/>
</clipPath>
</defs>
</svg>
