<svg width="24" height="24" viewBox="0 0 24 24" fill="none" xmlns="http://www.w3.org/2000/svg">
<g clip-path="url(#clip0_71_2134)">
<path d="M19.9998 0.300049H3.9998C1.95635 0.300049 0.299805 1.9566 0.299805 4.00005V20C0.299805 22.0435 1.95635 23.7 3.9998 23.7H19.9998C22.0433 23.7 23.6998 22.0435 23.6998 20V4.00005C23.6998 1.9566 22.0433 0.300049 19.9998 0.300049Z" fill="#1C1B1C"/>
<path d="M20 0.6C21.8747 0.6 23.4 2.12533 23.4 4V20C23.4 21.8747 21.8747 23.4 20 23.4H4C2.12533 23.4 0.6 21.8747 0.6 20V4C0.6 2.12533 2.12533 0.6 4 0.6H20ZM20 0H4C1.791 0 0 1.791 0 4V20C0 22.209 1.791 24 4 24H20C22.209 24 24 22.209 24 20V4C24 1.791 22.209 0 20 0Z" fill="#397BFF"/>
<path fill-rule="evenodd" clip-rule="evenodd" d="M17.9998 15.3334L16.6665 18H11.6665L12.9998 15.3334H17.9998Z" fill="#FFF6B6"/>
<path fill-rule="evenodd" clip-rule="evenodd" d="M14 12L11 18H6L9 12H14Z" fill="#397BFF"/>
<path fill-rule="evenodd" clip-rule="evenodd" d="M11 6H6L9 12H14L11 6ZM9.33333 11.3333L7 6.66667H10.6667L13 11.3333H9.33333Z" fill="#397BFF"/>
<path fill-rule="evenodd" clip-rule="evenodd" d="M13 11.3333H9.33333L7 6.66663H10.6667L13 11.3333Z" fill="url(#paint0_linear_71_2134)"/>
</g>
<defs>
<linearGradient id="paint0_linear_71_2134" x1="10" y1="5.82963" x2="10" y2="12.1863" gradientUnits="userSpaceOnUse">
<stop stop-color="#397BFF"/>
<stop offset="0.76" stop-color="#FFF6B6"/>
</linearGradient>
<clipPath id="clip0_71_2134">
<rect width="24" height="24" fill="white"/>
</clipPath>
</defs>
</svg>
