<svg width="72" height="72" viewBox="0 0 72 72" fill="none" xmlns="http://www.w3.org/2000/svg">
<g clip-path="url(#clip0_66_5081)">
<path d="M60 0.900391H12C5.86986 0.900391 0.900391 5.86986 0.900391 12V60C0.900391 66.1301 5.86986 71.0996 12 71.0996H60C66.1301 71.0996 71.0996 66.1301 71.0996 60V12C71.0996 5.86986 66.1301 0.900391 60 0.900391Z" fill="#1C1B1C"/>
<path d="M60 1.79999C65.6243 1.79999 70.2 6.3757 70.2 12V60C70.2 65.6243 65.6243 70.2 60 70.2H12C6.37573 70.2 1.80005 65.6243 1.80005 60V12C1.80005 6.3757 6.37573 1.79999 12 1.79999H60ZM60 0H12C5.37256 0 0 5.37259 0 12V60C0 66.6274 5.37256 72 12 72H60C66.6274 72 72 66.6274 72 60V12C72 5.37259 66.6274 0 60 0Z" fill="#A97DFF"/>
<path d="M42 18H18V42H42V18Z" fill="#A97DFF"/>
<path d="M54 30H30V54H54V30Z" fill="#8DFCF1"/>
<path d="M42 30H30V42H42V30Z" fill="url(#paint0_linear_66_5081)"/>
</g>
<defs>
<linearGradient id="paint0_linear_66_5081" x1="42" y1="42" x2="29" y2="29" gradientUnits="userSpaceOnUse">
<stop offset="0.15" stop-color="#A97DFF"/>
<stop offset="0.85" stop-color="#8DFCF1"/>
</linearGradient>
<clipPath id="clip0_66_5081">
<rect width="72" height="72" fill="white"/>
</clipPath>
</defs>
</svg>
