<svg width="200" height="200" viewBox="0 0 200 200" fill="none" xmlns="http://www.w3.org/2000/svg">
<g clip-path="url(#clip0_66_4744)">
<path d="M166.667 2.50098H33.3332C16.305 2.50098 2.50098 16.305 2.50098 33.3332V166.667C2.50098 183.695 16.305 197.499 33.3332 197.499H166.667C183.695 197.499 197.499 183.695 197.499 166.667V33.3332C197.499 16.305 183.695 2.50098 166.667 2.50098Z" fill="#1C1B1C"/>
<path d="M166.667 4.99997C182.29 4.99997 195 17.7103 195 33.3333V166.667C195 182.29 182.29 195 166.667 195H33.3333C17.7104 195 5.00014 182.29 5.00014 166.667V33.3333C5.00014 17.7103 17.7104 4.99997 33.3333 4.99997H166.667ZM166.667 0H33.3333C14.9238 0 0 14.9239 0 33.3333V166.667C0 185.076 14.9238 200 33.3333 200H166.667C185.076 200 200 185.076 200 166.667V33.3333C200 14.9239 185.076 0 166.667 0Z" fill="#A97DFF"/>
<path d="M116.667 50H50V116.667H116.667V50Z" fill="#A97DFF"/>
<path d="M150 83.3333H83.3335V150H150V83.3333Z" fill="#8DFCF1"/>
<path d="M116.667 83.3333H83.3335V116.667H116.667V83.3333Z" fill="url(#paint0_linear_66_4744)"/>
</g>
<defs>
<linearGradient id="paint0_linear_66_4744" x1="116.667" y1="116.667" x2="80.5557" y2="80.5555" gradientUnits="userSpaceOnUse">
<stop offset="0.15" stop-color="#A97DFF"/>
<stop offset="0.85" stop-color="#8DFCF1"/>
</linearGradient>
<clipPath id="clip0_66_4744">
<rect width="200" height="200" fill="white"/>
</clipPath>
</defs>
</svg>
