<svg width="24" height="24" viewBox="0 0 24 24" fill="none" xmlns="http://www.w3.org/2000/svg">
<g clip-path="url(#clip0_71_2046)">
<path d="M19.9998 0.300049H3.9998C1.95635 0.300049 0.299805 1.9566 0.299805 4.00005V20C0.299805 22.0435 1.95635 23.7 3.9998 23.7H19.9998C22.0433 23.7 23.6998 22.0435 23.6998 20V4.00005C23.6998 1.9566 22.0433 0.300049 19.9998 0.300049Z" fill="#1C1B1C"/>
<path d="M20 0.6C21.8747 0.6 23.4 2.12533 23.4 4V20C23.4 21.8747 21.8747 23.4 20 23.4H4C2.12533 23.4 0.6 21.8747 0.6 20V4C0.6 2.12533 2.12533 0.6 4 0.6H20ZM20 0H4C1.791 0 0 1.791 0 4V20C0 22.209 1.791 24 4 24H20C22.209 24 24 22.209 24 20V4C24 1.791 22.209 0 20 0Z" fill="#FF996C"/>
<path d="M9.80667 11.8967L8.15667 13.5467L9.80667 15.1967L11.4567 16.8467L16.3333 11.97V18H7V6H16.3333V8.67L11.4567 13.5467L9.80667 11.8967Z" fill="#A97DFF"/>
<path d="M16.3334 8.66992V11.9699L11.4567 16.8466L9.80674 15.1966L8.15674 13.5466L9.80674 11.8966L11.4567 13.5466L16.3334 8.66992Z" fill="url(#paint0_linear_71_2046)"/>
<path d="M19.0002 9.30332L16.3335 11.97V8.66999L17.3502 7.65332L19.0002 9.30332Z" fill="#FF996C"/>
</g>
<defs>
<linearGradient id="paint0_linear_71_2046" x1="8.15674" y1="12.7583" x2="16.3334" y2="12.7583" gradientUnits="userSpaceOnUse">
<stop offset="0.25" stop-color="#FF996C"/>
<stop offset="0.988" stop-color="#A97DFF"/>
</linearGradient>
<clipPath id="clip0_71_2046">
<rect width="24" height="24" fill="white"/>
</clipPath>
</defs>
</svg>
