<svg width="48" height="48" viewBox="0 0 48 48" fill="none" xmlns="http://www.w3.org/2000/svg">
<g clip-path="url(#clip0_66_5487)">
<path d="M40.0001 0.600098H8.0001C3.91319 0.600098 0.600098 3.91319 0.600098 8.0001V40.0001C0.600098 44.087 3.91319 47.4001 8.0001 47.4001H40.0001C44.087 47.4001 47.4001 44.087 47.4001 40.0001V8.0001C47.4001 3.91319 44.087 0.600098 40.0001 0.600098Z" fill="#1C1B1C"/>
<path d="M40 1.2C43.7493 1.2 46.8 4.25067 46.8 8V40C46.8 43.7493 43.7493 46.8 40 46.8H8C4.25067 46.8 1.2 43.7493 1.2 40V8C1.2 4.25067 4.25067 1.2 8 1.2H40ZM40 0H8C3.582 0 0 3.582 0 8V40C0 44.418 3.582 48 8 48H40C44.418 48 48 44.418 48 40V8C48 3.582 44.418 0 40 0Z" fill="#FF996C"/>
<path d="M19.6133 23.7933L16.3133 27.0933L19.6133 30.3933L22.9133 33.6933L32.6667 23.94V36H14V12H32.6667V17.34L22.9133 27.0933L19.6133 23.7933Z" fill="#A97DFF"/>
<path d="M32.6668 17.3401V23.9401L22.9135 33.6934L19.6135 30.3934L16.3135 27.0934L19.6135 23.7934L22.9135 27.0934L32.6668 17.3401Z" fill="url(#paint0_linear_66_5487)"/>
<path d="M38.0003 18.6066L32.667 23.94V17.34L34.7003 15.3066L38.0003 18.6066Z" fill="#FF996C"/>
</g>
<defs>
<linearGradient id="paint0_linear_66_5487" x1="16.3135" y1="25.5168" x2="32.6668" y2="25.5168" gradientUnits="userSpaceOnUse">
<stop offset="0.25" stop-color="#FF996C"/>
<stop offset="0.988" stop-color="#A97DFF"/>
</linearGradient>
<clipPath id="clip0_66_5487">
<rect width="48" height="48" fill="white"/>
</clipPath>
</defs>
</svg>
