<svg width="72" height="72" viewBox="0 0 72 72" fill="none" xmlns="http://www.w3.org/2000/svg">
<g clip-path="url(#clip0_66_5137)">
<path d="M59.9999 0.900024H11.9999C5.86954 0.900024 0.899902 5.86966 0.899902 12V60C0.899902 66.1304 5.86954 71.1 11.9999 71.1H59.9999C66.1303 71.1 71.0999 66.1304 71.0999 60V12C71.0999 5.86966 66.1303 0.900024 59.9999 0.900024Z" fill="#1C1B1C"/>
<path d="M60 1.8C65.624 1.8 70.2 6.376 70.2 12V60C70.2 65.624 65.624 70.2 60 70.2H12C6.376 70.2 1.8 65.624 1.8 60V12C1.8 6.376 6.376 1.8 12 1.8H60ZM60 0H12C5.373 0 0 5.373 0 12V60C0 66.627 5.373 72 12 72H60C66.627 72 72 66.627 72 60V12C72 5.373 66.627 0 60 0Z" fill="#FF996C"/>
<path d="M29.42 35.69L24.47 40.64L29.42 45.59L34.37 50.54L49 35.91V54H21V18H49V26.01L34.37 40.64L29.42 35.69Z" fill="#A97DFF"/>
<path d="M49.0002 26.01V35.91L34.3702 50.54L29.4202 45.59L24.4702 40.64L29.4202 35.69L34.3702 40.64L49.0002 26.01Z" fill="url(#paint0_linear_66_5137)"/>
<path d="M57 27.91L49 35.91V26.01L52.05 22.96L57 27.91Z" fill="#FF996C"/>
</g>
<defs>
<linearGradient id="paint0_linear_66_5137" x1="24.4702" y1="38.275" x2="49.0002" y2="38.275" gradientUnits="userSpaceOnUse">
<stop offset="0.25" stop-color="#FF996C"/>
<stop offset="0.988" stop-color="#A97DFF"/>
</linearGradient>
<clipPath id="clip0_66_5137">
<rect width="72" height="72" fill="white"/>
</clipPath>
</defs>
</svg>
