<svg width="48" height="48" viewBox="0 0 48 48" fill="none" xmlns="http://www.w3.org/2000/svg">
<g clip-path="url(#clip0_66_5667)">
<path d="M40.0001 0.599976H8.0001C3.91319 0.599976 0.600098 3.91307 0.600098 7.99998V40C0.600098 44.0869 3.91319 47.4 8.0001 47.4H40.0001C44.087 47.4 47.4001 44.0869 47.4001 40V7.99998C47.4001 3.91307 44.087 0.599976 40.0001 0.599976Z" fill="#1C1B1C"/>
<path d="M40 1.2C43.7493 1.2 46.8 4.25067 46.8 8V40C46.8 43.7493 43.7493 46.8 40 46.8H8C4.25067 46.8 1.2 43.7493 1.2 40V8C1.2 4.25067 4.25067 1.2 8 1.2H40ZM40 0H8C3.582 0 0 3.582 0 8V40C0 44.418 3.582 48 8 48H40C44.418 48 48 44.418 48 40V8C48 3.582 44.418 0 40 0Z" fill="#8DFCF1"/>
<path d="M36.0002 12H19.3335V36H36.0002V12Z" fill="#A97DFF"/>
<path fill-rule="evenodd" clip-rule="evenodd" d="M26.6668 30.6667H19.3335L22.6668 24L19.3335 17.3334H26.6668L30.0002 24L26.6668 30.6667Z" fill="url(#paint0_linear_66_5667)"/>
<path fill-rule="evenodd" clip-rule="evenodd" d="M19.3333 30.6667H12L15.3333 24L12 17.3334H19.3333L22.6667 24L19.3333 30.6667Z" fill="#8DFCF1"/>
</g>
<defs>
<linearGradient id="paint0_linear_66_5667" x1="30.6168" y1="24" x2="12.0735" y2="24" gradientUnits="userSpaceOnUse">
<stop offset="0.193" stop-color="#8DFCF1"/>
<stop offset="0.683" stop-color="#A97DFF"/>
</linearGradient>
<clipPath id="clip0_66_5667">
<rect width="48" height="48" fill="white"/>
</clipPath>
</defs>
</svg>
