<svg width="200" height="200" viewBox="0 0 200 200" fill="none" xmlns="http://www.w3.org/2000/svg">
<g clip-path="url(#clip0_66_4859)">
<path d="M166.667 2.5H33.3333C16.3046 2.5 2.5 16.3046 2.5 33.3333V166.667C2.5 183.695 16.3046 197.5 33.3333 197.5H166.667C183.695 197.5 197.5 183.695 197.5 166.667V33.3333C197.5 16.3046 183.695 2.5 166.667 2.5Z" fill="#1C1B1C"/>
<path d="M166.667 5C182.289 5 195 17.7111 195 33.3333V166.667C195 182.289 182.289 195 166.667 195H33.3333C17.7111 195 5 182.289 5 166.667V33.3333C5 17.7111 17.7111 5 33.3333 5H166.667ZM166.667 0H33.3333C14.925 0 0 14.925 0 33.3333V166.667C0 185.075 14.925 200 33.3333 200H166.667C185.075 200 200 185.075 200 166.667V33.3333C200 14.925 185.075 0 166.667 0Z" fill="#397BFF"/>
<path fill-rule="evenodd" clip-rule="evenodd" d="M136.111 119.444C147.222 119.444 158.333 111.111 158.333 97.2222C158.333 77.7778 141.694 72.2222 133.333 72.2222C133.333 55.5556 113.889 41.6667 99.9998 41.6667C88.8887 41.6667 63.9165 47.2222 63.9165 75C55.5554 75 41.6665 80.5556 41.6665 97.2222C41.6665 111.111 52.7776 119.444 63.8887 119.444" fill="#397BFF"/>
<path fill-rule="evenodd" clip-rule="evenodd" d="M127.778 119.444V150L99.9999 136.111L72.2222 150V119.444L99.9999 105.556L127.778 119.444Z" fill="#FF996C"/>
<path fill-rule="evenodd" clip-rule="evenodd" d="M127.778 88.8889V119.444L99.9999 105.556L72.2222 119.444V88.8889L99.9999 75L127.778 88.8889Z" fill="url(#paint0_linear_66_4859)"/>
</g>
<defs>
<linearGradient id="paint0_linear_66_4859" x1="99.9999" y1="113.889" x2="99.9999" y2="75" gradientUnits="userSpaceOnUse">
<stop stop-color="#4281F5"/>
<stop offset="0.93" stop-color="#F99375"/>
</linearGradient>
<clipPath id="clip0_66_4859">
<rect width="200" height="200" fill="white"/>
</clipPath>
</defs>
</svg>
