<svg width="72" height="72" viewBox="0 0 72 72" fill="none" xmlns="http://www.w3.org/2000/svg">
<g clip-path="url(#clip0_66_5108)">
<path d="M59.9999 0.900024H11.9999C5.86954 0.900024 0.899902 5.86966 0.899902 12V60C0.899902 66.1304 5.86954 71.1 11.9999 71.1H59.9999C66.1303 71.1 71.0999 66.1304 71.0999 60V12C71.0999 5.86966 66.1303 0.900024 59.9999 0.900024Z" fill="#1C1B1C"/>
<path d="M60 1.8C65.624 1.8 70.2 6.376 70.2 12V60C70.2 65.624 65.624 70.2 60 70.2H12C6.376 70.2 1.8 65.624 1.8 60V12C1.8 6.376 6.376 1.8 12 1.8H60ZM60 0H12C5.373 0 0 5.373 0 12V60C0 66.627 5.373 72 12 72H60C66.627 72 72 66.627 72 60V12C72 5.373 66.627 0 60 0Z" fill="#397BFF"/>
<path d="M42.75 30H35.25L29.25 42H21.75L27.75 30L21.75 18H36.75L42.75 30Z" fill="#397BFF"/>
<path d="M42.75 30L36.75 42H29.25L35.25 30H42.75Z" fill="url(#paint0_linear_66_5108)"/>
<path d="M44.25 42L50.25 54H35.25L29.25 42H36.75L42.75 30H50.25L44.25 42Z" fill="#FF996C"/>
</g>
<defs>
<linearGradient id="paint0_linear_66_5108" x1="40.986" y1="38.364" x2="31.198" y2="33.723" gradientUnits="userSpaceOnUse">
<stop offset="0.2" stop-color="#397BFF"/>
<stop offset="0.8" stop-color="#FF986C"/>
</linearGradient>
<clipPath id="clip0_66_5108">
<rect width="72" height="72" fill="white"/>
</clipPath>
</defs>
</svg>
