<svg width="144" height="144" viewBox="0 0 144 144" fill="none" xmlns="http://www.w3.org/2000/svg">
<g clip-path="url(#clip0_66_4522)">
<path d="M120 1.79999H23.9998C11.7391 1.79999 1.7998 11.7393 1.7998 24V120C1.7998 132.261 11.7391 142.2 23.9998 142.2H120C132.261 142.2 142.2 132.261 142.2 120V24C142.2 11.7393 132.261 1.79999 120 1.79999Z" fill="#1C1B1C"/>
<path d="M120 3.6C131.248 3.6 140.4 12.752 140.4 24V120C140.4 131.248 131.248 140.4 120 140.4H24C12.752 140.4 3.6 131.248 3.6 120V24C3.6 12.752 12.752 3.6 24 3.6H120ZM120 0H24C10.746 0 0 10.746 0 24V120C0 133.254 10.746 144 24 144H120C133.254 144 144 133.254 144 120V24C144 10.746 133.254 0 120 0Z" fill="#397BFF"/>
<path fill-rule="evenodd" clip-rule="evenodd" d="M98 86C106 86 114 80 114 70C114 56 102.02 52 96 52C96 40 82 30 72 30C64 30 46.02 34 46.02 54C40 54 30 58 30 70C30 80 38 86 46 86" fill="#397BFF"/>
<path fill-rule="evenodd" clip-rule="evenodd" d="M92 86V108L72 98L52 108V86L72 76L92 86Z" fill="#FF996C"/>
<path fill-rule="evenodd" clip-rule="evenodd" d="M92 64V86L72 76L52 86V64L72 54L92 64Z" fill="url(#paint0_linear_66_4522)"/>
</g>
<defs>
<linearGradient id="paint0_linear_66_4522" x1="72" y1="82" x2="72" y2="54" gradientUnits="userSpaceOnUse">
<stop stop-color="#4281F5"/>
<stop offset="0.93" stop-color="#F99375"/>
</linearGradient>
<clipPath id="clip0_66_4522">
<rect width="144" height="144" fill="white"/>
</clipPath>
</defs>
</svg>
