<svg width="48" height="48" viewBox="0 0 48 48" fill="none" xmlns="http://www.w3.org/2000/svg">
<g clip-path="url(#clip0_66_5546)">
<path d="M40.0001 0.599976H8.0001C3.91319 0.599976 0.600098 3.91307 0.600098 7.99998V40C0.600098 44.0869 3.91319 47.4 8.0001 47.4H40.0001C44.087 47.4 47.4001 44.0869 47.4001 40V7.99998C47.4001 3.91307 44.087 0.599976 40.0001 0.599976Z" fill="#1C1B1C"/>
<path d="M40 1.2C43.7493 1.2 46.8 4.25067 46.8 8V40C46.8 43.7493 43.7493 46.8 40 46.8H8C4.25067 46.8 1.2 43.7493 1.2 40V8C1.2 4.25067 4.25067 1.2 8 1.2H40ZM40 0H8C3.582 0 0 3.582 0 8V40C0 44.418 3.582 48 8 48H40C44.418 48 48 44.418 48 40V8C48 3.582 44.418 0 40 0Z" fill="#397BFF"/>
<path fill-rule="evenodd" clip-rule="evenodd" d="M32.6667 28.6667C35.3333 28.6667 38 26.6667 38 23.3333C38 18.6667 34.0067 17.3333 32 17.3333C32 13.3333 27.3333 10 24 10C21.3333 10 15.34 11.3333 15.34 18C13.3333 18 10 19.3333 10 23.3333C10 26.6667 12.6667 28.6667 15.3333 28.6667" fill="#397BFF"/>
<path fill-rule="evenodd" clip-rule="evenodd" d="M30.6668 28.6666V36L24.0002 32.6666L17.3335 36V28.6666L24.0002 25.3333L30.6668 28.6666Z" fill="#FF996C"/>
<path fill-rule="evenodd" clip-rule="evenodd" d="M30.6668 21.3333V28.6667L24.0002 25.3333L17.3335 28.6667V21.3333L24.0002 18L30.6668 21.3333Z" fill="url(#paint0_linear_66_5546)"/>
</g>
<defs>
<linearGradient id="paint0_linear_66_5546" x1="24.0002" y1="27.3333" x2="24.0002" y2="18" gradientUnits="userSpaceOnUse">
<stop stop-color="#4281F5"/>
<stop offset="0.93" stop-color="#F99375"/>
</linearGradient>
<clipPath id="clip0_66_5546">
<rect width="48" height="48" fill="white"/>
</clipPath>
</defs>
</svg>
