<svg width="48" height="48" viewBox="0 0 48 48" fill="none" xmlns="http://www.w3.org/2000/svg">
<g clip-path="url(#clip0_66_5458)">
<path d="M40.0001 0.599976H8.0001C3.91319 0.599976 0.600098 3.91307 0.600098 7.99998V40C0.600098 44.0869 3.91319 47.4 8.0001 47.4H40.0001C44.087 47.4 47.4001 44.0869 47.4001 40V7.99998C47.4001 3.91307 44.087 0.599976 40.0001 0.599976Z" fill="#1C1B1C"/>
<path d="M40 1.2C43.7493 1.2 46.8 4.25067 46.8 8V40C46.8 43.7493 43.7493 46.8 40 46.8H8C4.25067 46.8 1.2 43.7493 1.2 40V8C1.2 4.25067 4.25067 1.2 8 1.2H40ZM40 0H8C3.582 0 0 3.582 0 8V40C0 44.418 3.582 48 8 48H40C44.418 48 48 44.418 48 40V8C48 3.582 44.418 0 40 0Z" fill="#397BFF"/>
<path d="M28.5 20H23.5L19.5 28H14.5L18.5 20L14.5 12H24.5L28.5 20Z" fill="#397BFF"/>
<path d="M28.5 20L24.5 28H19.5L23.5 20H28.5Z" fill="url(#paint0_linear_66_5458)"/>
<path d="M29.5 28L33.5 36H23.5L19.5 28H24.5L28.5 20H33.5L29.5 28Z" fill="#FF996C"/>
</g>
<defs>
<linearGradient id="paint0_linear_66_5458" x1="27.324" y1="25.576" x2="20.7987" y2="22.482" gradientUnits="userSpaceOnUse">
<stop offset="0.2" stop-color="#397BFF"/>
<stop offset="0.8" stop-color="#FF986C"/>
</linearGradient>
<clipPath id="clip0_66_5458">
<rect width="48" height="48" fill="white"/>
</clipPath>
</defs>
</svg>
