<svg width="24" height="24" viewBox="0 0 24 24" fill="none" xmlns="http://www.w3.org/2000/svg">
<g clip-path="url(#clip0_71_2115)">
<path d="M19.9998 0.299988H3.9998C1.95635 0.299988 0.299805 1.95653 0.299805 3.99999V20C0.299805 22.0434 1.95635 23.7 3.9998 23.7H19.9998C22.0433 23.7 23.6998 22.0434 23.6998 20V3.99999C23.6998 1.95653 22.0433 0.299988 19.9998 0.299988Z" fill="#1C1B1C"/>
<path d="M20 0.6C21.8747 0.6 23.4 2.12533 23.4 4V20C23.4 21.8747 21.8747 23.4 20 23.4H4C2.12533 23.4 0.6 21.8747 0.6 20V4C0.6 2.12533 2.12533 0.6 4 0.6H20ZM20 0H4C1.791 0 0 1.791 0 4V20C0 22.209 1.791 24 4 24H20C22.209 24 24 22.209 24 20V4C24 1.791 22.209 0 20 0Z" fill="#397BFF"/>
<path fill-rule="evenodd" clip-rule="evenodd" d="M16.3333 14.3333C17.6667 14.3333 19 13.3333 19 11.6667C19 9.33333 17.0033 8.66667 16 8.66667C16 6.66667 13.6667 5 12 5C10.6667 5 7.67 5.66667 7.67 9C6.66667 9 5 9.66667 5 11.6667C5 13.3333 6.33333 14.3333 7.66667 14.3333" fill="#397BFF"/>
<path fill-rule="evenodd" clip-rule="evenodd" d="M15.3332 14.3334V18L11.9998 16.3334L8.6665 18V14.3334L11.9998 12.6667L15.3332 14.3334Z" fill="#FF996C"/>
<path fill-rule="evenodd" clip-rule="evenodd" d="M15.3332 10.6667V14.3333L11.9998 12.6667L8.6665 14.3333V10.6667L11.9998 9L15.3332 10.6667Z" fill="url(#paint0_linear_71_2115)"/>
</g>
<defs>
<linearGradient id="paint0_linear_71_2115" x1="11.9998" y1="13.6667" x2="11.9998" y2="9" gradientUnits="userSpaceOnUse">
<stop stop-color="#4281F5"/>
<stop offset="0.93" stop-color="#F99375"/>
</linearGradient>
<clipPath id="clip0_71_2115">
<rect width="24" height="24" fill="white"/>
</clipPath>
</defs>
</svg>
