<svg width="200" height="200" viewBox="0 0 200 200" fill="none" xmlns="http://www.w3.org/2000/svg">
<g clip-path="url(#clip0_66_4771)">
<path d="M166.667 2.5H33.3333C16.3046 2.5 2.5 16.3046 2.5 33.3333V166.667C2.5 183.695 16.3046 197.5 33.3333 197.5H166.667C183.695 197.5 197.5 183.695 197.5 166.667V33.3333C197.5 16.3046 183.695 2.5 166.667 2.5Z" fill="#1C1B1C"/>
<path d="M166.667 5C182.289 5 195 17.7111 195 33.3333V166.667C195 182.289 182.289 195 166.667 195H33.3333C17.7111 195 5 182.289 5 166.667V33.3333C5 17.7111 17.7111 5 33.3333 5H166.667ZM166.667 0H33.3333C14.925 0 0 14.925 0 33.3333V166.667C0 185.075 14.925 200 33.3333 200H166.667C185.075 200 200 185.075 200 166.667V33.3333C200 14.925 185.075 0 166.667 0Z" fill="#397BFF"/>
<path d="M118.75 83.3333H97.9165L81.2498 116.667H60.4165L77.0832 83.3333L60.4165 50H102.083L118.75 83.3333Z" fill="#397BFF"/>
<path d="M118.75 83.3334L102.083 116.667H81.25L97.9167 83.3334H118.75Z" fill="url(#paint0_linear_66_4771)"/>
<path d="M122.917 116.667L139.583 150H97.9167L81.25 116.667H102.083L118.75 83.3334H139.583L122.917 116.667Z" fill="#FF996C"/>
</g>
<defs>
<linearGradient id="paint0_linear_66_4771" x1="113.85" y1="106.567" x2="86.6611" y2="93.675" gradientUnits="userSpaceOnUse">
<stop offset="0.2" stop-color="#397BFF"/>
<stop offset="0.8" stop-color="#FF986C"/>
</linearGradient>
<clipPath id="clip0_66_4771">
<rect width="200" height="200" fill="white"/>
</clipPath>
</defs>
</svg>
