<svg width="144" height="144" viewBox="0 0 144 144" fill="none" xmlns="http://www.w3.org/2000/svg">
<g clip-path="url(#clip0_174_163)">
<mask id="mask0_174_163" style="mask-type:luminance" maskUnits="userSpaceOnUse" x="0" y="0" width="144" height="144">
<path d="M144 0H0V144H144V0Z" fill="white"/>
</mask>
<g mask="url(#mask0_174_163)">
<path d="M120.001 1.80005H24.0008C11.7401 1.80005 1.80078 11.7393 1.80078 24V120C1.80078 132.261 11.7401 142.2 24.0008 142.2H120.001C132.262 142.2 142.201 132.261 142.201 120V24C142.201 11.7393 132.262 1.80005 120.001 1.80005Z" fill="#1C1B1C"/>
<path d="M120 3.6C131.248 3.6 140.4 12.752 140.4 24V120C140.4 131.248 131.248 140.4 120 140.4H24C12.752 140.4 3.6 131.248 3.6 120V24C3.6 12.752 12.752 3.6 24 3.6H120ZM120 0H24C10.746 0 0 10.746 0 24V120C0 133.254 10.746 144 24 144H120C133.254 144 144 133.254 144 120V24C144 10.746 133.254 0 120 0Z" fill="#8DFCF1"/>
<path d="M84 108C97.2548 108 108 97.2548 108 84C108 70.7452 97.2548 60 84 60H60V84H36V108L84 108Z" fill="#397BFF"/>
<path fill-rule="evenodd" clip-rule="evenodd" d="M36 60C36 46.7452 46.7452 36 60 36H108V60H72V84H60C46.7452 84 36 73.2548 36 60Z" fill="#8DFCF1"/>
<circle cx="72" cy="72" r="12" fill="url(#paint0_linear_174_163)"/>
</g>
</g>
<defs>
<linearGradient id="paint0_linear_174_163" x1="60" y1="60" x2="84" y2="84" gradientUnits="userSpaceOnUse">
<stop stop-color="#397BFF"/>
<stop offset="1" stop-color="#8DFCF1"/>
</linearGradient>
<clipPath id="clip0_174_163">
<rect width="144" height="144" fill="white"/>
</clipPath>
</defs>
</svg>
