<svg width="200" height="200" viewBox="0 0 200 200" fill="none" xmlns="http://www.w3.org/2000/svg">
<g clip-path="url(#clip0_174_387)">
<mask id="mask0_174_387" style="mask-type:luminance" maskUnits="userSpaceOnUse" x="0" y="0" width="200" height="200">
<path d="M200 0H0V200H200V0Z" fill="white"/>
</mask>
<g mask="url(#mask0_174_387)">
<path d="M166.668 2.50006H33.3344C16.3056 2.50006 2.50108 16.3046 2.50108 33.3334V166.667C2.50108 183.695 16.3056 197.5 33.3344 197.5H166.668C183.697 197.5 197.501 183.695 197.501 166.667V33.3334C197.501 16.3046 183.697 2.50006 166.668 2.50006Z" fill="#1C1B1C"/>
<path d="M166.667 5C182.289 5 195 17.7111 195 33.3333V166.667C195 182.289 182.289 195 166.667 195H33.3333C17.7111 195 5 182.289 5 166.667V33.3333C5 17.7111 17.7111 5 33.3333 5H166.667ZM166.667 0H33.3333C14.925 0 0 14.925 0 33.3333V166.667C0 185.075 14.925 200 33.3333 200H166.667C185.075 200 200 185.075 200 166.667V33.3333C200 14.925 185.075 0 166.667 0Z" fill="#FFF6B6"/>
<path d="M116.667 150C135.076 150 150 135.076 150 116.667C150 98.2572 135.076 83.3333 116.667 83.3333H83.3333V116.667H50V150L116.667 150Z" fill="#397BFF"/>
<path fill-rule="evenodd" clip-rule="evenodd" d="M50 83.3333C50 64.9238 64.9238 50 83.3333 50H150V83.3333H100V116.667H83.3333C64.9238 116.667 50 101.743 50 83.3333Z" fill="#FFF6B6"/>
<circle cx="100" cy="100" r="16.6667" fill="url(#paint0_linear_174_387)"/>
</g>
</g>
<defs>
<linearGradient id="paint0_linear_174_387" x1="83.3333" y1="83.3333" x2="116.667" y2="116.667" gradientUnits="userSpaceOnUse">
<stop stop-color="#397BFF"/>
<stop offset="1" stop-color="#FFF6B6"/>
</linearGradient>
<clipPath id="clip0_174_387">
<rect width="200" height="200" fill="white"/>
</clipPath>
</defs>
</svg>
