<svg width="72" height="72" viewBox="0 0 72 72" fill="none" xmlns="http://www.w3.org/2000/svg">
<g clip-path="url(#clip0_66_5332)">
<path d="M60.0004 0.900024H12.0004C5.87003 0.900024 0.900391 5.86966 0.900391 12V60C0.900391 66.1304 5.87003 71.1 12.0004 71.1H60.0004C66.1308 71.1 71.1004 66.1304 71.1004 60V12C71.1004 5.86966 66.1308 0.900024 60.0004 0.900024Z" fill="#1C1B1C"/>
<path d="M60 1.8C65.624 1.8 70.2 6.376 70.2 12V60C70.2 65.624 65.624 70.2 60 70.2H12C6.376 70.2 1.8 65.624 1.8 60V12C1.8 6.376 6.376 1.8 12 1.8H60ZM60 0H12C5.373 0 0 5.373 0 12V60C0 66.627 5.373 72 12 72H60C66.627 72 72 66.627 72 60V12C72 5.373 66.627 0 60 0Z" fill="#8DFCF1"/>
<path d="M40 22.5092L32.6667 15.0092L18 15V45H40V22.5092Z" fill="#FF996C"/>
<path d="M54 34.5092L46.6667 27.0092L32 27V57H54V34.5092Z" fill="#8DFCF1"/>
<path d="M40 27.0054L32 27V45H40V27.0054Z" fill="url(#paint0_linear_66_5332)"/>
</g>
<defs>
<linearGradient id="paint0_linear_66_5332" x1="32" y1="36" x2="40" y2="36" gradientUnits="userSpaceOnUse">
<stop stop-color="#8DFCF1"/>
<stop offset="1" stop-color="#FF996C"/>
</linearGradient>
<clipPath id="clip0_66_5332">
<rect width="72" height="72" fill="white"/>
</clipPath>
</defs>
</svg>
