<svg width="200" height="200" viewBox="0 0 200 200" fill="none" xmlns="http://www.w3.org/2000/svg">
<g clip-path="url(#clip0_66_4995)">
<path d="M166.668 2.50012H33.3343C16.3055 2.50012 2.50098 16.3047 2.50098 33.3335V166.667C2.50098 183.696 16.3055 197.5 33.3343 197.5H166.668C183.696 197.5 197.501 183.696 197.501 166.667V33.3335C197.501 16.3047 183.696 2.50012 166.668 2.50012Z" fill="#1C1B1C"/>
<path d="M166.667 5C182.289 5 195 17.7111 195 33.3333V166.667C195 182.289 182.289 195 166.667 195H33.3333C17.7111 195 5 182.289 5 166.667V33.3333C5 17.7111 17.7111 5 33.3333 5H166.667ZM166.667 0H33.3333C14.925 0 0 14.925 0 33.3333V166.667C0 185.075 14.925 200 33.3333 200H166.667C185.075 200 200 185.075 200 166.667V33.3333C200 14.925 185.075 0 166.667 0Z" fill="#8DFCF1"/>
<path d="M111.111 62.5254L90.7407 41.6921L50 41.6666V125H111.111V62.5254Z" fill="#FF996C"/>
<path d="M150 95.8588L129.629 75.0255L88.8887 75V158.333H150V95.8588Z" fill="#8DFCF1"/>
<path d="M111.111 75.0149L88.8887 75V125H111.111V75.0149Z" fill="url(#paint0_linear_66_4995)"/>
</g>
<defs>
<linearGradient id="paint0_linear_66_4995" x1="88.8887" y1="100" x2="111.111" y2="100" gradientUnits="userSpaceOnUse">
<stop stop-color="#8DFCF1"/>
<stop offset="1" stop-color="#FF996C"/>
</linearGradient>
<clipPath id="clip0_66_4995">
<rect width="200" height="200" fill="white"/>
</clipPath>
</defs>
</svg>
