<svg width="24" height="24" viewBox="0 0 24 24" fill="none" xmlns="http://www.w3.org/2000/svg">
<g clip-path="url(#clip0_174_8)">
<mask id="mask0_174_8" style="mask-type:luminance" maskUnits="userSpaceOnUse" x="0" y="0" width="24" height="24">
<path d="M24 0H0V24H24V0Z" fill="white"/>
</mask>
<g mask="url(#mask0_174_8)">
<path d="M20.0001 0.300011H4.00014C1.95669 0.300011 0.30014 1.95656 0.30014 4.00001V20C0.30014 22.0435 1.95669 23.7 4.00014 23.7H20.0001C22.0436 23.7 23.7001 22.0435 23.7001 20V4.00001C23.7001 1.95656 22.0436 0.300011 20.0001 0.300011Z" fill="#1C1B1C"/>
<path d="M20 0.6C21.8747 0.6 23.4 2.12533 23.4 4V20C23.4 21.8747 21.8747 23.4 20 23.4H4C2.12533 23.4 0.6 21.8747 0.6 20V4C0.6 2.12533 2.12533 0.6 4 0.6H20ZM20 0H4C1.791 0 0 1.791 0 4V20C0 22.209 1.791 24 4 24H20C22.209 24 24 22.209 24 20V4C24 1.791 22.209 0 20 0Z" fill="#FF996C"/>
<path d="M14 6C16.2091 6 18 7.79086 18 10C18 12.2091 16.2091 14 14 14H10V10V6L14 6Z" fill="#FFF6B6"/>
<path d="M10 18C7.79086 18 6 16.2091 6 14C6 11.7909 7.79086 10 10 10H14V14V18L10 18Z" fill="#FF996C"/>
<path fill-rule="evenodd" clip-rule="evenodd" d="M10 10V14H14V10L10 10Z" fill="url(#paint0_linear_174_8)"/>
<rect x="15.3333" y="15.3333" width="2.66667" height="2.66667" fill="#FF996C"/>
<rect x="6" y="6" width="2.66667" height="2.66667" fill="#FFF6B6"/>
</g>
</g>
<defs>
<linearGradient id="paint0_linear_174_8" x1="14" y1="10" x2="10" y2="14" gradientUnits="userSpaceOnUse">
<stop stop-color="#FF986C"/>
<stop offset="1" stop-color="#FFF6B6"/>
</linearGradient>
<clipPath id="clip0_174_8">
<rect width="24" height="24" fill="white"/>
</clipPath>
</defs>
</svg>
