<svg width="200" height="200" viewBox="0 0 200 200" fill="none" xmlns="http://www.w3.org/2000/svg">
<g clip-path="url(#clip0_66_4899)">
<path d="M166.667 2.5H33.3333C16.3046 2.5 2.5 16.3046 2.5 33.3333V166.667C2.5 183.695 16.3046 197.5 33.3333 197.5H166.667C183.695 197.5 197.5 183.695 197.5 166.667V33.3333C197.5 16.3046 183.695 2.5 166.667 2.5Z" fill="#1C1B1C"/>
<path d="M166.667 5C182.289 5 195 17.7111 195 33.3333V166.667C195 182.289 182.289 195 166.667 195H33.3333C17.7111 195 5 182.289 5 166.667V33.3333C5 17.7111 17.7111 5 33.3333 5H166.667ZM166.667 0H33.3333C14.925 0 0 14.925 0 33.3333V166.667C0 185.075 14.925 200 33.3333 200H166.667C185.075 200 200 185.075 200 166.667V33.3333C200 14.925 185.075 0 166.667 0Z" fill="#FF996C"/>
<path d="M72.2222 50H50V72.2222H72.2222V50Z" fill="#FFF6B6"/>
<path d="M150 50H83.3335V116.667H150V50Z" fill="#FFF6B6"/>
<path d="M116.667 83.3334H50V150H116.667V83.3334Z" fill="#FF996C"/>
<path d="M116.667 116.667V83.3334H83.3335V116.667H116.667Z" fill="url(#paint0_linear_66_4899)"/>
<path d="M150 127.778H127.778V150H150V127.778Z" fill="#FF996C"/>
</g>
<defs>
<linearGradient id="paint0_linear_66_4899" x1="83.3335" y1="116.667" x2="116.667" y2="83.3334" gradientUnits="userSpaceOnUse">
<stop stop-color="#FFF1B9"/>
<stop offset="1" stop-color="#F99675"/>
</linearGradient>
<clipPath id="clip0_66_4899">
<rect width="200" height="200" fill="white"/>
</clipPath>
</defs>
</svg>
