<svg width="200" height="200" viewBox="0 0 200 200" fill="none" xmlns="http://www.w3.org/2000/svg">
<g clip-path="url(#clip0_174_113)">
<mask id="mask0_174_113" style="mask-type:luminance" maskUnits="userSpaceOnUse" x="0" y="0" width="200" height="200">
<path d="M200 0H0V200H200V0Z" fill="white"/>
</mask>
<g mask="url(#mask0_174_113)">
<path d="M166.668 2.50006H33.3344C16.3056 2.50006 2.50108 16.3046 2.50108 33.3334V166.667C2.50108 183.695 16.3056 197.5 33.3344 197.5H166.668C183.697 197.5 197.501 183.695 197.501 166.667V33.3334C197.501 16.3046 183.697 2.50006 166.668 2.50006Z" fill="#1C1B1C"/>
<path d="M166.667 5C182.289 5 195 17.7111 195 33.3333V166.667C195 182.289 182.289 195 166.667 195H33.3333C17.7111 195 5 182.289 5 166.667V33.3333C5 17.7111 17.7111 5 33.3333 5H166.667ZM166.667 0H33.3333C14.925 0 0 14.925 0 33.3333V166.667C0 185.075 14.925 200 33.3333 200H166.667C185.075 200 200 185.075 200 166.667V33.3333C200 14.925 185.075 0 166.667 0Z" fill="#FF996C"/>
<path d="M53.1955 141.248C61.3536 149.406 71.7476 154.962 83.0632 157.213C94.3787 159.463 106.108 158.308 116.767 153.893C127.426 149.478 136.536 142.001 142.946 132.408C149.356 122.815 152.777 111.537 152.777 100C152.777 88.4628 149.356 77.1846 142.946 67.5918C136.536 57.9989 127.426 50.5222 116.767 46.1071C106.108 41.6919 94.3787 40.5368 83.0632 42.7876C71.7476 45.0384 61.3536 50.5941 53.1955 58.7521L94.4434 100L53.1955 141.248Z" fill="#397BFF"/>
<path d="M64.9817 129.463C61.1126 125.594 58.0434 121 55.9495 115.945C53.8555 110.89 52.7778 105.472 52.7778 100C52.7778 94.5284 53.8555 89.1102 55.9495 84.055C58.0434 78.9997 61.1126 74.4064 64.9817 70.5373L94.4444 100L64.9817 129.463Z" fill="#FF996C"/>
<path d="M111.339 61.9121C116 63.9794 120.266 66.8952 123.908 70.5372L94.4449 100L64.9821 70.5372C69.6028 65.9166 75.2276 62.4647 81.3886 60.4318C82.0782 60.2042 82.7729 59.995 83.4717 59.8042C84.4095 59.5482 85.3582 59.3245 86.3161 59.134C91.7088 58.0613 97.2328 58.0716 102.574 59.134C102.826 59.1842 103.078 59.2368 103.329 59.2916C103.832 59.4013 104.332 59.5201 104.829 59.648C106.729 60.1371 108.587 60.7584 110.39 61.505C110.708 61.6368 111.025 61.7725 111.339 61.9121Z" fill="url(#paint0_linear_174_113)"/>
<path d="M65.3293 129.806C65.213 129.692 65.0972 129.578 64.9821 129.463L94.4449 100L123.908 129.463C120.02 133.351 115.421 136.411 110.39 138.495C110.237 138.558 110.083 138.621 109.93 138.683C107.561 139.631 105.099 140.364 102.574 140.866C97.181 141.939 91.6569 141.928 86.3161 140.866C86.1536 140.834 85.9912 140.8 85.829 140.766C83.3329 140.239 80.879 139.481 78.4997 138.495C73.5718 136.454 69.1073 133.496 65.3293 129.806Z" fill="url(#paint1_linear_174_113)"/>
</g>
</g>
<defs>
<linearGradient id="paint0_linear_174_113" x1="118.056" y1="100" x2="53.0131" y2="96.088" gradientUnits="userSpaceOnUse">
<stop stop-color="#FF996C"/>
<stop offset="1" stop-color="#397BFF"/>
</linearGradient>
<linearGradient id="paint1_linear_174_113" x1="118.056" y1="100" x2="53.0131" y2="96.088" gradientUnits="userSpaceOnUse">
<stop stop-color="#FF996C"/>
<stop offset="1" stop-color="#397BFF"/>
</linearGradient>
<clipPath id="clip0_174_113">
<rect width="200" height="200" fill="white"/>
</clipPath>
</defs>
</svg>
