<svg width="72" height="72" viewBox="0 0 72 72" fill="none" xmlns="http://www.w3.org/2000/svg">
<g clip-path="url(#clip0_174_91)">
<mask id="mask0_174_91" style="mask-type:luminance" maskUnits="userSpaceOnUse" x="0" y="0" width="72" height="72">
<path d="M72 0H0V72H72V0Z" fill="white"/>
</mask>
<g mask="url(#mask0_174_91)">
<path d="M60.0004 0.900024H12.0004C5.87003 0.900024 0.900391 5.86966 0.900391 12V60C0.900391 66.1304 5.87003 71.1 12.0004 71.1H60.0004C66.1308 71.1 71.1004 66.1304 71.1004 60V12C71.1004 5.86966 66.1308 0.900024 60.0004 0.900024Z" fill="#1C1B1C"/>
<path d="M60 1.8C65.624 1.8 70.2 6.376 70.2 12V60C70.2 65.624 65.624 70.2 60 70.2H12C6.376 70.2 1.8 65.624 1.8 60V12C1.8 6.376 6.376 1.8 12 1.8H60ZM60 0H12C5.373 0 0 5.373 0 12V60C0 66.627 5.373 72 12 72H60C66.627 72 72 66.627 72 60V12C72 5.373 66.627 0 60 0Z" fill="#FF996C"/>
<path d="M19.1504 50.8493C22.0873 53.7862 25.8291 55.7862 29.9027 56.5965C33.9763 57.4068 38.1987 56.9909 42.036 55.4015C45.8732 53.812 49.153 51.1204 51.4605 47.667C53.768 44.2136 54.9996 40.1534 54.9996 36C54.9996 31.8466 53.768 27.7865 51.4605 24.333C49.153 20.8796 45.8732 18.188 42.036 16.5985C38.1987 15.0091 33.9763 14.5932 29.9027 15.4035C25.8291 16.2138 22.0873 18.2139 19.1504 21.1508L33.9996 36L19.1504 50.8493Z" fill="#397BFF"/>
<path d="M23.3934 46.6066C22.0005 45.2138 20.8956 43.5602 20.1418 41.7403C19.388 39.9204 19 37.9699 19 36C19 34.0302 19.388 32.0797 20.1418 30.2598C20.8956 28.4399 22.0005 26.7863 23.3934 25.3934L34 36L23.3934 46.6066Z" fill="#FF996C"/>
<path d="M40.0821 22.2883C41.7599 23.0326 43.2956 24.0823 44.6068 25.3934L34.0002 36L23.3936 25.3934C25.057 23.73 27.0819 22.4873 29.2999 21.7554C29.5482 21.6735 29.7982 21.5982 30.0498 21.5295C30.3874 21.4373 30.729 21.3568 31.0738 21.2882C33.0152 20.9021 35.0038 20.9058 36.9265 21.2882C37.0174 21.3063 37.1081 21.3252 37.1986 21.345C37.3795 21.3845 37.5594 21.4272 37.7383 21.4733C38.4226 21.6493 39.0915 21.873 39.7404 22.1418C39.855 22.1893 39.9689 22.2381 40.0821 22.2883Z" fill="url(#paint0_linear_174_91)"/>
<path d="M23.5186 46.7302C23.4767 46.6892 23.435 46.648 23.3936 46.6066L34.0002 36L44.6068 46.6066C43.2071 48.0062 41.5515 49.108 39.7404 49.8582C39.6853 49.881 39.63 49.9035 39.5746 49.9257C38.7219 50.2671 37.8358 50.5309 36.9265 50.7118C34.9852 51.0979 32.9965 51.0942 31.0738 50.7118C31.0153 50.7001 30.9568 50.6882 30.8985 50.6758C29.9998 50.4859 29.1164 50.213 28.2599 49.8582C26.4859 49.1234 24.8786 48.0587 23.5186 46.7302Z" fill="url(#paint1_linear_174_91)"/>
</g>
</g>
<defs>
<linearGradient id="paint0_linear_174_91" x1="42.5" y1="36" x2="19.0847" y2="34.5917" gradientUnits="userSpaceOnUse">
<stop stop-color="#FF996C"/>
<stop offset="1" stop-color="#397BFF"/>
</linearGradient>
<linearGradient id="paint1_linear_174_91" x1="42.5" y1="36" x2="19.0847" y2="34.5917" gradientUnits="userSpaceOnUse">
<stop stop-color="#FF996C"/>
<stop offset="1" stop-color="#397BFF"/>
</linearGradient>
<clipPath id="clip0_174_91">
<rect width="72" height="72" fill="white"/>
</clipPath>
</defs>
</svg>
