<svg width="144" height="144" viewBox="0 0 144 144" fill="none" xmlns="http://www.w3.org/2000/svg">
<g clip-path="url(#clip0_174_102)">
<mask id="mask0_174_102" style="mask-type:luminance" maskUnits="userSpaceOnUse" x="0" y="0" width="144" height="144">
<path d="M144 0H0V144H144V0Z" fill="white"/>
</mask>
<g mask="url(#mask0_174_102)">
<path d="M120.001 1.80005H24.0008C11.7401 1.80005 1.80078 11.7393 1.80078 24V120C1.80078 132.261 11.7401 142.2 24.0008 142.2H120.001C132.262 142.2 142.201 132.261 142.201 120V24C142.201 11.7393 132.262 1.80005 120.001 1.80005Z" fill="#1C1B1C"/>
<path d="M120 3.6C131.248 3.6 140.4 12.752 140.4 24V120C140.4 131.248 131.248 140.4 120 140.4H24C12.752 140.4 3.6 131.248 3.6 120V24C3.6 12.752 12.752 3.6 24 3.6H120ZM120 0H24C10.746 0 0 10.746 0 24V120C0 133.254 10.746 144 24 144H120C133.254 144 144 133.254 144 120V24C144 10.746 133.254 0 120 0Z" fill="#FF996C"/>
<path d="M38.3008 101.699C44.1746 107.572 51.6583 111.572 59.8055 113.193C67.9527 114.814 76.3975 113.982 84.072 110.803C91.7465 107.624 98.306 102.241 102.921 95.334C107.536 88.4271 109.999 80.3068 109.999 72C109.999 63.6932 107.536 55.5729 102.921 48.6661C98.306 41.7592 91.7465 36.376 84.072 33.1971C76.3975 30.0182 67.9527 29.1865 59.8055 30.807C51.6583 32.4276 44.1746 36.4277 38.3008 42.3015L67.9993 72L38.3008 101.699Z" fill="#397BFF"/>
<path d="M46.7868 93.2133C44.001 90.4275 41.7913 87.1203 40.2836 83.4806C38.776 79.8408 38 75.9397 38 72.0001C38 68.0604 38.776 64.1593 40.2836 60.5196C41.7913 56.8798 44.001 53.5726 46.7868 50.7869L68 72.0001L46.7868 93.2133Z" fill="#FF996C"/>
<path d="M80.1643 44.5767C83.5199 46.0651 86.5913 48.1646 89.2135 50.7868L68.0003 72L46.7871 50.7868C50.114 47.4599 54.1639 44.9746 58.5998 43.5109C59.0963 43.347 59.5965 43.1964 60.0996 43.059C60.7749 42.8747 61.4579 42.7136 62.1476 42.5764C66.0303 41.8041 70.0076 41.8116 73.853 42.5764C74.0349 42.6126 74.2163 42.6505 74.3972 42.6899C74.759 42.7689 75.1189 42.8545 75.4767 42.9465C76.8452 43.2987 78.183 43.746 79.4808 44.2836C79.7099 44.3785 79.9377 44.4762 80.1643 44.5767Z" fill="url(#paint0_linear_174_102)"/>
<path d="M47.0371 93.4603C46.9533 93.3785 46.87 93.2961 46.7871 93.2132L68.0003 72L89.2135 93.2132C86.4143 96.0125 83.1031 98.216 79.4808 99.7164C79.3706 99.7621 79.2601 99.8071 79.1493 99.8514C77.4439 100.534 75.6716 101.062 73.853 101.424C69.9703 102.196 65.993 102.188 62.1476 101.424C62.0306 101.4 61.9137 101.376 61.7969 101.352C59.9997 100.972 58.2329 100.426 56.5198 99.7164C52.9717 98.2467 49.7573 96.1174 47.0371 93.4603Z" fill="url(#paint1_linear_174_102)"/>
</g>
</g>
<defs>
<linearGradient id="paint0_linear_174_102" x1="85" y1="72" x2="38.1694" y2="69.1833" gradientUnits="userSpaceOnUse">
<stop stop-color="#FF996C"/>
<stop offset="1" stop-color="#397BFF"/>
</linearGradient>
<linearGradient id="paint1_linear_174_102" x1="85" y1="72" x2="38.1694" y2="69.1833" gradientUnits="userSpaceOnUse">
<stop stop-color="#FF996C"/>
<stop offset="1" stop-color="#397BFF"/>
</linearGradient>
<clipPath id="clip0_174_102">
<rect width="144" height="144" fill="white"/>
</clipPath>
</defs>
</svg>
