<svg width="48" height="48" viewBox="0 0 48 48" fill="none" xmlns="http://www.w3.org/2000/svg">
<g clip-path="url(#clip0_174_80)">
<mask id="mask0_174_80" style="mask-type:luminance" maskUnits="userSpaceOnUse" x="0" y="0" width="48" height="48">
<path d="M48 0H0V48H48V0Z" fill="white"/>
</mask>
<g mask="url(#mask0_174_80)">
<path d="M40.0003 0.600021H8.00025C3.91334 0.600021 0.60025 3.91311 0.60025 8.00002V40C0.60025 44.0869 3.91334 47.4 8.00025 47.4H40.0003C44.0872 47.4 47.4002 44.0869 47.4002 40V8.00002C47.4002 3.91311 44.0872 0.600021 40.0003 0.600021Z" fill="#1C1B1C"/>
<path d="M40 1.2C43.7493 1.2 46.8 4.25067 46.8 8V40C46.8 43.7493 43.7493 46.8 40 46.8H8C4.25067 46.8 1.2 43.7493 1.2 40V8C1.2 4.25067 4.25067 1.2 8 1.2H40ZM40 0H8C3.582 0 0 3.582 0 8V40C0 44.418 3.582 48 8 48H40C44.418 48 48 44.418 48 40V8C48 3.582 44.418 0 40 0Z" fill="#FF996C"/>
<path d="M12.7669 33.8995C14.7249 35.8574 17.2194 37.1908 19.9352 37.731C22.6509 38.2712 25.4658 37.9939 28.024 36.9343C30.5822 35.8747 32.7687 34.0803 34.307 31.778C35.8453 29.4757 36.6664 26.7689 36.6664 24C36.6664 21.2311 35.8453 18.5243 34.307 16.222C32.7687 13.9197 30.5822 12.1253 28.024 11.0657C25.4658 10.0061 22.6509 9.72882 19.9352 10.269C17.2194 10.8092 14.7249 12.1426 12.7669 14.1005L22.6664 24L12.7669 33.8995Z" fill="#397BFF"/>
<path d="M15.5956 31.0711C14.667 30.1425 13.9304 29.0401 13.4279 27.8269C12.9253 26.6136 12.6667 25.3132 12.6667 24C12.6667 22.6868 12.9253 21.3864 13.4279 20.1732C13.9304 18.9599 14.667 17.8575 15.5956 16.929L22.6667 24L15.5956 31.0711Z" fill="#FF996C"/>
<path d="M26.7214 14.8589C27.84 15.355 28.8638 16.0549 29.7378 16.9289L22.6668 24L15.5957 16.9289C16.7047 15.82 18.0546 14.9915 19.5333 14.5036C19.6988 14.449 19.8655 14.3988 20.0332 14.353C20.2583 14.2916 20.486 14.2379 20.7159 14.1921C22.0101 13.9347 23.3359 13.9372 24.6177 14.1921C24.6783 14.2042 24.7388 14.2168 24.7991 14.23C24.9197 14.2563 25.0396 14.2848 25.1589 14.3155C25.6151 14.4329 26.061 14.582 26.4936 14.7612C26.57 14.7928 26.6459 14.8254 26.7214 14.8589Z" fill="url(#paint0_linear_174_80)"/>
<path d="M15.679 31.1534C15.6511 31.1262 15.6233 31.0987 15.5957 31.0711L22.6668 24L29.7378 31.0711C28.8048 32.0042 27.701 32.7387 26.4936 33.2388C26.4569 33.254 26.42 33.269 26.3831 33.2838C25.8146 33.5114 25.2239 33.6873 24.6177 33.8079C23.3234 34.0653 21.9977 34.0628 20.7159 33.8079C20.6769 33.8001 20.6379 33.7921 20.599 33.7839C19.9999 33.6573 19.411 33.4753 18.8399 33.2388C17.6572 32.7489 16.5858 32.0391 15.679 31.1534Z" fill="url(#paint1_linear_174_80)"/>
</g>
</g>
<defs>
<linearGradient id="paint0_linear_174_80" x1="28.3333" y1="24" x2="12.7231" y2="23.0611" gradientUnits="userSpaceOnUse">
<stop stop-color="#FF996C"/>
<stop offset="1" stop-color="#397BFF"/>
</linearGradient>
<linearGradient id="paint1_linear_174_80" x1="28.3333" y1="24" x2="12.7231" y2="23.0611" gradientUnits="userSpaceOnUse">
<stop stop-color="#FF996C"/>
<stop offset="1" stop-color="#397BFF"/>
</linearGradient>
<clipPath id="clip0_174_80">
<rect width="48" height="48" fill="white"/>
</clipPath>
</defs>
</svg>
