<svg width="24" height="24" viewBox="0 0 24 24" fill="none" xmlns="http://www.w3.org/2000/svg">
<g clip-path="url(#clip0_174_69)">
<mask id="mask0_174_69" style="mask-type:luminance" maskUnits="userSpaceOnUse" x="0" y="0" width="24" height="24">
<path d="M24 0H0V24H24V0Z" fill="white"/>
</mask>
<g mask="url(#mask0_174_69)">
<path d="M20.0001 0.300003H4.00014C1.95669 0.300003 0.30014 1.95655 0.30014 4V20C0.30014 22.0435 1.95669 23.7 4.00014 23.7H20.0001C22.0436 23.7 23.7001 22.0435 23.7001 20V4C23.7001 1.95655 22.0436 0.300003 20.0001 0.300003Z" fill="#1C1B1C"/>
<path d="M20 0.6C21.8747 0.6 23.4 2.12533 23.4 4V20C23.4 21.8747 21.8747 23.4 20 23.4H4C2.12533 23.4 0.6 21.8747 0.6 20V4C0.6 2.12533 2.12533 0.6 4 0.6H20ZM20 0H4C1.791 0 0 1.791 0 4V20C0 22.209 1.791 24 4 24H20C22.209 24 24 22.209 24 20V4C24 1.791 22.209 0 20 0Z" fill="#FF996C"/>
<path d="M6.38345 16.9498C7.36242 17.9287 8.6097 18.5954 9.96757 18.8655C11.3254 19.1356 12.7329 18.997 14.012 18.4672C15.2911 17.9373 16.3843 17.0401 17.1535 15.889C17.9227 14.7379 18.3332 13.3845 18.3332 12C18.3332 10.6155 17.9227 9.26216 17.1535 8.11101C16.3843 6.95987 15.2911 6.06266 14.012 5.53285C12.7329 5.00303 11.3254 4.86441 9.96757 5.13451C8.6097 5.4046 7.36242 6.07129 6.38345 7.05026L11.3332 12L6.38345 16.9498Z" fill="#397BFF"/>
<path d="M7.79781 15.5355C7.33352 15.0713 6.96522 14.5201 6.71395 13.9134C6.46267 13.3068 6.33334 12.6566 6.33334 12C6.33334 11.3434 6.46267 10.6932 6.71395 10.0866C6.96522 9.47997 7.33352 8.92877 7.79781 8.46448L11.3333 12L7.79781 15.5355Z" fill="#FF996C"/>
<path d="M13.3607 7.42945C13.92 7.67752 14.4319 8.02743 14.8689 8.46447L11.3334 12L7.79785 8.46447C8.35233 7.90999 9.02731 7.49576 9.76663 7.25181C9.84939 7.2245 9.93274 7.1994 10.0166 7.1765C10.1291 7.14578 10.243 7.11894 10.3579 7.09607C11.0051 6.96736 11.6679 6.9686 12.3088 7.09607C12.3391 7.1021 12.3694 7.10841 12.3995 7.11499C12.4598 7.12815 12.5198 7.14241 12.5794 7.15775C12.8075 7.21645 13.0305 7.291 13.2468 7.3806C13.285 7.39642 13.323 7.4127 13.3607 7.42945Z" fill="url(#paint0_linear_174_69)"/>
<path d="M7.83952 15.5767C7.82555 15.5631 7.81167 15.5493 7.79785 15.5355L11.3334 12L14.8689 15.5355C14.4024 16.0021 13.8505 16.3693 13.2468 16.6194C13.2284 16.627 13.21 16.6345 13.1915 16.6419C12.9073 16.7557 12.6119 16.8436 12.3088 16.9039C11.6617 17.0326 10.9988 17.0314 10.3579 16.9039C10.3384 16.9 10.3189 16.8961 10.2995 16.8919C9.99994 16.8286 9.70548 16.7377 9.41997 16.6194C8.82862 16.3745 8.29288 16.0196 7.83952 15.5767Z" fill="url(#paint1_linear_174_69)"/>
</g>
</g>
<defs>
<linearGradient id="paint0_linear_174_69" x1="14.1667" y1="12" x2="6.36157" y2="11.5306" gradientUnits="userSpaceOnUse">
<stop stop-color="#FF996C"/>
<stop offset="1" stop-color="#397BFF"/>
</linearGradient>
<linearGradient id="paint1_linear_174_69" x1="14.1667" y1="12" x2="6.36157" y2="11.5306" gradientUnits="userSpaceOnUse">
<stop stop-color="#FF996C"/>
<stop offset="1" stop-color="#397BFF"/>
</linearGradient>
<clipPath id="clip0_174_69">
<rect width="24" height="24" fill="white"/>
</clipPath>
</defs>
</svg>
