<svg width="48" height="48" viewBox="0 0 48 48" fill="none" xmlns="http://www.w3.org/2000/svg">
<g clip-path="url(#clip0_66_5623)">
<path d="M40.0001 0.600098H8.0001C3.91319 0.600098 0.600098 3.91319 0.600098 8.0001V40.0001C0.600098 44.087 3.91319 47.4001 8.0001 47.4001H40.0001C44.087 47.4001 47.4001 44.087 47.4001 40.0001V8.0001C47.4001 3.91319 44.087 0.600098 40.0001 0.600098Z" fill="#1C1B1C"/>
<path d="M40 1.2C43.7493 1.2 46.8 4.25067 46.8 8V40C46.8 43.7493 43.7493 46.8 40 46.8H8C4.25067 46.8 1.2 43.7493 1.2 40V8C1.2 4.25067 4.25067 1.2 8 1.2H40ZM40 0H8C3.582 0 0 3.582 0 8V40C0 44.418 3.582 48 8 48H40C44.418 48 48 44.418 48 40V8C48 3.582 44.418 0 40 0Z" fill="#A97DFF"/>
<path d="M26.6668 28.6667H19.3335V36.0001H26.6668V28.6667Z" fill="#A97DFF"/>
<path d="M35.9998 28.6667H28.6665V36.0001H35.9998V28.6667Z" fill="#397BFF"/>
<path d="M35.9998 19.3333H28.6665V26.6666H35.9998V19.3333Z" fill="#A97DFF"/>
<path d="M26.6667 12H12V26.6667H26.6667V12Z" fill="url(#paint0_linear_66_5623)"/>
</g>
<defs>
<linearGradient id="paint0_linear_66_5623" x1="10.7167" y1="10.7167" x2="27.9853" y2="27.9853" gradientUnits="userSpaceOnUse">
<stop offset="0.2" stop-color="#397BFF"/>
<stop offset="0.7" stop-color="#A87DFF"/>
</linearGradient>
<clipPath id="clip0_66_5623">
<rect width="48" height="48" fill="white"/>
</clipPath>
</defs>
</svg>
