<svg width="200" height="200" viewBox="0 0 200 200" fill="none" xmlns="http://www.w3.org/2000/svg">
<g clip-path="url(#clip0_66_4936)">
<path d="M166.667 2.5H33.3333C16.3046 2.5 2.5 16.3046 2.5 33.3333V166.667C2.5 183.695 16.3046 197.5 33.3333 197.5H166.667C183.695 197.5 197.5 183.695 197.5 166.667V33.3333C197.5 16.3046 183.695 2.5 166.667 2.5Z" fill="#1C1B1C"/>
<path d="M166.667 5C182.289 5 195 17.7111 195 33.3333V166.667C195 182.289 182.289 195 166.667 195H33.3333C17.7111 195 5 182.289 5 166.667V33.3333C5 17.7111 17.7111 5 33.3333 5H166.667ZM166.667 0H33.3333C14.925 0 0 14.925 0 33.3333V166.667C0 185.075 14.925 200 33.3333 200H166.667C185.075 200 200 185.075 200 166.667V33.3333C200 14.925 185.075 0 166.667 0Z" fill="#A97DFF"/>
<path d="M111.111 119.444H80.5557V150H111.111V119.444Z" fill="#A97DFF"/>
<path d="M150 119.444H119.444V150H150V119.444Z" fill="#397BFF"/>
<path d="M150 80.5557H119.444V111.111H150V80.5557Z" fill="#A97DFF"/>
<path d="M111.111 50H50V111.111H111.111V50Z" fill="url(#paint0_linear_66_4936)"/>
</g>
<defs>
<linearGradient id="paint0_linear_66_4936" x1="44.6528" y1="44.6528" x2="116.606" y2="116.606" gradientUnits="userSpaceOnUse">
<stop offset="0.2" stop-color="#397BFF"/>
<stop offset="0.7" stop-color="#A87DFF"/>
</linearGradient>
<clipPath id="clip0_66_4936">
<rect width="200" height="200" fill="white"/>
</clipPath>
</defs>
</svg>
