<svg width="72" height="72" viewBox="0 0 72 72" fill="none" xmlns="http://www.w3.org/2000/svg">
<g clip-path="url(#clip0_66_5348)">
<path d="M60.0004 0.899902H12.0004C5.87003 0.899902 0.900391 5.86954 0.900391 11.9999V59.9999C0.900391 66.1303 5.87003 71.0999 12.0004 71.0999H60.0004C66.1308 71.0999 71.1004 66.1303 71.1004 59.9999V11.9999C71.1004 5.86954 66.1308 0.899902 60.0004 0.899902Z" fill="#1C1B1C"/>
<path d="M60 1.8C65.624 1.8 70.2 6.376 70.2 12V60C70.2 65.624 65.624 70.2 60 70.2H12C6.376 70.2 1.8 65.624 1.8 60V12C1.8 6.376 6.376 1.8 12 1.8H60ZM60 0H12C5.373 0 0 5.373 0 12V60C0 66.627 5.373 72 12 72H60C66.627 72 72 66.627 72 60V12C72 5.373 66.627 0 60 0Z" fill="#397BFF"/>
<rect x="18" y="19" width="26" height="9" fill="#397BFF"/>
<rect x="18" y="31" width="36" height="9" fill="url(#paint0_linear_66_5348)"/>
<circle cx="49" cy="48" r="5" fill="#FF996C"/>
</g>
<defs>
<linearGradient id="paint0_linear_66_5348" x1="51.4286" y1="32.8" x2="20.0532" y2="38.1213" gradientUnits="userSpaceOnUse">
<stop stop-color="#3E7FFA"/>
<stop offset="1" stop-color="#FC9471"/>
</linearGradient>
<clipPath id="clip0_66_5348">
<rect width="72" height="72" fill="white"/>
</clipPath>
</defs>
</svg>
