<svg width="144" height="144" viewBox="0 0 144 144" fill="none" xmlns="http://www.w3.org/2000/svg">
<g clip-path="url(#clip0_66_4674)">
<path d="M120.001 1.80005H24.0008C11.7401 1.80005 1.80078 11.7393 1.80078 24V120C1.80078 132.261 11.7401 142.2 24.0008 142.2H120.001C132.262 142.2 142.201 132.261 142.201 120V24C142.201 11.7393 132.262 1.80005 120.001 1.80005Z" fill="#1C1B1C"/>
<path d="M120 3.6C131.248 3.6 140.4 12.752 140.4 24V120C140.4 131.248 131.248 140.4 120 140.4H24C12.752 140.4 3.6 131.248 3.6 120V24C3.6 12.752 12.752 3.6 24 3.6H120ZM120 0H24C10.746 0 0 10.746 0 24V120C0 133.254 10.746 144 24 144H120C133.254 144 144 133.254 144 120V24C144 10.746 133.254 0 120 0Z" fill="#397BFF"/>
<rect x="36" y="38" width="52" height="18" fill="#397BFF"/>
<rect x="36" y="62" width="72" height="18" fill="url(#paint0_linear_66_4674)"/>
<circle cx="98" cy="96" r="10" fill="#FF996C"/>
</g>
<defs>
<linearGradient id="paint0_linear_66_4674" x1="102.857" y1="65.6" x2="40.1064" y2="76.2427" gradientUnits="userSpaceOnUse">
<stop stop-color="#3E7FFA"/>
<stop offset="1" stop-color="#FC9471"/>
</linearGradient>
<clipPath id="clip0_66_4674">
<rect width="144" height="144" fill="white"/>
</clipPath>
</defs>
</svg>
