<svg width="200" height="200" viewBox="0 0 200 200" fill="none" xmlns="http://www.w3.org/2000/svg">
<g clip-path="url(#clip0_66_5011)">
<path d="M166.668 2.5H33.3343C16.3055 2.5 2.50098 16.3046 2.50098 33.3333V166.667C2.50098 183.695 16.3055 197.5 33.3343 197.5H166.668C183.696 197.5 197.501 183.695 197.501 166.667V33.3333C197.501 16.3046 183.696 2.5 166.668 2.5Z" fill="#1C1B1C"/>
<path d="M166.667 5C182.289 5 195 17.7111 195 33.3333V166.667C195 182.289 182.289 195 166.667 195H33.3333C17.7111 195 5 182.289 5 166.667V33.3333C5 17.7111 17.7111 5 33.3333 5H166.667ZM166.667 0H33.3333C14.925 0 0 14.925 0 33.3333V166.667C0 185.075 14.925 200 33.3333 200H166.667C185.075 200 200 185.075 200 166.667V33.3333C200 14.925 185.075 0 166.667 0Z" fill="#397BFF"/>
<rect x="50" y="52.7778" width="72.2222" height="25" fill="#397BFF"/>
<rect x="50" y="86.1111" width="100" height="25" fill="url(#paint0_linear_66_5011)"/>
<circle cx="136.111" cy="133.333" r="13.8889" fill="#FF996C"/>
</g>
<defs>
<linearGradient id="paint0_linear_66_5011" x1="142.857" y1="91.1111" x2="55.7033" y2="105.893" gradientUnits="userSpaceOnUse">
<stop stop-color="#3E7FFA"/>
<stop offset="1" stop-color="#FC9471"/>
</linearGradient>
<clipPath id="clip0_66_5011">
<rect width="200" height="200" fill="white"/>
</clipPath>
</defs>
</svg>
