<svg width="200" height="200" viewBox="0 0 200 200" fill="none" xmlns="http://www.w3.org/2000/svg">
<g clip-path="url(#clip0_64_1103)">
<path d="M166.667 2.5H33.3333C16.3046 2.5 2.5 16.3046 2.5 33.3333V166.667C2.5 183.695 16.3046 197.5 33.3333 197.5H166.667C183.695 197.5 197.5 183.695 197.5 166.667V33.3333C197.5 16.3046 183.695 2.5 166.667 2.5Z" fill="#1C1B1C"/>
<path d="M166.667 5C182.289 5 195 17.7111 195 33.3333V166.667C195 182.289 182.289 195 166.667 195H33.3333C17.7111 195 5 182.289 5 166.667V33.3333C5 17.7111 17.7111 5 33.3333 5H166.667ZM166.667 0H33.3333C14.925 0 0 14.925 0 33.3333V166.667C0 185.075 14.925 200 33.3333 200H166.667C185.075 200 200 185.075 200 166.667V33.3333C200 14.925 185.075 0 166.667 0Z" fill="#FF996C"/>
<path fill-rule="evenodd" clip-rule="evenodd" d="M150 50V79.7222L122.223 100.25V50H150Z" fill="#FF996C"/>
<path fill-rule="evenodd" clip-rule="evenodd" d="M113.889 80.5555V106.389L86.1113 126.944V80.5555H113.889Z" fill="#FF996C"/>
<path fill-rule="evenodd" clip-rule="evenodd" d="M77.7778 119.444V133.083L50 153.611V119.444H77.7778Z" fill="#FF996C"/>
<path d="M77.7778 133.083V158.333H50V153.611L77.7778 133.083Z" fill="url(#paint0_linear_64_1103)"/>
<path d="M113.889 106.389V158.333H86.1113V126.944L113.889 106.389Z" fill="url(#paint1_linear_64_1103)"/>
<path d="M150 79.7222V158.333H122.223V100.25L150 79.7222Z" fill="url(#paint2_linear_64_1103)"/>
<path d="M163.889 69.4445V163.889H36.1113L50.0002 153.611V158.333H77.778V133.083L86.1113 126.944V158.333H113.889V106.389L122.222 100.25V158.333H150V79.7222L163.889 69.4445Z" fill="#397BFF"/>
</g>
<defs>
<linearGradient id="paint0_linear_64_1103" x1="63.8889" y1="133.022" x2="63.8889" y2="159.171" gradientUnits="userSpaceOnUse">
<stop stop-color="#397BFF"/>
<stop offset="1" stop-color="#FC9571"/>
</linearGradient>
<linearGradient id="paint1_linear_64_1103" x1="100" y1="106.262" x2="100" y2="160.057" gradientUnits="userSpaceOnUse">
<stop stop-color="#397BFF"/>
<stop offset="1" stop-color="#FC9571"/>
</linearGradient>
<linearGradient id="paint2_linear_64_1103" x1="136.112" y1="79.5306" x2="136.112" y2="160.942" gradientUnits="userSpaceOnUse">
<stop stop-color="#397BFF"/>
<stop offset="1" stop-color="#FC9571"/>
</linearGradient>
<clipPath id="clip0_64_1103">
<rect width="200" height="200" fill="white"/>
</clipPath>
</defs>
</svg>
