<svg width="24" height="24" viewBox="0 0 24 24" fill="none" xmlns="http://www.w3.org/2000/svg">
<g clip-path="url(#clip0_69_1900)">
<path d="M19.9998 0.299988H3.9998C1.95635 0.299988 0.299805 1.95653 0.299805 3.99999V20C0.299805 22.0434 1.95635 23.7 3.9998 23.7H19.9998C22.0433 23.7 23.6998 22.0434 23.6998 20V3.99999C23.6998 1.95653 22.0433 0.299988 19.9998 0.299988Z" fill="#1C1B1C"/>
<path d="M20 0.6C21.8747 0.6 23.4 2.12533 23.4 4V20C23.4 21.8747 21.8747 23.4 20 23.4H4C2.12533 23.4 0.6 21.8747 0.6 20V4C0.6 2.12533 2.12533 0.6 4 0.6H20ZM20 0H4C1.791 0 0 1.791 0 4V20C0 22.209 1.791 24 4 24H20C22.209 24 24 22.209 24 20V4C24 1.791 22.209 0 20 0Z" fill="#FF996C"/>
<path fill-rule="evenodd" clip-rule="evenodd" d="M18.0003 6V9.56667L14.667 12.03V6H18.0003Z" fill="#FF996C"/>
<path fill-rule="evenodd" clip-rule="evenodd" d="M13.6668 9.66669V12.7667L10.3335 15.2334V9.66669H13.6668Z" fill="#FF996C"/>
<path fill-rule="evenodd" clip-rule="evenodd" d="M9.33333 14.3333V15.97L6 18.4333V14.3333H9.33333Z" fill="#FF996C"/>
<path d="M9.33333 15.97V19H6V18.4333L9.33333 15.97Z" fill="url(#paint0_linear_69_1900)"/>
<path d="M13.6668 12.7667V19H10.3335V15.2333L13.6668 12.7667Z" fill="url(#paint1_linear_69_1900)"/>
<path d="M18.0003 9.56665V19H14.667V12.03L18.0003 9.56665Z" fill="url(#paint2_linear_69_1900)"/>
<path d="M19.6668 8.33331V19.6666H4.3335L6.00016 18.4333V19H9.3335V15.97L10.3335 15.2333V19H13.6668V12.7666L14.6668 12.03V19H18.0002V9.56665L19.6668 8.33331Z" fill="#397BFF"/>
</g>
<defs>
<linearGradient id="paint0_linear_69_1900" x1="7.66667" y1="15.9626" x2="7.66667" y2="19.1005" gradientUnits="userSpaceOnUse">
<stop stop-color="#397BFF"/>
<stop offset="1" stop-color="#FC9571"/>
</linearGradient>
<linearGradient id="paint1_linear_69_1900" x1="12.0002" y1="12.7515" x2="12.0002" y2="19.2068" gradientUnits="userSpaceOnUse">
<stop stop-color="#397BFF"/>
<stop offset="1" stop-color="#FC9571"/>
</linearGradient>
<linearGradient id="paint2_linear_69_1900" x1="16.3337" y1="9.54365" x2="16.3337" y2="19.313" gradientUnits="userSpaceOnUse">
<stop stop-color="#397BFF"/>
<stop offset="1" stop-color="#FC9571"/>
</linearGradient>
<clipPath id="clip0_69_1900">
<rect width="24" height="24" fill="white"/>
</clipPath>
</defs>
</svg>
