<svg width="48" height="48" viewBox="0 0 48 48" fill="none" xmlns="http://www.w3.org/2000/svg">
<g clip-path="url(#clip0_66_5605)">
<path d="M40.0001 0.600098H8.0001C3.91319 0.600098 0.600098 3.91319 0.600098 8.0001V40.0001C0.600098 44.087 3.91319 47.4001 8.0001 47.4001H40.0001C44.087 47.4001 47.4001 44.087 47.4001 40.0001V8.0001C47.4001 3.91319 44.087 0.600098 40.0001 0.600098Z" fill="#1C1B1C"/>
<path d="M40 1.2C43.7493 1.2 46.8 4.25067 46.8 8V40C46.8 43.7493 43.7493 46.8 40 46.8H8C4.25067 46.8 1.2 43.7493 1.2 40V8C1.2 4.25067 4.25067 1.2 8 1.2H40ZM40 0H8C3.582 0 0 3.582 0 8V40C0 44.418 3.582 48 8 48H40C44.418 48 48 44.418 48 40V8C48 3.582 44.418 0 40 0Z" fill="#FF996C"/>
<g clip-path="url(#clip1_66_5605)">
<path d="M36.0002 14L32.6668 12L29.3335 14V36H36.0002V14Z" fill="#FF996C"/>
<path d="M27.3332 22L23.9998 20L20.6665 22V36H27.3332V22Z" fill="url(#paint0_linear_66_5605)"/>
<path d="M18.6667 30L15.3333 28L12 30V36H18.6667V30Z" fill="#FFEFBB"/>
</g>
</g>
<defs>
<linearGradient id="paint0_linear_66_5605" x1="23.9998" y1="20" x2="23.9998" y2="35.9467" gradientUnits="userSpaceOnUse">
<stop stop-color="#FFEFBB"/>
<stop offset="1" stop-color="#F69579"/>
</linearGradient>
<clipPath id="clip0_66_5605">
<rect width="48" height="48" fill="white"/>
</clipPath>
<clipPath id="clip1_66_5605">
<rect width="24" height="24" fill="white" transform="translate(12 12)"/>
</clipPath>
</defs>
</svg>
