<svg width="200" height="200" viewBox="0 0 200 200" fill="none" xmlns="http://www.w3.org/2000/svg">
<g clip-path="url(#clip0_66_4918)">
<path d="M166.667 2.5H33.3333C16.3046 2.5 2.5 16.3046 2.5 33.3333V166.667C2.5 183.695 16.3046 197.5 33.3333 197.5H166.667C183.695 197.5 197.5 183.695 197.5 166.667V33.3333C197.5 16.3046 183.695 2.5 166.667 2.5Z" fill="#1C1B1C"/>
<path d="M166.667 5C182.289 5 195 17.7111 195 33.3333V166.667C195 182.289 182.289 195 166.667 195H33.3333C17.7111 195 5 182.289 5 166.667V33.3333C5 17.7111 17.7111 5 33.3333 5H166.667ZM166.667 0H33.3333C14.925 0 0 14.925 0 33.3333V166.667C0 185.075 14.925 200 33.3333 200H166.667C185.075 200 200 185.075 200 166.667V33.3333C200 14.925 185.075 0 166.667 0Z" fill="#FF996C"/>
<g clip-path="url(#clip1_66_4918)">
<path d="M150 58.3333L136.111 50L122.222 58.3333V150H150V58.3333Z" fill="#FF996C"/>
<path d="M113.889 91.6666L100 83.3333L86.1113 91.6666V150H113.889V91.6666Z" fill="url(#paint0_linear_66_4918)"/>
<path d="M77.7778 125L63.8889 116.667L50 125V150H77.7778V125Z" fill="#FFEFBB"/>
</g>
</g>
<defs>
<linearGradient id="paint0_linear_66_4918" x1="100" y1="83.3333" x2="100" y2="149.778" gradientUnits="userSpaceOnUse">
<stop stop-color="#FFEFBB"/>
<stop offset="1" stop-color="#F69579"/>
</linearGradient>
<clipPath id="clip0_66_4918">
<rect width="200" height="200" fill="white"/>
</clipPath>
<clipPath id="clip1_66_4918">
<rect width="100" height="100" fill="white" transform="translate(50 50)"/>
</clipPath>
</defs>
</svg>
