<svg width="24" height="24" viewBox="0 0 24 24" fill="none" xmlns="http://www.w3.org/2000/svg">
<g clip-path="url(#clip0_71_2183)">
<path d="M19.9998 0.300049H3.9998C1.95635 0.300049 0.299805 1.9566 0.299805 4.00005V20C0.299805 22.0435 1.95635 23.7 3.9998 23.7H19.9998C22.0433 23.7 23.6998 22.0435 23.6998 20V4.00005C23.6998 1.9566 22.0433 0.300049 19.9998 0.300049Z" fill="#1C1B1C"/>
<path d="M20 0.6C21.8747 0.6 23.4 2.12533 23.4 4V20C23.4 21.8747 21.8747 23.4 20 23.4H4C2.12533 23.4 0.6 21.8747 0.6 20V4C0.6 2.12533 2.12533 0.6 4 0.6H20ZM20 0H4C1.791 0 0 1.791 0 4V20C0 22.209 1.791 24 4 24H20C22.209 24 24 22.209 24 20V4C24 1.791 22.209 0 20 0Z" fill="#FFF6B6"/>
<path d="M12 6L6 16H18L12 6Z" fill="#FFF6B6"/>
<path d="M10.6665 10.6667H13.3332L12.6665 16.0001H11.3332L10.6665 10.6667Z" fill="url(#paint0_linear_71_2183)"/>
<path d="M12 19C12.5523 19 13 18.5523 13 18C13 17.4477 12.5523 17 12 17C11.4477 17 11 17.4477 11 18C11 18.5523 11.4477 19 12 19Z" fill="#A97DFF"/>
</g>
<defs>
<linearGradient id="paint0_linear_71_2183" x1="11.9998" y1="16.0001" x2="11.9998" y2="10.6667" gradientUnits="userSpaceOnUse">
<stop stop-color="#FFF0B4"/>
<stop offset="1" stop-color="#A480FB"/>
</linearGradient>
<clipPath id="clip0_71_2183">
<rect width="24" height="24" fill="white"/>
</clipPath>
</defs>
</svg>
