<svg width="48" height="48" viewBox="0 0 48 48" fill="none" xmlns="http://www.w3.org/2000/svg">
<g clip-path="url(#clip0_66_5614)">
<path d="M40.0001 0.600098H8.0001C3.91319 0.600098 0.600098 3.91319 0.600098 8.0001V40.0001C0.600098 44.087 3.91319 47.4001 8.0001 47.4001H40.0001C44.087 47.4001 47.4001 44.087 47.4001 40.0001V8.0001C47.4001 3.91319 44.087 0.600098 40.0001 0.600098Z" fill="#1C1B1C"/>
<path d="M40 1.2C43.7493 1.2 46.8 4.25067 46.8 8V40C46.8 43.7493 43.7493 46.8 40 46.8H8C4.25067 46.8 1.2 43.7493 1.2 40V8C1.2 4.25067 4.25067 1.2 8 1.2H40ZM40 0H8C3.582 0 0 3.582 0 8V40C0 44.418 3.582 48 8 48H40C44.418 48 48 44.418 48 40V8C48 3.582 44.418 0 40 0Z" fill="#FFF6B6"/>
<path d="M24 12L12 32H36L24 12Z" fill="#FFF6B6"/>
<path d="M21.3335 21.3333H26.6668L25.3335 31.9999H22.6668L21.3335 21.3333Z" fill="url(#paint0_linear_66_5614)"/>
<path d="M24 38C25.1046 38 26 37.1046 26 36C26 34.8954 25.1046 34 24 34C22.8954 34 22 34.8954 22 36C22 37.1046 22.8954 38 24 38Z" fill="#A97DFF"/>
</g>
<defs>
<linearGradient id="paint0_linear_66_5614" x1="24.0002" y1="31.9999" x2="24.0002" y2="21.3333" gradientUnits="userSpaceOnUse">
<stop stop-color="#FFF0B4"/>
<stop offset="1" stop-color="#A480FB"/>
</linearGradient>
<clipPath id="clip0_66_5614">
<rect width="48" height="48" fill="white"/>
</clipPath>
</defs>
</svg>
