<svg width="200" height="200" viewBox="0 0 200 200" fill="none" xmlns="http://www.w3.org/2000/svg">
<g clip-path="url(#clip0_66_4927)">
<path d="M166.667 2.5H33.3333C16.3046 2.5 2.5 16.3046 2.5 33.3333V166.667C2.5 183.695 16.3046 197.5 33.3333 197.5H166.667C183.695 197.5 197.5 183.695 197.5 166.667V33.3333C197.5 16.3046 183.695 2.5 166.667 2.5Z" fill="#1C1B1C"/>
<path d="M166.667 5C182.289 5 195 17.7111 195 33.3333V166.667C195 182.289 182.289 195 166.667 195H33.3333C17.7111 195 5 182.289 5 166.667V33.3333C5 17.7111 17.7111 5 33.3333 5H166.667ZM166.667 0H33.3333C14.925 0 0 14.925 0 33.3333V166.667C0 185.075 14.925 200 33.3333 200H166.667C185.075 200 200 185.075 200 166.667V33.3333C200 14.925 185.075 0 166.667 0Z" fill="#FFF6B6"/>
<path d="M100 50L50 133.333H150L100 50Z" fill="#FFF6B6"/>
<path d="M88.8887 88.8889H111.111L105.555 133.333H94.4442L88.8887 88.8889Z" fill="url(#paint0_linear_66_4927)"/>
<path d="M99.9998 158.333C104.602 158.333 108.333 154.602 108.333 150C108.333 145.398 104.602 141.667 99.9998 141.667C95.3975 141.667 91.6665 145.398 91.6665 150C91.6665 154.602 95.3975 158.333 99.9998 158.333Z" fill="#A97DFF"/>
</g>
<defs>
<linearGradient id="paint0_linear_66_4927" x1="99.9998" y1="133.333" x2="99.9998" y2="88.8889" gradientUnits="userSpaceOnUse">
<stop stop-color="#FFF0B4"/>
<stop offset="1" stop-color="#A480FB"/>
</linearGradient>
<clipPath id="clip0_66_4927">
<rect width="200" height="200" fill="white"/>
</clipPath>
</defs>
</svg>
