<svg width="24" height="24" viewBox="0 0 24 24" fill="none" xmlns="http://www.w3.org/2000/svg">
<g clip-path="url(#clip0_71_2125)">
<path d="M19.9997 0.299927H3.99984C1.95637 0.299927 0.299805 1.95649 0.299805 3.99996V20C0.299805 22.0434 1.95637 23.7 3.99984 23.7H19.9997C22.0431 23.7 23.6997 22.0434 23.6997 20V3.99996C23.6997 1.95649 22.0431 0.299927 19.9997 0.299927Z" fill="#1C1B1C"/>
<path d="M20 0.6C21.8748 0.6 23.4 2.12524 23.4 4V20C23.4 21.8748 21.8748 23.4 20 23.4H4C2.12523 23.4 0.6 21.8748 0.6 20V4C0.6 2.12524 2.12523 0.6 4 0.6H20ZM20 0H4C1.79086 0 0 1.79086 0 4V20C0 22.2091 1.79086 24 4 24H20C22.2091 24 24 22.2091 24 20V4C24 1.79086 22.2091 0 20 0Z" fill="#397BFF"/>
<path d="M15 11H9V19H15V11Z" fill="#397BFF"/>
<path d="M10.3335 11H13.6668V16.6667C13.6668 17.587 12.9205 18.3333 12.0002 18.3333C11.0798 18.3333 10.3335 17.587 10.3335 16.6667V11Z" fill="url(#paint0_linear_71_2125)"/>
<path d="M10.3335 6.66667C10.3335 5.74633 11.0798 5 12.0002 5C12.9205 5 13.6668 5.74633 13.6668 6.66667C13.6668 7.587 12.9205 8.33333 12.0002 8.33333C11.0798 8.33333 10.3335 7.587 10.3335 6.66667Z" fill="#FF996C"/>
<path d="M13.6668 11H10.3335C10.3335 10.08 11.0802 9.33337 12.0002 9.33337C12.9202 9.33337 13.6668 10.08 13.6668 11Z" fill="#FF996C"/>
</g>
<defs>
<linearGradient id="paint0_linear_71_2125" x1="12.0002" y1="11" x2="12.0002" y2="18.3333" gradientUnits="userSpaceOnUse">
<stop stop-color="#3E7FFA"/>
<stop offset="1" stop-color="#FC9571"/>
</linearGradient>
<clipPath id="clip0_71_2125">
<rect width="24" height="24" fill="white"/>
</clipPath>
</defs>
</svg>
