<svg width="200" height="200" viewBox="0 0 200 200" fill="none" xmlns="http://www.w3.org/2000/svg">
<g clip-path="url(#clip0_66_4869)">
<path d="M166.665 2.49969H33.3331C16.3042 2.49969 2.49951 16.3044 2.49951 33.3333V166.667C2.49951 183.696 16.3042 197.5 33.3331 197.5H166.665C183.694 197.5 197.499 183.696 197.499 166.667V33.3333C197.499 16.3044 183.694 2.49969 166.665 2.49969Z" fill="#1C1B1C"/>
<path d="M166.667 5C182.29 5 195 17.7103 195 33.3333V166.667C195 182.29 182.29 195 166.667 195H33.3333C17.7103 195 5 182.29 5 166.667V33.3333C5 17.7103 17.7103 5 33.3333 5H166.667ZM166.667 0H33.3333C14.9239 0 0 14.9239 0 33.3333V166.667C0 185.076 14.9239 200 33.3333 200H166.667C185.076 200 200 185.076 200 166.667V33.3333C200 14.9239 185.076 0 166.667 0Z" fill="#397BFF"/>
<path d="M125 91.6667H75V158.333H125V91.6667Z" fill="#397BFF"/>
<path d="M86.1113 91.6667H113.889V138.889C113.889 146.558 107.67 152.778 100 152.778C92.3308 152.778 86.1113 146.558 86.1113 138.889V91.6667Z" fill="url(#paint0_linear_66_4869)"/>
<path d="M86.1113 55.5556C86.1113 47.8861 92.3308 41.6667 100 41.6667C107.67 41.6667 113.889 47.8861 113.889 55.5556C113.889 63.225 107.67 69.4445 100 69.4445C92.3308 69.4445 86.1113 63.225 86.1113 55.5556Z" fill="#FF996C"/>
<path d="M113.889 91.6667H86.1113C86.1113 84.0001 92.3336 77.7778 100 77.7778C107.667 77.7778 113.889 84.0001 113.889 91.6667Z" fill="#FF996C"/>
</g>
<defs>
<linearGradient id="paint0_linear_66_4869" x1="100" y1="91.6667" x2="100" y2="152.778" gradientUnits="userSpaceOnUse">
<stop stop-color="#3E7FFA"/>
<stop offset="1" stop-color="#FC9571"/>
</linearGradient>
<clipPath id="clip0_66_4869">
<rect width="200" height="200" fill="white"/>
</clipPath>
</defs>
</svg>
