<svg width="144" height="144" viewBox="0 0 144 144" fill="none" xmlns="http://www.w3.org/2000/svg">
<g clip-path="url(#clip0_66_4532)">
<path d="M119.999 1.7998H24C11.7392 1.7998 1.7998 11.7392 1.7998 24V120C1.7998 132.261 11.7392 142.2 24 142.2H119.999C132.26 142.2 142.199 132.261 142.199 120V24C142.199 11.7392 132.26 1.7998 119.999 1.7998Z" fill="#1C1B1C"/>
<path d="M120 3.6C131.249 3.6 140.4 12.7514 140.4 24V120C140.4 131.249 131.249 140.4 120 140.4H24C12.7514 140.4 3.6 131.249 3.6 120V24C3.6 12.7514 12.7514 3.6 24 3.6H120ZM120 0H24C10.7452 0 0 10.7452 0 24V120C0 133.255 10.7452 144 24 144H120C133.255 144 144 133.255 144 120V24C144 10.7452 133.255 0 120 0Z" fill="#397BFF"/>
<path d="M90 66H54V114H90V66Z" fill="#397BFF"/>
<path d="M62 66H82V100C82 105.522 77.522 110 72 110C66.478 110 62 105.522 62 100V66Z" fill="url(#paint0_linear_66_4532)"/>
<path d="M62 40C62 34.478 66.478 30 72 30C77.522 30 82 34.478 82 40C82 45.522 77.522 50 72 50C66.478 50 62 45.522 62 40Z" fill="#FF996C"/>
<path d="M82 66H62C62 60.48 66.48 56 72 56C77.52 56 82 60.48 82 66Z" fill="#FF996C"/>
</g>
<defs>
<linearGradient id="paint0_linear_66_4532" x1="72" y1="66" x2="72" y2="110" gradientUnits="userSpaceOnUse">
<stop stop-color="#3E7FFA"/>
<stop offset="1" stop-color="#FC9571"/>
</linearGradient>
<clipPath id="clip0_66_4532">
<rect width="144" height="144" fill="white"/>
</clipPath>
</defs>
</svg>
