<svg width="48" height="48" viewBox="0 0 48 48" fill="none" xmlns="http://www.w3.org/2000/svg">
<g clip-path="url(#clip0_66_5556)">
<path d="M39.9998 0.599976H8.00016C3.91322 0.599976 0.600098 3.9131 0.600098 8.00004V40C0.600098 44.087 3.91322 47.4001 8.00016 47.4001H39.9998C44.0868 47.4001 47.3999 44.087 47.3999 40V8.00004C47.3999 3.9131 44.0868 0.599976 39.9998 0.599976Z" fill="#1C1B1C"/>
<path d="M40 1.2C43.7495 1.2 46.8 4.25047 46.8 8V40C46.8 43.7495 43.7495 46.8 40 46.8H8C4.25047 46.8 1.2 43.7495 1.2 40V8C1.2 4.25047 4.25047 1.2 8 1.2H40ZM40 0H8C3.58173 0 0 3.58173 0 8V40C0 44.4183 3.58173 48 8 48H40C44.4183 48 48 44.4183 48 40V8C48 3.58173 44.4183 0 40 0Z" fill="#397BFF"/>
<path d="M30 22H18V38H30V22Z" fill="#397BFF"/>
<path d="M20.6665 22H27.3332V33.3333C27.3332 35.174 25.8405 36.6667 23.9998 36.6667C22.1592 36.6667 20.6665 35.174 20.6665 33.3333V22Z" fill="url(#paint0_linear_66_5556)"/>
<path d="M20.6665 13.3333C20.6665 11.4927 22.1592 10 23.9998 10C25.8405 10 27.3332 11.4927 27.3332 13.3333C27.3332 15.174 25.8405 16.6667 23.9998 16.6667C22.1592 16.6667 20.6665 15.174 20.6665 13.3333Z" fill="#FF996C"/>
<path d="M27.3332 22H20.6665C20.6665 20.16 22.1598 18.6666 23.9998 18.6666C25.8398 18.6666 27.3332 20.16 27.3332 22Z" fill="#FF996C"/>
</g>
<defs>
<linearGradient id="paint0_linear_66_5556" x1="23.9998" y1="22" x2="23.9998" y2="36.6667" gradientUnits="userSpaceOnUse">
<stop stop-color="#3E7FFA"/>
<stop offset="1" stop-color="#FC9571"/>
</linearGradient>
<clipPath id="clip0_66_5556">
<rect width="48" height="48" fill="white"/>
</clipPath>
</defs>
</svg>
