<svg width="72" height="72" viewBox="0 0 72 72" fill="none" xmlns="http://www.w3.org/2000/svg">
<g clip-path="url(#clip0_66_5206)">
<path d="M59.9995 0.899902H12C5.86959 0.899902 0.899902 5.86959 0.899902 12V60C0.899902 66.1304 5.86959 71.1001 12 71.1001H59.9995C66.1299 71.1001 71.0996 66.1304 71.0996 60V12C71.0996 5.86959 66.1299 0.899902 59.9995 0.899902Z" fill="#1C1B1C"/>
<path d="M60 1.8C65.6243 1.8 70.2 6.37571 70.2 12V60C70.2 65.6243 65.6243 70.2 60 70.2H12C6.3757 70.2 1.8 65.6243 1.8 60V12C1.8 6.37571 6.3757 1.8 12 1.8H60ZM60 0H12C5.37259 0 0 5.37259 0 12V60C0 66.6274 5.37259 72 12 72H60C66.6274 72 72 66.6274 72 60V12C72 5.37259 66.6274 0 60 0Z" fill="#397BFF"/>
<path d="M45 33H27V57H45V33Z" fill="#397BFF"/>
<path d="M31 33H41V50C41 52.761 38.761 55 36 55C33.239 55 31 52.761 31 50V33Z" fill="url(#paint0_linear_66_5206)"/>
<path d="M31 20C31 17.239 33.239 15 36 15C38.761 15 41 17.239 41 20C41 22.761 38.761 25 36 25C33.239 25 31 22.761 31 20Z" fill="#FF996C"/>
<path d="M41 33H31C31 30.24 33.24 28 36 28C38.76 28 41 30.24 41 33Z" fill="#FF996C"/>
</g>
<defs>
<linearGradient id="paint0_linear_66_5206" x1="36" y1="33" x2="36" y2="55" gradientUnits="userSpaceOnUse">
<stop stop-color="#3E7FFA"/>
<stop offset="1" stop-color="#FC9571"/>
</linearGradient>
<clipPath id="clip0_66_5206">
<rect width="72" height="72" fill="white"/>
</clipPath>
</defs>
</svg>
