<svg width="72" height="72" viewBox="0 0 72 72" fill="none" xmlns="http://www.w3.org/2000/svg">
<g clip-path="url(#clip0_66_5340)">
<path d="M60.0004 0.899902H12.0004C5.87003 0.899902 0.900391 5.86954 0.900391 11.9999V59.9999C0.900391 66.1303 5.87003 71.0999 12.0004 71.0999H60.0004C66.1308 71.0999 71.1004 66.1303 71.1004 59.9999V11.9999C71.1004 5.86954 66.1308 0.899902 60.0004 0.899902Z" fill="#1C1B1C"/>
<path d="M60 1.8C65.624 1.8 70.2 6.376 70.2 12V60C70.2 65.624 65.624 70.2 60 70.2H12C6.376 70.2 1.8 65.624 1.8 60V12C1.8 6.376 6.376 1.8 12 1.8H60ZM60 0H12C5.373 0 0 5.373 0 12V60C0 66.627 5.373 72 12 72H60C66.627 72 72 66.627 72 60V12C72 5.373 66.627 0 60 0Z" fill="#8DFCF1"/>
<path d="M36 23H18L23.2683 48.3636L36 57V23Z" fill="url(#paint0_linear_66_5340)"/>
<path d="M36 23H54L48.7317 48.3636L36 57V23Z" fill="#8DFCF1"/>
<rect x="22" y="15" width="28" height="4" fill="#FFF6B6"/>
</g>
<defs>
<linearGradient id="paint0_linear_66_5340" x1="12.5" y1="50.5" x2="36" y2="23" gradientUnits="userSpaceOnUse">
<stop stop-color="#8DFCF1"/>
<stop offset="1" stop-color="#FFF6B6"/>
</linearGradient>
<clipPath id="clip0_66_5340">
<rect width="72" height="72" fill="white"/>
</clipPath>
</defs>
</svg>
