<svg width="200" height="200" viewBox="0 0 200 200" fill="none" xmlns="http://www.w3.org/2000/svg">
<g clip-path="url(#clip0_66_5003)">
<path d="M166.668 2.5H33.3343C16.3055 2.5 2.50098 16.3046 2.50098 33.3333V166.667C2.50098 183.695 16.3055 197.5 33.3343 197.5H166.668C183.696 197.5 197.501 183.695 197.501 166.667V33.3333C197.501 16.3046 183.696 2.5 166.668 2.5Z" fill="#1C1B1C"/>
<path d="M166.667 5C182.289 5 195 17.7111 195 33.3333V166.667C195 182.289 182.289 195 166.667 195H33.3333C17.7111 195 5 182.289 5 166.667V33.3333C5 17.7111 17.7111 5 33.3333 5H166.667ZM166.667 0H33.3333C14.925 0 0 14.925 0 33.3333V166.667C0 185.075 14.925 200 33.3333 200H166.667C185.075 200 200 185.075 200 166.667V33.3333C200 14.925 185.075 0 166.667 0Z" fill="#8DFCF1"/>
<path d="M100 63.8889H50L64.6341 134.343L100 158.333V63.8889Z" fill="url(#paint0_linear_66_5003)"/>
<path d="M100 63.8889H150L135.366 134.343L100 158.333V63.8889Z" fill="#8DFCF1"/>
<rect x="61.1113" y="41.6667" width="77.7778" height="11.1111" fill="#FFF6B6"/>
</g>
<defs>
<linearGradient id="paint0_linear_66_5003" x1="34.7222" y1="140.278" x2="100" y2="63.8889" gradientUnits="userSpaceOnUse">
<stop stop-color="#8DFCF1"/>
<stop offset="1" stop-color="#FFF6B6"/>
</linearGradient>
<clipPath id="clip0_66_5003">
<rect width="200" height="200" fill="white"/>
</clipPath>
</defs>
</svg>
