<svg width="24" height="24" viewBox="0 0 24 24" fill="none" xmlns="http://www.w3.org/2000/svg">
<g clip-path="url(#clip0_71_2036)">
<path d="M19.9998 0.300049H3.9998C1.95635 0.300049 0.299805 1.9566 0.299805 4.00005V20C0.299805 22.0435 1.95635 23.7 3.9998 23.7H19.9998C22.0433 23.7 23.6998 22.0435 23.6998 20V4.00005C23.6998 1.9566 22.0433 0.300049 19.9998 0.300049Z" fill="#1C1B1C"/>
<path d="M20 0.6C21.8747 0.6 23.4 2.12533 23.4 4V20C23.4 21.8747 21.8747 23.4 20 23.4H4C2.12533 23.4 0.6 21.8747 0.6 20V4C0.6 2.12533 2.12533 0.6 4 0.6H20ZM20 0H4C1.791 0 0 1.791 0 4V20C0 22.209 1.791 24 4 24H20C22.209 24 24 22.209 24 20V4C24 1.791 22.209 0 20 0Z" fill="#A97DFF"/>
<path d="M7.7572 11.5288L5.87158 13.4144L7.7572 15.3L9.64282 13.4144L7.7572 11.5288Z" fill="#A97DFF"/>
<path d="M16.2426 6.81465L7.75732 15.2999L9.64294 17.1855L18.1282 8.70026L16.2426 6.81465Z" fill="#FF996C"/>
<path d="M9.64294 13.4139L7.75732 15.2996L9.64294 17.1852L11.5286 15.2996L9.64294 13.4139Z" fill="url(#paint0_linear_71_2036)"/>
</g>
<defs>
<linearGradient id="paint0_linear_71_2036" x1="8.57246" y1="14.2292" x2="10.7635" y2="16.4202" gradientUnits="userSpaceOnUse">
<stop offset="0.25" stop-color="#FF986C"/>
<stop offset="0.988" stop-color="#A87DFF"/>
</linearGradient>
<clipPath id="clip0_71_2036">
<rect width="24" height="24" fill="white"/>
</clipPath>
</defs>
</svg>
