<svg width="144" height="144" viewBox="0 0 144 144" fill="none" xmlns="http://www.w3.org/2000/svg">
<g clip-path="url(#clip0_66_4453)">
<path d="M120 1.80005H23.9998C11.7391 1.80005 1.7998 11.7393 1.7998 24V120C1.7998 132.261 11.7391 142.2 23.9998 142.2H120C132.261 142.2 142.2 132.261 142.2 120V24C142.2 11.7393 132.261 1.80005 120 1.80005Z" fill="#1C1B1C"/>
<path d="M120 3.6C131.248 3.6 140.4 12.752 140.4 24V120C140.4 131.248 131.248 140.4 120 140.4H24C12.752 140.4 3.6 131.248 3.6 120V24C3.6 12.752 12.752 3.6 24 3.6H120ZM120 0H24C10.746 0 0 10.746 0 24V120C0 133.254 10.746 144 24 144H120C133.254 144 144 133.254 144 120V24C144 10.746 133.254 0 120 0Z" fill="#A97DFF"/>
<path d="M46.5437 69.173L35.23 80.4867L46.5437 91.8004L57.8574 80.4867L46.5437 69.173Z" fill="#A97DFF"/>
<path d="M97.4556 40.888L46.5439 91.7997L57.8577 103.113L108.769 52.2017L97.4556 40.888Z" fill="#FF996C"/>
<path d="M57.8567 80.4835L46.543 91.7972L57.8567 103.111L69.1704 91.7972L57.8567 80.4835Z" fill="url(#paint0_linear_66_4453)"/>
</g>
<defs>
<linearGradient id="paint0_linear_66_4453" x1="51.4338" y1="85.3752" x2="64.5798" y2="98.5212" gradientUnits="userSpaceOnUse">
<stop offset="0.25" stop-color="#FF986C"/>
<stop offset="0.988" stop-color="#A87DFF"/>
</linearGradient>
<clipPath id="clip0_66_4453">
<rect width="144" height="144" fill="white"/>
</clipPath>
</defs>
</svg>
