<svg width="48" height="48" viewBox="0 0 48 48" fill="none" xmlns="http://www.w3.org/2000/svg">
<g clip-path="url(#clip0_66_5477)">
<path d="M40.0001 0.599976H8.0001C3.91319 0.599976 0.600098 3.91307 0.600098 7.99998V40C0.600098 44.0869 3.91319 47.4 8.0001 47.4H40.0001C44.087 47.4 47.4001 44.0869 47.4001 40V7.99998C47.4001 3.91307 44.087 0.599976 40.0001 0.599976Z" fill="#1C1B1C"/>
<path d="M40 1.2C43.7493 1.2 46.8 4.25067 46.8 8V40C46.8 43.7493 43.7493 46.8 40 46.8H8C4.25067 46.8 1.2 43.7493 1.2 40V8C1.2 4.25067 4.25067 1.2 8 1.2H40ZM40 0H8C3.582 0 0 3.582 0 8V40C0 44.418 3.582 48 8 48H40C44.418 48 48 44.418 48 40V8C48 3.582 44.418 0 40 0Z" fill="#A97DFF"/>
<path d="M15.5144 23.0576L11.7432 26.8289L15.5144 30.6001L19.2856 26.8289L15.5144 23.0576Z" fill="#A97DFF"/>
<path d="M32.4852 13.6293L15.5146 30.5999L19.2859 34.3711L36.2564 17.4005L32.4852 13.6293Z" fill="#FF996C"/>
<path d="M19.2854 26.8278L15.5142 30.599L19.2854 34.3702L23.0566 30.599L19.2854 26.8278Z" fill="url(#paint0_linear_66_5477)"/>
</g>
<defs>
<linearGradient id="paint0_linear_66_5477" x1="17.1444" y1="28.4583" x2="21.5264" y2="32.8403" gradientUnits="userSpaceOnUse">
<stop offset="0.25" stop-color="#FF986C"/>
<stop offset="0.988" stop-color="#A87DFF"/>
</linearGradient>
<clipPath id="clip0_66_5477">
<rect width="48" height="48" fill="white"/>
</clipPath>
</defs>
</svg>
