<svg width="72" height="72" viewBox="0 0 72 72" fill="none" xmlns="http://www.w3.org/2000/svg">
<g clip-path="url(#clip0_66_5054)">
<path d="M60 0.900391H12C5.86986 0.900391 0.900391 5.86986 0.900391 12V60C0.900391 66.1301 5.86986 71.0996 12 71.0996H60C66.1301 71.0996 71.0996 66.1301 71.0996 60V12C71.0996 5.86986 66.1301 0.900391 60 0.900391Z" fill="#1C1B1C"/>
<path d="M60 1.79999C65.6243 1.79999 70.2 6.37573 70.2 12V60C70.2 65.6243 65.6243 70.2 60 70.2H12C6.37573 70.2 1.80005 65.6243 1.80005 60V12C1.80005 6.37573 6.37573 1.79999 12 1.79999H60ZM60 0H12C5.37256 0 0 5.37256 0 12V60C0 66.6274 5.37256 72 12 72H60C66.6274 72 72 66.6274 72 60V12C72 5.37256 66.6274 0 60 0Z" fill="#8DFCF1"/>
<path d="M30 30C23.373 30 18 35.373 18 42V54H30C36.627 54 42 48.627 42 42C42 35.373 36.627 30 30 30Z" fill="#8DFCF1"/>
<path d="M54 18H26V46H54V18Z" fill="#A97DFF"/>
<path d="M30 30C28.595 30 27.253 30.254 26 30.698V46H41.303C41.747 44.747 42 43.405 42 42C42 35.373 36.627 30 30 30Z" fill="url(#paint0_linear_66_5054)"/>
</g>
<defs>
<linearGradient id="paint0_linear_66_5054" x1="25.909" y1="46.091" x2="38.219" y2="33.781" gradientUnits="userSpaceOnUse">
<stop stop-color="#A97DFF"/>
<stop offset="1" stop-color="#8DFCF1"/>
</linearGradient>
<clipPath id="clip0_66_5054">
<rect width="72" height="72" fill="white"/>
</clipPath>
</defs>
</svg>
