<svg width="24" height="24" viewBox="0 0 24 24" fill="none" xmlns="http://www.w3.org/2000/svg">
<g clip-path="url(#clip0_71_1998)">
<path d="M20.0002 0.300049H4.00016C1.95678 0.300049 0.300293 1.95654 0.300293 3.99992V19.9999C0.300293 22.0433 1.95678 23.6998 4.00016 23.6998H20.0002C22.0435 23.6998 23.7 22.0433 23.7 19.9999V3.99992C23.7 1.95654 22.0435 0.300049 20.0002 0.300049Z" fill="#1C1B1C"/>
<path d="M20 0.599997C21.8748 0.599997 23.4 2.12523 23.4 4V20C23.4 21.8748 21.8748 23.4 20 23.4H4C2.12524 23.4 0.600017 21.8748 0.600017 20V4C0.600017 2.12523 2.12524 0.599997 4 0.599997H20ZM20 0H4C1.79085 0 0 1.79086 0 4V20C0 22.2091 1.79085 24 4 24H20C22.2091 24 24 22.2091 24 20V4C24 1.79086 22.2091 0 20 0Z" fill="#8DFCF1"/>
<path d="M13.3332 15.3333C15.9105 15.3333 17.9998 13.244 17.9998 10.6667C17.9998 8.08934 15.9105 6 13.3332 6C10.7558 6 8.6665 8.08934 8.6665 10.6667C8.6665 13.244 10.7558 15.3333 13.3332 15.3333Z" fill="#397BFF"/>
<path d="M18.0001 10.6667C18.0001 11.9533 17.4767 13.12 16.6334 13.9667C16.1767 14.42 15.6267 14.7833 15.0167 15.0167C15.2234 14.4933 15.3334 13.9267 15.3334 13.3333C15.3334 12.0467 14.8101 10.88 13.9667 10.0333C13.1201 9.19 11.9534 8.66667 10.6667 8.66667C10.0734 8.66667 9.50673 8.77667 8.9834 8.98333C9.65673 7.23667 11.3501 6 13.3334 6C14.6201 6 15.7867 6.52333 16.6334 7.36667C17.4767 8.21333 18.0001 9.38 18.0001 10.6667Z" fill="#397BFF"/>
<path d="M15.3332 13.3334C15.3332 13.9267 15.2232 14.4934 15.0165 15.0167C14.4932 15.2234 13.9265 15.3334 13.3332 15.3334H8.6665V10.6667C8.6665 10.0734 8.7765 9.50675 8.98317 8.98341C9.5065 8.77675 10.0732 8.66675 10.6665 8.66675C11.9532 8.66675 13.1198 9.19008 13.9665 10.0334C14.8098 10.8801 15.3332 12.0467 15.3332 13.3334Z" fill="url(#paint0_linear_71_1998)"/>
<path d="M15.0167 15.0167C14.7833 15.6267 14.42 16.1767 13.9667 16.6334C13.12 17.4767 11.9533 18.0001 10.6667 18.0001H6V13.3334C6 11.3501 7.23667 9.65673 8.98333 8.9834C8.77667 9.50673 8.66667 10.0734 8.66667 10.6667V15.3334H13.3333C13.9267 15.3334 14.4933 15.2234 15.0167 15.0167Z" fill="#8DFCF1"/>
</g>
<defs>
<linearGradient id="paint0_linear_71_1998" x1="7.8145" y1="17.1987" x2="14.6215" y2="8.74375" gradientUnits="userSpaceOnUse">
<stop offset="0.15" stop-color="#397BFF"/>
<stop offset="0.85" stop-color="#8DFCF1"/>
</linearGradient>
<clipPath id="clip0_71_1998">
<rect width="24" height="24" fill="white"/>
</clipPath>
</defs>
</svg>
