<svg width="72" height="72" viewBox="0 0 72 72" fill="none" xmlns="http://www.w3.org/2000/svg">
<g clip-path="url(#clip0_66_5089)">
<path d="M60 0.900391H12C5.86986 0.900391 0.900391 5.86986 0.900391 12V60C0.900391 66.1301 5.86986 71.0996 12 71.0996H60C66.1301 71.0996 71.0996 66.1301 71.0996 60V12C71.0996 5.86986 66.1301 0.900391 60 0.900391Z" fill="#1C1B1C"/>
<path d="M60 1.79999C65.6243 1.79999 70.2 6.3757 70.2 12V60C70.2 65.6243 65.6243 70.2 60 70.2H12C6.37573 70.2 1.80005 65.6243 1.80005 60V12C1.80005 6.3757 6.37573 1.79999 12 1.79999H60ZM60 0H12C5.37256 0 0 5.37259 0 12V60C0 66.6274 5.37256 72 12 72H60C66.6274 72 72 66.6274 72 60V12C72 5.37259 66.6274 0 60 0Z" fill="#8DFCF1"/>
<path d="M40 46C47.732 46 54 39.732 54 32C54 24.268 47.732 18 40 18C32.268 18 26 24.268 26 32C26 39.732 32.268 46 40 46Z" fill="#397BFF"/>
<path d="M54.0002 32C54.0002 35.86 52.4302 39.36 49.9002 41.9C48.5302 43.26 46.8802 44.35 45.0502 45.05C45.6702 43.48 46.0002 41.78 46.0002 40C46.0002 36.14 44.4302 32.64 41.9002 30.1C39.3602 27.57 35.8602 26 32.0002 26C30.2202 26 28.5202 26.33 26.9502 26.95C28.9702 21.71 34.0502 18 40.0002 18C43.8602 18 47.3602 19.57 49.9002 22.1C52.4302 24.64 54.0002 28.14 54.0002 32Z" fill="#397BFF"/>
<path d="M46 40C46 41.78 45.67 43.48 45.05 45.05C43.48 45.67 41.78 46 40 46H26V32C26 30.22 26.33 28.52 26.95 26.95C28.52 26.33 30.22 26 32 26C35.86 26 39.36 27.57 41.9 30.1C44.43 32.64 46 36.14 46 40Z" fill="url(#paint0_linear_66_5089)"/>
<path d="M45.05 45.0499C44.35 46.8799 43.26 48.53 41.9 49.9C39.36 52.43 35.86 54 32 54H18V40C18 34.05 21.71 28.97 26.95 26.95C26.33 28.52 26 30.22 26 32V46H40C41.78 46 43.48 45.67 45.05 45.0499Z" fill="#8DFCF1"/>
</g>
<defs>
<linearGradient id="paint0_linear_66_5089" x1="23.444" y1="51.596" x2="43.865" y2="26.231" gradientUnits="userSpaceOnUse">
<stop offset="0.15" stop-color="#397BFF"/>
<stop offset="0.85" stop-color="#8DFCF1"/>
</linearGradient>
<clipPath id="clip0_66_5089">
<rect width="72" height="72" fill="white"/>
</clipPath>
</defs>
</svg>
