<svg width="200" height="200" viewBox="0 0 200 200" fill="none" xmlns="http://www.w3.org/2000/svg">
<g clip-path="url(#clip0_66_4752)">
<path d="M166.667 2.50098H33.3332C16.305 2.50098 2.50098 16.305 2.50098 33.3332V166.667C2.50098 183.695 16.305 197.499 33.3332 197.499H166.667C183.695 197.499 197.499 183.695 197.499 166.667V33.3332C197.499 16.305 183.695 2.50098 166.667 2.50098Z" fill="#1C1B1C"/>
<path d="M166.667 4.99997C182.29 4.99997 195 17.7103 195 33.3333V166.667C195 182.29 182.29 195 166.667 195H33.3333C17.7104 195 5.00014 182.29 5.00014 166.667V33.3333C5.00014 17.7103 17.7104 4.99997 33.3333 4.99997H166.667ZM166.667 0H33.3333C14.9238 0 0 14.9239 0 33.3333V166.667C0 185.076 14.9238 200 33.3333 200H166.667C185.076 200 200 185.076 200 166.667V33.3333C200 14.9239 185.076 0 166.667 0Z" fill="#8DFCF1"/>
<path d="M111.111 127.778C132.589 127.778 150 110.367 150 88.8889C150 67.4111 132.589 50 111.111 50C89.6333 50 72.2222 67.4111 72.2222 88.8889C72.2222 110.367 89.6333 127.778 111.111 127.778Z" fill="#397BFF"/>
<path d="M150 88.8889C150 99.6111 145.639 109.333 138.611 116.389C134.806 120.167 130.222 123.194 125.139 125.139C126.861 120.778 127.778 116.056 127.778 111.111C127.778 100.389 123.417 90.6667 116.389 83.6111C109.334 76.5833 99.6113 72.2222 88.8891 72.2222C83.9447 72.2222 79.2224 73.1389 74.8613 74.8611C80.4724 60.3056 94.5835 50 111.111 50C121.834 50 131.556 54.3611 138.611 61.3889C145.639 68.4444 150 78.1667 150 88.8889Z" fill="#397BFF"/>
<path d="M127.778 111.111C127.778 116.056 126.861 120.778 125.139 125.139C120.778 126.861 116.056 127.778 111.111 127.778H72.2222V88.8888C72.2222 83.9444 73.1388 79.2222 74.8611 74.8611C79.2222 73.1388 83.9444 72.2222 88.8888 72.2222C99.6111 72.2222 109.333 76.5833 116.389 83.6111C123.417 90.6666 127.778 100.389 127.778 111.111Z" fill="url(#paint0_linear_66_4752)"/>
<path d="M125.139 125.139C123.194 130.222 120.167 134.806 116.389 138.611C109.333 145.639 99.6111 150 88.8889 150H50V111.111C50 94.5833 60.3056 80.4722 74.8611 74.8611C73.1389 79.2222 72.2222 83.9444 72.2222 88.8889V127.778H111.111C116.056 127.778 120.778 126.861 125.139 125.139Z" fill="#8DFCF1"/>
</g>
<defs>
<linearGradient id="paint0_linear_66_4752" x1="65.1222" y1="143.322" x2="121.847" y2="72.8638" gradientUnits="userSpaceOnUse">
<stop offset="0.15" stop-color="#397BFF"/>
<stop offset="0.85" stop-color="#8DFCF1"/>
</linearGradient>
<clipPath id="clip0_66_4752">
<rect width="200" height="200" fill="white"/>
</clipPath>
</defs>
</svg>
