<svg width="144" height="144" viewBox="0 0 144 144" fill="none" xmlns="http://www.w3.org/2000/svg">
<g clip-path="url(#clip0_66_4380)">
<path d="M120 1.80078H24C11.7397 1.80078 1.80078 11.7397 1.80078 24V120C1.80078 132.26 11.7397 142.199 24 142.199H120C132.26 142.199 142.199 132.26 142.199 120V24C142.199 11.7397 132.26 1.80078 120 1.80078Z" fill="#1C1B1C"/>
<path d="M120 3.59998C131.249 3.59998 140.4 12.7515 140.4 24V120C140.4 131.249 131.249 140.4 120 140.4H24C12.7515 140.4 3.6001 131.249 3.6001 120V24C3.6001 12.7515 12.7515 3.59998 24 3.59998H120ZM120 0H24C10.7451 0 0 10.7451 0 24V120C0 133.255 10.7451 144 24 144H120C133.255 144 144 133.255 144 120V24C144 10.7451 133.255 0 120 0Z" fill="#8DFCF1"/>
<path d="M60 60C46.746 60 36 70.746 36 84V108H60C73.254 108 84 97.254 84 84C84 70.746 73.254 60 60 60Z" fill="#8DFCF1"/>
<path d="M108 36H52V92H108V36Z" fill="#A97DFF"/>
<path d="M60 60C57.19 60 54.506 60.508 52 61.396V92H82.606C83.494 89.494 84 86.81 84 84C84 70.746 73.254 60 60 60Z" fill="url(#paint0_linear_66_4380)"/>
</g>
<defs>
<linearGradient id="paint0_linear_66_4380" x1="51.818" y1="92.182" x2="76.438" y2="67.562" gradientUnits="userSpaceOnUse">
<stop stop-color="#A97DFF"/>
<stop offset="1" stop-color="#8DFCF1"/>
</linearGradient>
<clipPath id="clip0_66_4380">
<rect width="144" height="144" fill="white"/>
</clipPath>
</defs>
</svg>
