<svg width="200" height="200" viewBox="0 0 200 200" fill="none" xmlns="http://www.w3.org/2000/svg">
<g clip-path="url(#clip0_66_4717)">
<path d="M166.667 2.50098H33.3332C16.305 2.50098 2.50098 16.305 2.50098 33.3332V166.667C2.50098 183.695 16.305 197.499 33.3332 197.499H166.667C183.695 197.499 197.499 183.695 197.499 166.667V33.3332C197.499 16.305 183.695 2.50098 166.667 2.50098Z" fill="#1C1B1C"/>
<path d="M166.667 4.99997C182.29 4.99997 195 17.7104 195 33.3333V166.667C195 182.29 182.29 195 166.667 195H33.3333C17.7104 195 5.00014 182.29 5.00014 166.667V33.3333C5.00014 17.7104 17.7104 4.99997 33.3333 4.99997H166.667ZM166.667 0H33.3333C14.9238 0 0 14.9238 0 33.3333V166.667C0 185.076 14.9238 200 33.3333 200H166.667C185.076 200 200 185.076 200 166.667V33.3333C200 14.9238 185.076 0 166.667 0Z" fill="#8DFCF1"/>
<path d="M83.3333 83.3333C64.925 83.3333 50 98.2583 50 116.667V150H83.3333C101.742 150 116.667 135.075 116.667 116.667C116.667 98.2583 101.742 83.3333 83.3333 83.3333Z" fill="#8DFCF1"/>
<path d="M150 50H72.2222V127.778H150V50Z" fill="#A97DFF"/>
<path d="M83.3333 83.3333C79.4305 83.3333 75.7027 84.0388 72.2222 85.2721V127.778H114.731C115.964 124.297 116.667 120.569 116.667 116.667C116.667 98.2583 101.742 83.3333 83.3333 83.3333Z" fill="url(#paint0_linear_66_4717)"/>
</g>
<defs>
<linearGradient id="paint0_linear_66_4717" x1="71.9694" y1="128.03" x2="106.164" y2="93.836" gradientUnits="userSpaceOnUse">
<stop stop-color="#A97DFF"/>
<stop offset="1" stop-color="#8DFCF1"/>
</linearGradient>
<clipPath id="clip0_66_4717">
<rect width="200" height="200" fill="white"/>
</clipPath>
</defs>
</svg>
