<svg width="48" height="48" viewBox="0 0 48 48" fill="none" xmlns="http://www.w3.org/2000/svg">
<g clip-path="url(#clip0_66_5404)">
<path d="M39.9998 0.600342H7.99984C3.91307 0.600342 0.600098 3.91332 0.600098 8.00008V40.0001C0.600098 44.0868 3.91307 47.3998 7.99984 47.3998H39.9998C44.0866 47.3998 47.3996 44.0868 47.3996 40.0001V8.00008C47.3996 3.91332 44.0866 0.600342 39.9998 0.600342Z" fill="#1C1B1C"/>
<path d="M40 1.19999C43.7495 1.19999 46.8 4.25049 46.8 8V40C46.8 43.7495 43.7495 46.8 40 46.8H8C4.25049 46.8 1.20003 43.7495 1.20003 40V8C1.20003 4.25049 4.25049 1.19999 8 1.19999H40ZM40 0H8C3.58171 0 0 3.58171 0 8V40C0 44.4183 3.58171 48 8 48H40C44.4183 48 48 44.4183 48 40V8C48 3.58171 44.4183 0 40 0Z" fill="#8DFCF1"/>
<path d="M20 20C15.582 20 12 23.582 12 28V36H20C24.418 36 28 32.418 28 28C28 23.582 24.418 20 20 20Z" fill="#8DFCF1"/>
<path d="M36.0002 12H17.3335V30.6667H36.0002V12Z" fill="#A97DFF"/>
<path d="M20.0002 20C19.0635 20 18.1688 20.1693 17.3335 20.4653V30.6667H27.5355C27.8315 29.8313 28.0002 28.9367 28.0002 28C28.0002 23.582 24.4182 20 20.0002 20Z" fill="url(#paint0_linear_66_5404)"/>
</g>
<defs>
<linearGradient id="paint0_linear_66_5404" x1="17.2728" y1="30.7273" x2="25.4795" y2="22.5207" gradientUnits="userSpaceOnUse">
<stop stop-color="#A97DFF"/>
<stop offset="1" stop-color="#8DFCF1"/>
</linearGradient>
<clipPath id="clip0_66_5404">
<rect width="48" height="48" fill="white"/>
</clipPath>
</defs>
</svg>
