<svg width="144" height="144" viewBox="0 0 144 144" fill="none" xmlns="http://www.w3.org/2000/svg">
<g clip-path="url(#clip0_66_4415)">
<path d="M120 1.80078H24C11.7397 1.80078 1.80078 11.7397 1.80078 24V120C1.80078 132.26 11.7397 142.199 24 142.199H120C132.26 142.199 142.199 132.26 142.199 120V24C142.199 11.7397 132.26 1.80078 120 1.80078Z" fill="#1C1B1C"/>
<path d="M120 3.59998C131.249 3.59998 140.4 12.7514 140.4 24V120C140.4 131.249 131.249 140.4 120 140.4H24C12.7515 140.4 3.6001 131.249 3.6001 120V24C3.6001 12.7514 12.7515 3.59998 24 3.59998H120ZM120 0H24C10.7451 0 0 10.7452 0 24V120C0 133.255 10.7451 144 24 144H120C133.255 144 144 133.255 144 120V24C144 10.7452 133.255 0 120 0Z" fill="#8DFCF1"/>
<path d="M80 92C95.464 92 108 79.464 108 64C108 48.536 95.464 36 80 36C64.536 36 52 48.536 52 64C52 79.464 64.536 92 80 92Z" fill="#397BFF"/>
<path d="M108 64C108 71.72 104.86 78.72 99.7999 83.8C97.0599 86.52 93.7599 88.7 90.0999 90.1C91.3399 86.96 91.9999 83.56 91.9999 80C91.9999 72.28 88.8599 65.28 83.7999 60.2C78.7199 55.14 71.7199 52 63.9999 52C60.4399 52 57.0399 52.66 53.8999 53.9C57.9399 43.42 68.0999 36 79.9999 36C87.7199 36 94.7199 39.14 99.7999 44.2C104.86 49.28 108 56.28 108 64Z" fill="#397BFF"/>
<path d="M92 80C92 83.56 91.34 86.96 90.1 90.1C86.96 91.34 83.56 92 80 92H52V64C52 60.44 52.66 57.04 53.9 53.9C57.04 52.66 60.44 52 64 52C71.72 52 78.72 55.14 83.8 60.2C88.86 65.28 92 72.28 92 80Z" fill="url(#paint0_linear_66_4415)"/>
<path d="M90.1 90.0999C88.7 93.7599 86.52 97.0599 83.8 99.7999C78.72 104.86 71.72 108 64 108H36V79.9999C36 68.0999 43.42 57.9399 53.9 53.8999C52.66 57.0399 52 60.4399 52 63.9999V91.9999H80C83.56 91.9999 86.96 91.3399 90.1 90.0999Z" fill="#8DFCF1"/>
</g>
<defs>
<linearGradient id="paint0_linear_66_4415" x1="46.888" y1="103.192" x2="87.73" y2="52.462" gradientUnits="userSpaceOnUse">
<stop offset="0.15" stop-color="#397BFF"/>
<stop offset="0.85" stop-color="#8DFCF1"/>
</linearGradient>
<clipPath id="clip0_66_4415">
<rect width="144" height="144" fill="white"/>
</clipPath>
</defs>
</svg>
