<svg width="48" height="48" viewBox="0 0 48 48" fill="none" xmlns="http://www.w3.org/2000/svg">
<g clip-path="url(#clip0_66_5439)">
<path d="M39.9998 0.600342H7.99984C3.91307 0.600342 0.600098 3.91332 0.600098 8.00008V40.0001C0.600098 44.0868 3.91307 47.3998 7.99984 47.3998H39.9998C44.0866 47.3998 47.3996 44.0868 47.3996 40.0001V8.00008C47.3996 3.91332 44.0866 0.600342 39.9998 0.600342Z" fill="#1C1B1C"/>
<path d="M40 1.19999C43.7495 1.19999 46.8 4.25047 46.8 8V40C46.8 43.7495 43.7495 46.8 40 46.8H8C4.25049 46.8 1.20003 43.7495 1.20003 40V8C1.20003 4.25047 4.25049 1.19999 8 1.19999H40ZM40 0H8C3.58171 0 0 3.58173 0 8V40C0 44.4183 3.58171 48 8 48H40C44.4183 48 48 44.4183 48 40V8C48 3.58173 44.4183 0 40 0Z" fill="#8DFCF1"/>
<path d="M26.6668 30.6667C31.8215 30.6667 36.0002 26.488 36.0002 21.3333C36.0002 16.1787 31.8215 12 26.6668 12C21.5122 12 17.3335 16.1787 17.3335 21.3333C17.3335 26.488 21.5122 30.6667 26.6668 30.6667Z" fill="#397BFF"/>
<path d="M36.0001 21.3333C36.0001 23.9067 34.9535 26.24 33.2668 27.9333C32.3535 28.84 31.2535 29.5667 30.0335 30.0333C30.4468 28.9867 30.6668 27.8533 30.6668 26.6667C30.6668 24.0933 29.6201 21.76 27.9335 20.0667C26.2401 18.38 23.9068 17.3333 21.3335 17.3333C20.1468 17.3333 19.0135 17.5533 17.9668 17.9667C19.3135 14.4733 22.7001 12 26.6668 12C29.2401 12 31.5735 13.0467 33.2668 14.7333C34.9535 16.4267 36.0001 18.76 36.0001 21.3333Z" fill="#397BFF"/>
<path d="M30.6668 26.6666C30.6668 27.8533 30.4468 28.9866 30.0335 30.0333C28.9868 30.4466 27.8535 30.6666 26.6668 30.6666H17.3335V21.3333C17.3335 20.1466 17.5535 19.0133 17.9668 17.9666C19.0135 17.5533 20.1468 17.3333 21.3335 17.3333C23.9068 17.3333 26.2402 18.3799 27.9335 20.0666C29.6202 21.7599 30.6668 24.0933 30.6668 26.6666Z" fill="url(#paint0_linear_66_5439)"/>
<path d="M30.0333 30.0332C29.5667 31.2532 28.84 32.3532 27.9333 33.2666C26.24 34.9532 23.9067 35.9999 21.3333 35.9999H12V26.6666C12 22.6999 14.4733 19.3132 17.9667 17.9666C17.5533 19.0132 17.3333 20.1466 17.3333 21.3332V30.6666H26.6667C27.8533 30.6666 28.9867 30.4466 30.0333 30.0332Z" fill="#8DFCF1"/>
</g>
<defs>
<linearGradient id="paint0_linear_66_5439" x1="15.6295" y1="34.3973" x2="29.2435" y2="17.4873" gradientUnits="userSpaceOnUse">
<stop offset="0.15" stop-color="#397BFF"/>
<stop offset="0.85" stop-color="#8DFCF1"/>
</linearGradient>
<clipPath id="clip0_66_5439">
<rect width="48" height="48" fill="white"/>
</clipPath>
</defs>
</svg>
