<svg width="200" height="200" viewBox="0 0 200 200" fill="none" xmlns="http://www.w3.org/2000/svg">
<g clip-path="url(#clip0_66_4820)">
<path d="M166.667 2.5H33.3333C16.3046 2.5 2.5 16.3046 2.5 33.3333V166.667C2.5 183.695 16.3046 197.5 33.3333 197.5H166.667C183.695 197.5 197.5 183.695 197.5 166.667V33.3333C197.5 16.3046 183.695 2.5 166.667 2.5Z" fill="#1C1B1C"/>
<path d="M166.667 5C182.289 5 195 17.7111 195 33.3333V166.667C195 182.289 182.289 195 166.667 195H33.3333C17.7111 195 5 182.289 5 166.667V33.3333C5 17.7111 17.7111 5 33.3333 5H166.667ZM166.667 0H33.3333C14.925 0 0 14.925 0 33.3333V166.667C0 185.075 14.925 200 33.3333 200H166.667C185.075 200 200 185.075 200 166.667V33.3333C200 14.925 185.075 0 166.667 0Z" fill="#A97DFF"/>
<path d="M133.333 100C133.333 102.556 133.055 105.056 132.472 107.472C130.083 108.056 127.583 108.333 125 108.333C106.583 108.333 91.6665 93.4167 91.6665 75.0001C91.6665 72.4167 91.9443 69.9167 92.5276 67.5279C94.9443 66.9445 97.4443 66.6667 99.9998 66.6667C118.389 66.6667 133.333 81.6112 133.333 100Z" fill="#A97DFF"/>
<path d="M158.334 75.0001C158.334 83.5001 155.167 91.2779 149.917 97.139C148.472 71.8334 128.167 51.5279 102.861 50.0834C108.722 44.8334 116.5 41.6667 125 41.6667C143.417 41.6667 158.334 56.5834 158.334 75.0001Z" fill="#A97DFF"/>
<path d="M142.278 126.556C147.139 118.861 150 109.778 150 100C150 99.0278 149.972 98.0833 149.917 97.1389C145.389 102.222 139.333 105.917 132.472 107.472C129.083 122.278 115.833 133.333 100 133.333C81.6111 133.333 66.6667 118.389 66.6667 100C66.6667 84.1667 77.7222 70.9167 92.5278 67.5278C94.0833 60.6667 97.7778 54.6111 102.861 50.0833C101.917 50.0278 100.972 50 100 50C72.4167 50 50 72.4167 50 100C50 127.583 72.4167 150 100 150C109.778 150 118.861 147.139 126.556 142.278L142.139 157.861L157.861 142.139L142.278 126.556Z" fill="#FFF6B6"/>
<path d="M149.917 97.139C145.389 102.222 139.333 105.917 132.472 107.472C133.056 105.056 133.333 102.556 133.333 100C133.333 81.6113 118.389 66.6668 100 66.6668C97.4445 66.6668 94.9445 66.9446 92.5278 67.5279C94.0834 60.6668 97.7778 54.6113 102.861 50.0835C128.167 51.5279 148.472 71.8335 149.917 97.139Z" fill="url(#paint0_linear_66_4820)"/>
</g>
<defs>
<linearGradient id="paint0_linear_66_4820" x1="116.133" y1="83.4085" x2="137.467" y2="63.1779" gradientUnits="userSpaceOnUse">
<stop offset="0.21" stop-color="#FFF6B6"/>
<stop offset="0.96" stop-color="#A97DFF"/>
</linearGradient>
<clipPath id="clip0_66_4820">
<rect width="200" height="200" fill="white"/>
</clipPath>
</defs>
</svg>
