<svg width="48" height="48" viewBox="0 0 48 48" fill="none" xmlns="http://www.w3.org/2000/svg">
<g clip-path="url(#clip0_66_5507)">
<path d="M40.0001 0.600098H8.0001C3.91319 0.600098 0.600098 3.91319 0.600098 8.0001V40.0001C0.600098 44.087 3.91319 47.4001 8.0001 47.4001H40.0001C44.087 47.4001 47.4001 44.087 47.4001 40.0001V8.0001C47.4001 3.91319 44.087 0.600098 40.0001 0.600098Z" fill="#1C1B1C"/>
<path d="M40 1.2C43.7493 1.2 46.8 4.25067 46.8 8V40C46.8 43.7493 43.7493 46.8 40 46.8H8C4.25067 46.8 1.2 43.7493 1.2 40V8C1.2 4.25067 4.25067 1.2 8 1.2H40ZM40 0H8C3.582 0 0 3.582 0 8V40C0 44.418 3.582 48 8 48H40C44.418 48 48 44.418 48 40V8C48 3.582 44.418 0 40 0Z" fill="#A97DFF"/>
<path d="M32 24C32 24.6133 31.9333 25.2133 31.7933 25.7933C31.22 25.9333 30.62 26 30 26C25.58 26 22 22.42 22 18C22 17.38 22.0667 16.78 22.2067 16.2067C22.7867 16.0667 23.3867 16 24 16C28.4133 16 32 19.5867 32 24Z" fill="#A97DFF"/>
<path d="M37.9999 18C37.9999 20.04 37.2399 21.9067 35.9799 23.3133C35.6332 17.24 30.7599 12.3667 24.6865 12.02C26.0932 10.76 27.9599 10 29.9999 10C34.4199 10 37.9999 13.58 37.9999 18Z" fill="#A97DFF"/>
<path d="M34.1467 30.3733C35.3133 28.5267 36 26.3467 36 24C36 23.7667 35.9933 23.54 35.98 23.3133C34.8933 24.5333 33.44 25.42 31.7933 25.7933C30.98 29.3467 27.8 32 24 32C19.5867 32 16 28.4133 16 24C16 20.2 18.6533 17.02 22.2067 16.2067C22.58 14.56 23.4667 13.1067 24.6867 12.02C24.46 12.0067 24.2333 12 24 12C17.38 12 12 17.38 12 24C12 30.62 17.38 36 24 36C26.3467 36 28.5267 35.3133 30.3733 34.1467L34.1133 37.8867L37.8867 34.1133L34.1467 30.3733Z" fill="#FFF6B6"/>
<path d="M35.9799 23.3134C34.8932 24.5334 33.4399 25.42 31.7932 25.7934C31.9332 25.2134 31.9999 24.6134 31.9999 24C31.9999 19.5867 28.4132 16 23.9999 16C23.3865 16 22.7865 16.0667 22.2065 16.2067C22.5799 14.56 23.4665 13.1067 24.6865 12.02C30.7599 12.3667 35.6332 17.24 35.9799 23.3134Z" fill="url(#paint0_linear_66_5507)"/>
</g>
<defs>
<linearGradient id="paint0_linear_66_5507" x1="27.8719" y1="20.018" x2="32.9919" y2="15.1627" gradientUnits="userSpaceOnUse">
<stop offset="0.21" stop-color="#FFF6B6"/>
<stop offset="0.96" stop-color="#A97DFF"/>
</linearGradient>
<clipPath id="clip0_66_5507">
<rect width="48" height="48" fill="white"/>
</clipPath>
</defs>
</svg>
