<svg width="144" height="144" viewBox="0 0 144 144" fill="none" xmlns="http://www.w3.org/2000/svg">
<g clip-path="url(#clip0_66_4483)">
<path d="M120 1.80005H23.9998C11.7391 1.80005 1.7998 11.7393 1.7998 24V120C1.7998 132.261 11.7391 142.2 23.9998 142.2H120C132.261 142.2 142.2 132.261 142.2 120V24C142.2 11.7393 132.261 1.80005 120 1.80005Z" fill="#1C1B1C"/>
<path d="M120 3.6C131.248 3.6 140.4 12.752 140.4 24V120C140.4 131.248 131.248 140.4 120 140.4H24C12.752 140.4 3.6 131.248 3.6 120V24C3.6 12.752 12.752 3.6 24 3.6H120ZM120 0H24C10.746 0 0 10.746 0 24V120C0 133.254 10.746 144 24 144H120C133.254 144 144 133.254 144 120V24C144 10.746 133.254 0 120 0Z" fill="#A97DFF"/>
<path d="M96 72C96 73.84 95.8 75.64 95.38 77.38C93.66 77.8 91.86 78 90 78C76.74 78 66 67.26 66 54C66 52.14 66.2 50.34 66.62 48.62C68.36 48.2 70.16 48 72 48C85.24 48 96 58.76 96 72Z" fill="#A97DFF"/>
<path d="M114 54C114 60.12 111.72 65.72 107.94 69.94C106.9 51.72 92.2801 37.1 74.0601 36.06C78.2801 32.28 83.8801 30 90.0001 30C103.26 30 114 40.74 114 54Z" fill="#A97DFF"/>
<path d="M102.44 91.12C105.94 85.58 108 79.04 108 72C108 71.3 107.98 70.62 107.94 69.94C104.68 73.6 100.32 76.26 95.38 77.38C92.94 88.04 83.4 96 72 96C58.76 96 48 85.24 48 72C48 60.6 55.96 51.06 66.62 48.62C67.74 43.68 70.4 39.32 74.06 36.06C73.38 36.02 72.7 36 72 36C52.14 36 36 52.14 36 72C36 91.86 52.14 108 72 108C79.04 108 85.58 105.94 91.12 102.44L102.34 113.66L113.66 102.34L102.44 91.12Z" fill="#FFF6B6"/>
<path d="M107.94 69.9401C104.68 73.6001 100.32 76.2601 95.3801 77.3801C95.8001 75.6401 96.0001 73.8401 96.0001 72.0001C96.0001 58.7601 85.2401 48.0001 72.0001 48.0001C70.1601 48.0001 68.3601 48.2001 66.6201 48.6201C67.7401 43.6801 70.4001 39.3201 74.0601 36.0601C92.2801 37.1001 106.9 51.7201 107.94 69.9401Z" fill="url(#paint0_linear_66_4483)"/>
</g>
<defs>
<linearGradient id="paint0_linear_66_4483" x1="83.6161" y1="60.0541" x2="98.9761" y2="45.4881" gradientUnits="userSpaceOnUse">
<stop offset="0.21" stop-color="#FFF6B6"/>
<stop offset="0.96" stop-color="#A97DFF"/>
</linearGradient>
<clipPath id="clip0_66_4483">
<rect width="144" height="144" fill="white"/>
</clipPath>
</defs>
</svg>
