<svg width="72" height="72" viewBox="0 0 72 72" fill="none" xmlns="http://www.w3.org/2000/svg">
<g clip-path="url(#clip0_66_5157)">
<path d="M59.9999 0.899902H11.9999C5.86954 0.899902 0.899902 5.86954 0.899902 11.9999V59.9999C0.899902 66.1303 5.86954 71.0999 11.9999 71.0999H59.9999C66.1303 71.0999 71.0999 66.1303 71.0999 59.9999V11.9999C71.0999 5.86954 66.1303 0.899902 59.9999 0.899902Z" fill="#1C1B1C"/>
<path d="M60 1.8C65.624 1.8 70.2 6.376 70.2 12V60C70.2 65.624 65.624 70.2 60 70.2H12C6.376 70.2 1.8 65.624 1.8 60V12C1.8 6.376 6.376 1.8 12 1.8H60ZM60 0H12C5.373 0 0 5.373 0 12V60C0 66.627 5.373 72 12 72H60C66.627 72 72 66.627 72 60V12C72 5.373 66.627 0 60 0Z" fill="#A97DFF"/>
<path d="M48 36C48 36.92 47.9 37.82 47.69 38.69C46.83 38.9 45.93 39 45 39C38.37 39 33 33.63 33 27C33 26.07 33.1 25.17 33.31 24.31C34.18 24.1 35.08 24 36 24C42.62 24 48 29.38 48 36Z" fill="#A97DFF"/>
<path d="M56.9998 27C56.9998 30.06 55.8598 32.86 53.9698 34.97C53.4498 25.86 46.1398 18.55 37.0298 18.03C39.1398 16.14 41.9398 15 44.9998 15C51.6298 15 56.9998 20.37 56.9998 27Z" fill="#A97DFF"/>
<path d="M51.22 45.56C52.97 42.79 54 39.52 54 36C54 35.65 53.99 35.31 53.97 34.97C52.34 36.8 50.16 38.13 47.69 38.69C46.47 44.02 41.7 48 36 48C29.38 48 24 42.62 24 36C24 30.3 27.98 25.53 33.31 24.31C33.87 21.84 35.2 19.66 37.03 18.03C36.69 18.01 36.35 18 36 18C26.07 18 18 26.07 18 36C18 45.93 26.07 54 36 54C39.52 54 42.79 52.97 45.56 51.22L51.17 56.83L56.83 51.17L51.22 45.56Z" fill="#FFF6B6"/>
<path d="M53.9701 34.97C52.3401 36.8 50.1601 38.13 47.6901 38.69C47.9001 37.82 48.0001 36.92 48.0001 36C48.0001 29.38 42.6201 24 36.0001 24C35.0801 24 34.1801 24.1 33.3101 24.31C33.8701 21.84 35.2001 19.66 37.0301 18.03C46.1401 18.55 53.4501 25.86 53.9701 34.97Z" fill="url(#paint0_linear_66_5157)"/>
</g>
<defs>
<linearGradient id="paint0_linear_66_5157" x1="41.8081" y1="30.027" x2="49.4881" y2="22.744" gradientUnits="userSpaceOnUse">
<stop offset="0.21" stop-color="#FFF6B6"/>
<stop offset="0.96" stop-color="#A97DFF"/>
</linearGradient>
<clipPath id="clip0_66_5157">
<rect width="72" height="72" fill="white"/>
</clipPath>
</defs>
</svg>
