<svg width="24" height="24" viewBox="0 0 24 24" fill="none" xmlns="http://www.w3.org/2000/svg">
<g clip-path="url(#clip0_71_2076)">
<path d="M19.9998 0.300049H3.9998C1.95635 0.300049 0.299805 1.9566 0.299805 4.00005V20C0.299805 22.0435 1.95635 23.7 3.9998 23.7H19.9998C22.0433 23.7 23.6998 22.0435 23.6998 20V4.00005C23.6998 1.9566 22.0433 0.300049 19.9998 0.300049Z" fill="#1C1B1C"/>
<path d="M20 0.6C21.8747 0.6 23.4 2.12533 23.4 4V20C23.4 21.8747 21.8747 23.4 20 23.4H4C2.12533 23.4 0.6 21.8747 0.6 20V4C0.6 2.12533 2.12533 0.6 4 0.6H20ZM20 0H4C1.791 0 0 1.791 0 4V20C0 22.209 1.791 24 4 24H20C22.209 24 24 22.209 24 20V4C24 1.791 22.209 0 20 0Z" fill="#A97DFF"/>
<path d="M16 12C16 12.3067 15.9667 12.6067 15.8967 12.8967C15.61 12.9667 15.31 13 15 13C12.79 13 11 11.21 11 9C11 8.69 11.0333 8.39 11.1033 8.10333C11.3933 8.03333 11.6933 8 12 8C14.2067 8 16 9.79333 16 12Z" fill="#A97DFF"/>
<path d="M18.9999 9C18.9999 10.02 18.6199 10.9533 17.9899 11.6567C17.8166 8.62 15.3799 6.18333 12.3433 6.01C13.0466 5.38 13.9799 5 14.9999 5C17.2099 5 18.9999 6.79 18.9999 9Z" fill="#A97DFF"/>
<path d="M17.0733 15.1867C17.6567 14.2633 18 13.1733 18 12C18 11.8833 17.9967 11.77 17.99 11.6567C17.4467 12.2667 16.72 12.71 15.8967 12.8967C15.49 14.6733 13.9 16 12 16C9.79333 16 8 14.2067 8 12C8 10.1 9.32667 8.51 11.1033 8.10333C11.29 7.28 11.7333 6.55333 12.3433 6.01C12.23 6.00333 12.1167 6 12 6C8.69 6 6 8.69 6 12C6 15.31 8.69 18 12 18C13.1733 18 14.2633 17.6567 15.1867 17.0733L17.0567 18.9433L18.9433 17.0567L17.0733 15.1867Z" fill="#FFF6B6"/>
<path d="M17.9902 11.6567C17.4468 12.2667 16.7202 12.71 15.8968 12.8967C15.9668 12.6067 16.0002 12.3067 16.0002 12C16.0002 9.79334 14.2068 8.00001 12.0002 8.00001C11.6935 8.00001 11.3935 8.03334 11.1035 8.10334C11.2902 7.28001 11.7335 6.55334 12.3435 6.01001C15.3802 6.18334 17.8168 8.62001 17.9902 11.6567Z" fill="url(#paint0_linear_71_2076)"/>
</g>
<defs>
<linearGradient id="paint0_linear_71_2076" x1="13.9362" y1="10.009" x2="16.4962" y2="7.58134" gradientUnits="userSpaceOnUse">
<stop offset="0.21" stop-color="#FFF6B6"/>
<stop offset="0.96" stop-color="#A97DFF"/>
</linearGradient>
<clipPath id="clip0_71_2076">
<rect width="24" height="24" fill="white"/>
</clipPath>
</defs>
</svg>
