<svg width="72" height="72" viewBox="0 0 72 72" fill="none" xmlns="http://www.w3.org/2000/svg">
<g clip-path="url(#clip0_66_5037)">
<path d="M60 0.900391H12C5.86986 0.900391 0.900391 5.86986 0.900391 12V60C0.900391 66.1301 5.86986 71.0996 12 71.0996H60C66.1301 71.0996 71.0996 66.1301 71.0996 60V12C71.0996 5.86986 66.1301 0.900391 60 0.900391Z" fill="#1C1B1C"/>
<path d="M60 1.79999C65.6243 1.79999 70.2 6.3757 70.2 12V60C70.2 65.6243 65.6243 70.2 60 70.2H12C6.37573 70.2 1.80005 65.6243 1.80005 60V12C1.80005 6.3757 6.37573 1.79999 12 1.79999H60ZM60 0H12C5.37256 0 0 5.37259 0 12V60C0 66.6274 5.37256 72 12 72H60C66.6274 72 72 66.6274 72 60V12C72 5.37259 66.6274 0 60 0Z" fill="#A97DFF"/>
<path d="M25.207 29.999L25.208 29.998H25.207L18 41.999L25.207 54H39.62L46.826 42H32.414L25.207 29.999Z" fill="#A97DFF"/>
<path d="M53.9998 30.001L52.6938 27.827L46.7928 18H34.9958H32.3798L25.1738 30H27.7888H39.5858L45.4868 39.827L46.7928 42.001L46.7918 42.002H46.7928L53.9998 30.001Z" fill="#8DFCF1"/>
<path d="M45.5029 39.825L39.6029 30H27.8069H25.1919V30.001L32.3969 42H46.8079V41.999L45.5029 39.825Z" fill="url(#paint0_linear_66_5037)"/>
</g>
<defs>
<linearGradient id="paint0_linear_66_5037" x1="30.8149" y1="44.411" x2="41.0689" y2="27.776" gradientUnits="userSpaceOnUse">
<stop offset="0.03" stop-color="#8DFCF1"/>
<stop offset="0.699" stop-color="#A97DFF"/>
</linearGradient>
<clipPath id="clip0_66_5037">
<rect width="72" height="72" fill="white"/>
</clipPath>
</defs>
</svg>
