<svg width="144" height="144" viewBox="0 0 144 144" fill="none" xmlns="http://www.w3.org/2000/svg">
<g clip-path="url(#clip0_66_4363)">
<path d="M120 1.80078H24C11.7397 1.80078 1.80078 11.7397 1.80078 24V120C1.80078 132.26 11.7397 142.199 24 142.199H120C132.26 142.199 142.199 132.26 142.199 120V24C142.199 11.7397 132.26 1.80078 120 1.80078Z" fill="#1C1B1C"/>
<path d="M120 3.59998C131.249 3.59998 140.4 12.7514 140.4 24V120C140.4 131.249 131.249 140.4 120 140.4H24C12.7515 140.4 3.6001 131.249 3.6001 120V24C3.6001 12.7514 12.7515 3.59998 24 3.59998H120ZM120 0H24C10.7451 0 0 10.7452 0 24V120C0 133.255 10.7451 144 24 144H120C133.255 144 144 133.255 144 120V24C144 10.7452 133.255 0 120 0Z" fill="#A97DFF"/>
<path d="M50.414 59.998L50.416 59.996H50.414L36 83.998L50.414 108H79.24L93.652 84H64.828L50.414 59.998Z" fill="#A97DFF"/>
<path d="M108 60.002L105.388 55.654L93.5861 36H69.9921H64.7601L50.3481 60H55.5781H79.1721L90.9741 79.654L93.5861 84.002L93.5841 84.004H93.5861L108 60.002Z" fill="#8DFCF1"/>
<path d="M91.0058 79.65L79.2058 60H55.6138H50.3838V60.002L64.7938 84H93.6158V83.998L91.0058 79.65Z" fill="url(#paint0_linear_66_4363)"/>
</g>
<defs>
<linearGradient id="paint0_linear_66_4363" x1="61.6298" y1="88.822" x2="82.1378" y2="55.552" gradientUnits="userSpaceOnUse">
<stop offset="0.03" stop-color="#8DFCF1"/>
<stop offset="0.699" stop-color="#A97DFF"/>
</linearGradient>
<clipPath id="clip0_66_4363">
<rect width="144" height="144" fill="white"/>
</clipPath>
</defs>
</svg>
