<svg width="48" height="48" viewBox="0 0 48 48" fill="none" xmlns="http://www.w3.org/2000/svg">
<g clip-path="url(#clip0_66_5387)">
<path d="M39.9998 0.60022H7.99984C3.91307 0.60022 0.600098 3.9132 0.600098 7.99996V40C0.600098 44.0867 3.91307 47.3997 7.99984 47.3997H39.9998C44.0866 47.3997 47.3996 44.0867 47.3996 40V7.99996C47.3996 3.9132 44.0866 0.60022 39.9998 0.60022Z" fill="#1C1B1C"/>
<path d="M40 1.19999C43.7495 1.19999 46.8 4.25047 46.8 8V40C46.8 43.7495 43.7495 46.8 40 46.8H8C4.25049 46.8 1.20003 43.7495 1.20003 40V8C1.20003 4.25047 4.25049 1.19999 8 1.19999H40ZM40 0H8C3.58171 0 0 3.58173 0 8V40C0 44.4183 3.58171 48 8 48H40C44.4183 48 48 44.4183 48 40V8C48 3.58173 44.4183 0 40 0Z" fill="#A97DFF"/>
<path d="M16.8047 19.9993L16.8053 19.9987H16.8047L12 27.9993L16.8047 36H26.4133L31.2173 28H21.6093L16.8047 19.9993Z" fill="#A97DFF"/>
<path d="M36 20.0007L35.1294 18.5513L31.1954 12H23.3307H21.5867L16.7827 20H18.526H26.3907L30.3247 26.5513L31.1954 28.0007L31.1947 28.0013H31.1954L36 20.0007Z" fill="#8DFCF1"/>
<path d="M30.3351 26.55L26.4018 20H18.5378H16.7944V20.0007L21.5978 28H31.2051V27.9993L30.3351 26.55Z" fill="url(#paint0_linear_66_5387)"/>
</g>
<defs>
<linearGradient id="paint0_linear_66_5387" x1="20.5431" y1="29.6073" x2="27.3791" y2="18.5173" gradientUnits="userSpaceOnUse">
<stop offset="0.03" stop-color="#8DFCF1"/>
<stop offset="0.699" stop-color="#A97DFF"/>
</linearGradient>
<clipPath id="clip0_66_5387">
<rect width="48" height="48" fill="white"/>
</clipPath>
</defs>
</svg>
