<svg width="24" height="24" viewBox="0 0 24 24" fill="none" xmlns="http://www.w3.org/2000/svg">
<g clip-path="url(#clip0_71_1946)">
<path d="M20.0002 0.300171H4.00016C1.95678 0.300171 0.300293 1.95666 0.300293 4.00004V20C0.300293 22.0434 1.95678 23.6999 4.00016 23.6999H20.0002C22.0435 23.6999 23.7 22.0434 23.7 20V4.00004C23.7 1.95666 22.0435 0.300171 20.0002 0.300171Z" fill="#1C1B1C"/>
<path d="M20 0.599997C21.8748 0.599997 23.4 2.12523 23.4 4V20C23.4 21.8748 21.8748 23.4 20 23.4H4C2.12524 23.4 0.600017 21.8748 0.600017 20V4C0.600017 2.12523 2.12524 0.599997 4 0.599997H20ZM20 0H4C1.79085 0 0 1.79086 0 4V20C0 22.2091 1.79085 24 4 24H20C22.2091 24 24 22.2091 24 20V4C24 1.79086 22.2091 0 20 0Z" fill="#A97DFF"/>
<path d="M8.40233 9.99972L8.40267 9.99939H8.40233L6 13.9997L8.40233 18.0001H13.2067L15.6087 14.0001H10.8047L8.40233 9.99972Z" fill="#A97DFF"/>
<path d="M17.9998 10.0003L17.5644 9.27567L15.5974 6H11.6651H10.7931L8.39111 10H9.26278H13.1951L15.1621 13.2757L15.5974 14.0003L15.5971 14.0007H15.5974L17.9998 10.0003Z" fill="#8DFCF1"/>
<path d="M15.1678 13.275L13.2011 10H9.26913H8.39746V10.0003L10.7991 14H15.6028V13.9997L15.1678 13.275Z" fill="url(#paint0_linear_71_1946)"/>
</g>
<defs>
<linearGradient id="paint0_linear_71_1946" x1="10.2718" y1="14.8037" x2="13.6898" y2="9.25867" gradientUnits="userSpaceOnUse">
<stop offset="0.03" stop-color="#8DFCF1"/>
<stop offset="0.699" stop-color="#A97DFF"/>
</linearGradient>
<clipPath id="clip0_71_1946">
<rect width="24" height="24" fill="white"/>
</clipPath>
</defs>
</svg>
