<svg width="200" height="200" viewBox="0 0 200 200" fill="none" xmlns="http://www.w3.org/2000/svg">
<g clip-path="url(#clip0_66_4700)">
<path d="M166.667 2.5011H33.3332C16.305 2.5011 2.50098 16.3052 2.50098 33.3334V166.667C2.50098 183.695 16.305 197.499 33.3332 197.499H166.667C183.695 197.499 197.499 183.695 197.499 166.667V33.3334C197.499 16.3052 183.695 2.5011 166.667 2.5011Z" fill="#1C1B1C"/>
<path d="M166.667 4.99997C182.29 4.99997 195 17.7103 195 33.3333V166.667C195 182.29 182.29 195 166.667 195H33.3333C17.7104 195 5.00014 182.29 5.00014 166.667V33.3333C5.00014 17.7103 17.7104 4.99997 33.3333 4.99997H166.667ZM166.667 0H33.3333C14.9238 0 0 14.9239 0 33.3333V166.667C0 185.076 14.9238 200 33.3333 200H166.667C185.076 200 200 185.076 200 166.667V33.3333C200 14.9239 185.076 0 166.667 0Z" fill="#A97DFF"/>
<path d="M70.0194 83.3305L70.0222 83.3278H70.0194L50 116.664L70.0194 150H110.056L130.072 116.667H90.0389L70.0194 83.3305Z" fill="#A97DFF"/>
<path d="M150 83.3361L146.372 77.2972L129.981 50H97.2111H89.9444L69.9277 83.3333H77.1916H109.961L126.353 110.631L129.981 116.669L129.978 116.672H129.981L150 83.3361Z" fill="#8DFCF1"/>
<path d="M126.397 110.625L110.008 83.3334H77.2414H69.9775V83.3362L89.9914 116.667H130.022V116.664L126.397 110.625Z" fill="url(#paint0_linear_66_4700)"/>
</g>
<defs>
<linearGradient id="paint0_linear_66_4700" x1="85.597" y1="123.364" x2="114.08" y2="77.1556" gradientUnits="userSpaceOnUse">
<stop offset="0.03" stop-color="#8DFCF1"/>
<stop offset="0.699" stop-color="#A97DFF"/>
</linearGradient>
<clipPath id="clip0_66_4700">
<rect width="200" height="200" fill="white"/>
</clipPath>
</defs>
</svg>
