<svg width="200" height="200" viewBox="0 0 200 200" fill="none" xmlns="http://www.w3.org/2000/svg">
<g clip-path="url(#clip0_66_4946)">
<path d="M166.667 2.5H33.3333C16.3046 2.5 2.5 16.3046 2.5 33.3333V166.667C2.5 183.695 16.3046 197.5 33.3333 197.5H166.667C183.695 197.5 197.5 183.695 197.5 166.667V33.3333C197.5 16.3046 183.695 2.5 166.667 2.5Z" fill="#1C1B1C"/>
<path d="M166.667 5C182.289 5 195 17.7111 195 33.3333V166.667C195 182.289 182.289 195 166.667 195H33.3333C17.7111 195 5 182.289 5 166.667V33.3333C5 17.7111 17.7111 5 33.3333 5H166.667ZM166.667 0H33.3333C14.925 0 0 14.925 0 33.3333V166.667C0 185.075 14.925 200 33.3333 200H166.667C185.075 200 200 185.075 200 166.667V33.3333C200 14.925 185.075 0 166.667 0Z" fill="#A97DFF"/>
<path d="M94.4444 105.556H50V150H94.4444V105.556Z" fill="#A97DFF"/>
<path d="M133.333 66.6667H66.6665V133.333H133.333V66.6667Z" fill="#FF996C"/>
<path d="M150 50H105.556V94.4444H150V50Z" fill="#A97DFF"/>
<path d="M133.333 66.6667H105.556V94.4445H133.333V66.6667Z" fill="url(#paint0_linear_66_4946)"/>
<path d="M94.4443 105.556H66.6665V133.333H94.4443V105.556Z" fill="url(#paint1_linear_66_4946)"/>
</g>
<defs>
<linearGradient id="paint0_linear_66_4946" x1="106.116" y1="93.8844" x2="133.135" y2="66.8647" gradientUnits="userSpaceOnUse">
<stop stop-color="#A97DFF"/>
<stop offset="1" stop-color="#FF956C"/>
</linearGradient>
<linearGradient id="paint1_linear_66_4946" x1="67.2267" y1="132.773" x2="94.2463" y2="105.754" gradientUnits="userSpaceOnUse">
<stop stop-color="#FF956C"/>
<stop offset="1" stop-color="#A97DFF"/>
</linearGradient>
<clipPath id="clip0_66_4946">
<rect width="200" height="200" fill="white"/>
</clipPath>
</defs>
</svg>
