<svg width="24" height="24" viewBox="0 0 24 24" fill="none" xmlns="http://www.w3.org/2000/svg">
<g clip-path="url(#clip0_71_2202)">
<path d="M19.9998 0.300049H3.9998C1.95635 0.300049 0.299805 1.9566 0.299805 4.00005V20C0.299805 22.0435 1.95635 23.7 3.9998 23.7H19.9998C22.0433 23.7 23.6998 22.0435 23.6998 20V4.00005C23.6998 1.9566 22.0433 0.300049 19.9998 0.300049Z" fill="#1C1B1C"/>
<path d="M20 0.6C21.8747 0.6 23.4 2.12533 23.4 4V20C23.4 21.8747 21.8747 23.4 20 23.4H4C2.12533 23.4 0.6 21.8747 0.6 20V4C0.6 2.12533 2.12533 0.6 4 0.6H20ZM20 0H4C1.791 0 0 1.791 0 4V20C0 22.209 1.791 24 4 24H20C22.209 24 24 22.209 24 20V4C24 1.791 22.209 0 20 0Z" fill="#A97DFF"/>
<path d="M11.3333 12.6667H6V18.0001H11.3333V12.6667Z" fill="#A97DFF"/>
<path d="M16 8H8V16H16V8Z" fill="#FF996C"/>
<path d="M17.9998 6H12.6665V11.3333H17.9998V6Z" fill="#A97DFF"/>
<path d="M15.9998 8H12.6665V11.3333H15.9998V8Z" fill="url(#paint0_linear_71_2202)"/>
<path d="M11.3333 12.6667H8V16.0001H11.3333V12.6667Z" fill="url(#paint1_linear_71_2202)"/>
</g>
<defs>
<linearGradient id="paint0_linear_71_2202" x1="12.7337" y1="11.2661" x2="15.9761" y2="8.02376" gradientUnits="userSpaceOnUse">
<stop stop-color="#A97DFF"/>
<stop offset="1" stop-color="#FF956C"/>
</linearGradient>
<linearGradient id="paint1_linear_71_2202" x1="8.06722" y1="15.9329" x2="11.3096" y2="12.6905" gradientUnits="userSpaceOnUse">
<stop stop-color="#FF956C"/>
<stop offset="1" stop-color="#A97DFF"/>
</linearGradient>
<clipPath id="clip0_71_2202">
<rect width="24" height="24" fill="white"/>
</clipPath>
</defs>
</svg>
