<svg width="48" height="48" viewBox="0 0 48 48" fill="none" xmlns="http://www.w3.org/2000/svg">
<g clip-path="url(#clip0_66_5675)">
<path d="M40.0001 0.599976H8.0001C3.91319 0.599976 0.600098 3.91307 0.600098 7.99998V40C0.600098 44.0869 3.91319 47.4 8.0001 47.4H40.0001C44.087 47.4 47.4001 44.0869 47.4001 40V7.99998C47.4001 3.91307 44.087 0.599976 40.0001 0.599976Z" fill="#1C1B1C"/>
<path d="M40 1.2C43.7493 1.2 46.8 4.25067 46.8 8V40C46.8 43.7493 43.7493 46.8 40 46.8H8C4.25067 46.8 1.2 43.7493 1.2 40V8C1.2 4.25067 4.25067 1.2 8 1.2H40ZM40 0H8C3.582 0 0 3.582 0 8V40C0 44.418 3.582 48 8 48H40C44.418 48 48 44.418 48 40V8C48 3.582 44.418 0 40 0Z" fill="#397BFF"/>
<path d="M12 34.6667V13.3334H16.5023V21.68H16.5562C17.6346 20.08 19.2522 19.3067 20.9776 19.3067C23.7814 19.3067 26.1538 21.3067 26.1538 25.2267V34.6667H21.6516V27.2C21.6516 25.8667 21.6516 23.5734 19.2791 23.5734C17.9851 23.5734 16.5023 24.2667 16.5023 27.2V34.6667H12Z" fill="#FFF6B6"/>
<path d="M31.5888 34.6667V20.6197C30.7165 21.5735 29.1963 22.5539 28 22.8983V17.9701C30.0436 17.1753 31.6636 15.2676 31.6636 13.3334H36V34.6667H31.5888Z" fill="#397BFF"/>
</g>
<defs>
<clipPath id="clip0_66_5675">
<rect width="48" height="48" fill="white"/>
</clipPath>
</defs>
</svg>
