<svg width="72" height="72" viewBox="0 0 72 72" fill="none" xmlns="http://www.w3.org/2000/svg">
<g clip-path="url(#clip0_66_5325)">
<path d="M60.0004 0.900024H12.0004C5.87003 0.900024 0.900391 5.86966 0.900391 12V60C0.900391 66.1304 5.87003 71.1 12.0004 71.1H60.0004C66.1308 71.1 71.1004 66.1304 71.1004 60V12C71.1004 5.86966 66.1308 0.900024 60.0004 0.900024Z" fill="#1C1B1C"/>
<path d="M60 1.8C65.624 1.8 70.2 6.376 70.2 12V60C70.2 65.624 65.624 70.2 60 70.2H12C6.376 70.2 1.8 65.624 1.8 60V12C1.8 6.376 6.376 1.8 12 1.8H60ZM60 0H12C5.373 0 0 5.373 0 12V60C0 66.627 5.373 72 12 72H60C66.627 72 72 66.627 72 60V12C72 5.373 66.627 0 60 0Z" fill="#397BFF"/>
<path d="M18 52V20H24.7534V32.52H24.8343C26.4519 30.12 28.8782 28.96 31.4664 28.96C35.6721 28.96 39.2308 31.96 39.2308 37.84V52H32.4774V40.8C32.4774 38.8 32.4774 35.36 28.9187 35.36C26.9776 35.36 24.7534 36.4 24.7534 40.8V52H18Z" fill="#FFF6B6"/>
<path d="M47.3832 52V30.9295C46.0748 32.3603 43.7944 33.8308 42 34.3474V26.9551C45.0654 25.7628 47.4953 22.9013 47.4953 20H54V52H47.3832Z" fill="#397BFF"/>
</g>
<defs>
<clipPath id="clip0_66_5325">
<rect width="72" height="72" fill="white"/>
</clipPath>
</defs>
</svg>
