<svg width="24" height="24" viewBox="0 0 24 24" fill="none" xmlns="http://www.w3.org/2000/svg">
<g clip-path="url(#clip0_71_2244)">
<path d="M20.0003 0.300049H4.00029C1.95684 0.300049 0.300293 1.9566 0.300293 4.00005V20C0.300293 22.0435 1.95684 23.7 4.00029 23.7H20.0003C22.0437 23.7 23.7003 22.0435 23.7003 20V4.00005C23.7003 1.9566 22.0437 0.300049 20.0003 0.300049Z" fill="#1C1B1C"/>
<path d="M20 0.6C21.8747 0.6 23.4 2.12533 23.4 4V20C23.4 21.8747 21.8747 23.4 20 23.4H4C2.12533 23.4 0.6 21.8747 0.6 20V4C0.6 2.12533 2.12533 0.6 4 0.6H20ZM20 0H4C1.791 0 0 1.791 0 4V20C0 22.209 1.791 24 4 24H20C22.209 24 24 22.209 24 20V4C24 1.791 22.209 0 20 0Z" fill="#397BFF"/>
<path d="M6 17.3333V6.66663H8.25114V10.84H8.2781C8.81729 10.04 9.62608 9.65329 10.4888 9.65329C11.8907 9.65329 13.0769 10.6533 13.0769 12.6133V17.3333H10.8258V13.6C10.8258 12.9333 10.8258 11.7866 9.63956 11.7866C8.99253 11.7866 8.25114 12.1333 8.25114 13.6V17.3333H6Z" fill="#FFF6B6"/>
<path d="M15.7944 17.3333V10.3098C15.3583 10.7867 14.5981 11.2769 14 11.4491V8.985C15.0218 8.58757 15.8318 7.63372 15.8318 6.66663H18V17.3333H15.7944Z" fill="#397BFF"/>
</g>
<defs>
<clipPath id="clip0_71_2244">
<rect width="24" height="24" fill="white"/>
</clipPath>
</defs>
</svg>
