<svg width="200" height="200" viewBox="0 0 200 200" fill="none" xmlns="http://www.w3.org/2000/svg">
<g clip-path="url(#clip0_66_4988)">
<path d="M166.668 2.50012H33.3343C16.3055 2.50012 2.50098 16.3047 2.50098 33.3335V166.667C2.50098 183.696 16.3055 197.5 33.3343 197.5H166.668C183.696 197.5 197.501 183.696 197.501 166.667V33.3335C197.501 16.3047 183.696 2.50012 166.668 2.50012Z" fill="#1C1B1C"/>
<path d="M166.667 5C182.289 5 195 17.7111 195 33.3333V166.667C195 182.289 182.289 195 166.667 195H33.3333C17.7111 195 5 182.289 5 166.667V33.3333C5 17.7111 17.7111 5 33.3333 5H166.667ZM166.667 0H33.3333C14.925 0 0 14.925 0 33.3333V166.667C0 185.075 14.925 200 33.3333 200H166.667C185.075 200 200 185.075 200 166.667V33.3333C200 14.925 185.075 0 166.667 0Z" fill="#397BFF"/>
<path d="M50 144.444V55.5555H68.7595V90.3333H68.9841C73.4774 83.6666 80.2173 80.4444 87.4066 80.4444C99.0891 80.4444 108.974 88.7778 108.974 105.111V144.444H90.2149V113.333C90.2149 107.778 90.2149 98.2222 80.3297 98.2222C74.9377 98.2222 68.7595 101.111 68.7595 113.333V144.444H50Z" fill="#FFF6B6"/>
<path d="M131.62 144.444V85.9152C127.985 89.8896 121.651 93.9743 116.667 95.4095V74.8753C125.182 71.5634 131.931 63.6147 131.931 55.5555H150V144.444H131.62Z" fill="#397BFF"/>
</g>
<defs>
<clipPath id="clip0_66_4988">
<rect width="200" height="200" fill="white"/>
</clipPath>
</defs>
</svg>
