<svg width="144" height="144" viewBox="0 0 144 144" fill="none" xmlns="http://www.w3.org/2000/svg">
<g clip-path="url(#clip0_66_4651)">
<path d="M120.001 1.80005H24.0008C11.7401 1.80005 1.80078 11.7393 1.80078 24V120C1.80078 132.261 11.7401 142.2 24.0008 142.2H120.001C132.262 142.2 142.201 132.261 142.201 120V24C142.201 11.7393 132.262 1.80005 120.001 1.80005Z" fill="#1C1B1C"/>
<path d="M120 3.6C131.248 3.6 140.4 12.752 140.4 24V120C140.4 131.248 131.248 140.4 120 140.4H24C12.752 140.4 3.6 131.248 3.6 120V24C3.6 12.752 12.752 3.6 24 3.6H120ZM120 0H24C10.746 0 0 10.746 0 24V120C0 133.254 10.746 144 24 144H120C133.254 144 144 133.254 144 120V24C144 10.746 133.254 0 120 0Z" fill="#397BFF"/>
<path d="M36 104V40H49.5068V65.04H49.6686C52.9037 60.24 57.7565 57.92 62.9327 57.92C71.3442 57.92 78.4615 63.92 78.4615 75.68V104H64.9547V81.6C64.9547 77.6 64.9547 70.72 57.8374 70.72C53.9552 70.72 49.5068 72.8 49.5068 81.6V104H36Z" fill="#FFF6B6"/>
<path d="M94.7664 104V61.859C92.1495 64.7205 87.5888 67.6615 84 68.6949V53.9103C90.1308 51.5256 94.9907 45.8026 94.9907 40H108V104H94.7664Z" fill="#397BFF"/>
</g>
<defs>
<clipPath id="clip0_66_4651">
<rect width="144" height="144" fill="white"/>
</clipPath>
</defs>
</svg>
