<svg width="200" height="200" viewBox="0 0 200 200" fill="none" xmlns="http://www.w3.org/2000/svg">
<g clip-path="url(#clip0_66_4910)">
<path d="M166.665 2.49976H33.3331C16.3042 2.49976 2.49951 16.3044 2.49951 33.3334V166.667C2.49951 183.696 16.3042 197.5 33.3331 197.5H166.665C183.694 197.5 197.499 183.696 197.499 166.667V33.3334C197.499 16.3044 183.694 2.49976 166.665 2.49976Z" fill="#1C1B1C"/>
<path d="M166.667 5C182.29 5 195 17.7103 195 33.3333V166.667C195 182.29 182.29 195 166.667 195H33.3333C17.7103 195 5 182.29 5 166.667V33.3333C5 17.7103 17.7103 5 33.3333 5H166.667ZM166.667 0H33.3333C14.9239 0 0 14.9239 0 33.3333V166.667C0 185.076 14.9239 200 33.3333 200H166.667C185.076 200 200 185.076 200 166.667V33.3333C200 14.9239 185.076 0 166.667 0Z" fill="#A97DFF"/>
<path d="M99.9998 158.333C132.216 158.333 158.333 132.217 158.333 100C158.333 67.7835 132.216 41.6667 99.9998 41.6667C67.7832 41.6667 41.6665 67.7835 41.6665 100C41.6665 132.217 67.7832 158.333 99.9998 158.333Z" fill="#A97DFF"/>
<path d="M99.9997 141.667C77.0247 141.667 58.333 122.975 58.333 100C58.333 77.0252 77.0247 58.3335 99.9997 58.3335C122.975 58.3335 141.666 77.0252 141.666 100C141.666 122.975 122.975 141.667 99.9997 141.667ZM99.9997 75.0002C86.2163 75.0002 74.9997 86.2168 74.9997 100C74.9997 113.783 86.2163 125 99.9997 125C113.783 125 125 113.783 125 100C125 86.2168 113.783 75.0002 99.9997 75.0002Z" fill="#FFF6B6"/>
<path d="M99.9998 111.111C106.136 111.111 111.111 106.137 111.111 100C111.111 93.8635 106.136 88.8889 99.9998 88.8889C93.8633 88.8889 88.8887 93.8635 88.8887 100C88.8887 106.137 93.8633 111.111 99.9998 111.111Z" fill="url(#paint0_linear_66_4910)"/>
</g>
<defs>
<linearGradient id="paint0_linear_66_4910" x1="99.9942" y1="83.3278" x2="100.005" y2="113.883" gradientUnits="userSpaceOnUse">
<stop offset="0.21" stop-color="#FFF1B9"/>
<stop offset="0.96" stop-color="#A683F7"/>
</linearGradient>
<clipPath id="clip0_66_4910">
<rect width="200" height="200" fill="white"/>
</clipPath>
</defs>
</svg>
