<svg width="48" height="48" viewBox="0 0 48 48" fill="none" xmlns="http://www.w3.org/2000/svg">
<g clip-path="url(#clip0_66_5597)">
<path d="M39.9998 0.599854H8.00016C3.91322 0.599854 0.600098 3.91298 0.600098 7.99992V39.9999C0.600098 44.0869 3.91322 47.4 8.00016 47.4H39.9998C44.0868 47.4 47.3999 44.0869 47.3999 39.9999V7.99992C47.3999 3.91298 44.0868 0.599854 39.9998 0.599854Z" fill="#1C1B1C"/>
<path d="M40 1.2C43.7495 1.2 46.8 4.25047 46.8 8V40C46.8 43.7495 43.7495 46.8 40 46.8H8C4.25047 46.8 1.2 43.7495 1.2 40V8C1.2 4.25047 4.25047 1.2 8 1.2H40ZM40 0H8C3.58173 0 0 3.58173 0 8V40C0 44.4183 3.58173 48 8 48H40C44.4183 48 48 44.4183 48 40V8C48 3.58173 44.4183 0 40 0Z" fill="#A97DFF"/>
<path d="M24 38C31.732 38 38 31.732 38 24C38 16.268 31.732 10 24 10C16.268 10 10 16.268 10 24C10 31.732 16.268 38 24 38Z" fill="#A97DFF"/>
<path d="M24 34C18.486 34 14 29.514 14 24C14 18.486 18.486 14 24 14C29.514 14 34 18.486 34 24C34 29.514 29.514 34 24 34ZM24 18C20.692 18 18 20.692 18 24C18 27.308 20.692 30 24 30C27.308 30 30 27.308 30 24C30 20.692 27.308 18 24 18Z" fill="#FFF6B6"/>
<path d="M24.0002 26.6666C25.4729 26.6666 26.6668 25.4727 26.6668 23.9999C26.6668 22.5272 25.4729 21.3333 24.0002 21.3333C22.5274 21.3333 21.3335 22.5272 21.3335 23.9999C21.3335 25.4727 22.5274 26.6666 24.0002 26.6666Z" fill="url(#paint0_linear_66_5597)"/>
</g>
<defs>
<linearGradient id="paint0_linear_66_5597" x1="23.9988" y1="19.9986" x2="24.0015" y2="27.3319" gradientUnits="userSpaceOnUse">
<stop offset="0.21" stop-color="#FFF1B9"/>
<stop offset="0.96" stop-color="#A683F7"/>
</linearGradient>
<clipPath id="clip0_66_5597">
<rect width="48" height="48" fill="white"/>
</clipPath>
</defs>
</svg>
