<svg width="72" height="72" viewBox="0 0 72 72" fill="none" xmlns="http://www.w3.org/2000/svg">
<g clip-path="url(#clip0_66_5247)">
<path d="M59.9995 0.899902H12C5.86959 0.899902 0.899902 5.86959 0.899902 12V60C0.899902 66.1304 5.86959 71.1001 12 71.1001H59.9995C66.1299 71.1001 71.0996 66.1304 71.0996 60V12C71.0996 5.86959 66.1299 0.899902 59.9995 0.899902Z" fill="#1C1B1C"/>
<path d="M60 1.8C65.6243 1.8 70.2 6.37571 70.2 12V60C70.2 65.6243 65.6243 70.2 60 70.2H12C6.3757 70.2 1.8 65.6243 1.8 60V12C1.8 6.37571 6.3757 1.8 12 1.8H60ZM60 0H12C5.37259 0 0 5.37259 0 12V60C0 66.6274 5.37259 72 12 72H60C66.6274 72 72 66.6274 72 60V12C72 5.37259 66.6274 0 60 0Z" fill="#A97DFF"/>
<path d="M36 57C47.598 57 57 47.598 57 36C57 24.402 47.598 15 36 15C24.402 15 15 24.402 15 36C15 47.598 24.402 57 36 57Z" fill="#A97DFF"/>
<path d="M36 51C27.729 51 21 44.271 21 36C21 27.729 27.729 21 36 21C44.271 21 51 27.729 51 36C51 44.271 44.271 51 36 51ZM36 27C31.038 27 27 31.038 27 36C27 40.962 31.038 45 36 45C40.962 45 45 40.962 45 36C45 31.038 40.962 27 36 27Z" fill="#FFF6B6"/>
<path d="M36 40C38.2091 40 40 38.2091 40 36C40 33.7909 38.2091 32 36 32C33.7909 32 32 33.7909 32 36C32 38.2091 33.7909 40 36 40Z" fill="url(#paint0_linear_66_5247)"/>
</g>
<defs>
<linearGradient id="paint0_linear_66_5247" x1="35.998" y1="29.998" x2="36.002" y2="40.998" gradientUnits="userSpaceOnUse">
<stop offset="0.21" stop-color="#FFF1B9"/>
<stop offset="0.96" stop-color="#A683F7"/>
</linearGradient>
<clipPath id="clip0_66_5247">
<rect width="72" height="72" fill="white"/>
</clipPath>
</defs>
</svg>
