<svg width="24" height="24" viewBox="0 0 24 24" fill="none" xmlns="http://www.w3.org/2000/svg">
<g clip-path="url(#clip0_71_2166)">
<path d="M19.9997 0.300049H3.99984C1.95637 0.300049 0.299805 1.95661 0.299805 4.00008V20.0001C0.299805 22.0436 1.95637 23.7001 3.99984 23.7001H19.9997C22.0431 23.7001 23.6997 22.0436 23.6997 20.0001V4.00008C23.6997 1.95661 22.0431 0.300049 19.9997 0.300049Z" fill="#1C1B1C"/>
<path d="M20 0.6C21.8748 0.6 23.4 2.12524 23.4 4V20C23.4 21.8748 21.8748 23.4 20 23.4H4C2.12523 23.4 0.6 21.8748 0.6 20V4C0.6 2.12524 2.12523 0.6 4 0.6H20ZM20 0H4C1.79086 0 0 1.79086 0 4V20C0 22.2091 1.79086 24 4 24H20C22.2091 24 24 22.2091 24 20V4C24 1.79086 22.2091 0 20 0Z" fill="#A97DFF"/>
<path d="M12 19C15.866 19 19 15.866 19 12C19 8.13401 15.866 5 12 5C8.13401 5 5 8.13401 5 12C5 15.866 8.13401 19 12 19Z" fill="#A97DFF"/>
<path d="M12 17C9.243 17 7 14.757 7 12C7 9.243 9.243 7 12 7C14.757 7 17 9.243 17 12C17 14.757 14.757 17 12 17ZM12 9C10.346 9 9 10.346 9 12C9 13.654 10.346 15 12 15C13.654 15 15 13.654 15 12C15 10.346 13.654 9 12 9Z" fill="#FFF6B6"/>
<path d="M11.9998 13.3334C12.7362 13.3334 13.3332 12.7365 13.3332 12.0001C13.3332 11.2637 12.7362 10.6667 11.9998 10.6667C11.2635 10.6667 10.6665 11.2637 10.6665 12.0001C10.6665 12.7365 11.2635 13.3334 11.9998 13.3334Z" fill="url(#paint0_linear_71_2166)"/>
</g>
<defs>
<linearGradient id="paint0_linear_71_2166" x1="11.9992" y1="9.99941" x2="12.0005" y2="13.6661" gradientUnits="userSpaceOnUse">
<stop offset="0.21" stop-color="#FFF1B9"/>
<stop offset="0.96" stop-color="#A683F7"/>
</linearGradient>
<clipPath id="clip0_71_2166">
<rect width="24" height="24" fill="white"/>
</clipPath>
</defs>
</svg>
