<svg width="144" height="144" viewBox="0 0 144 144" fill="none" xmlns="http://www.w3.org/2000/svg">
<g clip-path="url(#clip0_66_4573)">
<path d="M119.999 1.7998H24C11.7392 1.7998 1.7998 11.7392 1.7998 24V120C1.7998 132.261 11.7392 142.2 24 142.2H119.999C132.26 142.2 142.199 132.261 142.199 120V24C142.199 11.7392 132.26 1.7998 119.999 1.7998Z" fill="#1C1B1C"/>
<path d="M120 3.6C131.249 3.6 140.4 12.7514 140.4 24V120C140.4 131.249 131.249 140.4 120 140.4H24C12.7514 140.4 3.6 131.249 3.6 120V24C3.6 12.7514 12.7514 3.6 24 3.6H120ZM120 0H24C10.7452 0 0 10.7452 0 24V120C0 133.255 10.7452 144 24 144H120C133.255 144 144 133.255 144 120V24C144 10.7452 133.255 0 120 0Z" fill="#A97DFF"/>
<path d="M72 114C95.196 114 114 95.196 114 72C114 48.804 95.196 30 72 30C48.804 30 30 48.804 30 72C30 95.196 48.804 114 72 114Z" fill="#A97DFF"/>
<path d="M72 102C55.458 102 42 88.542 42 72C42 55.458 55.458 42 72 42C88.542 42 102 55.458 102 72C102 88.542 88.542 102 72 102ZM72 54C62.076 54 54 62.076 54 72C54 81.924 62.076 90 72 90C81.924 90 90 81.924 90 72C90 62.076 81.924 54 72 54Z" fill="#FFF6B6"/>
<path d="M72 80C76.4183 80 80 76.4183 80 72C80 67.5817 76.4183 64 72 64C67.5817 64 64 67.5817 64 72C64 76.4183 67.5817 80 72 80Z" fill="url(#paint0_linear_66_4573)"/>
</g>
<defs>
<linearGradient id="paint0_linear_66_4573" x1="71.996" y1="59.996" x2="72.004" y2="81.996" gradientUnits="userSpaceOnUse">
<stop offset="0.21" stop-color="#FFF1B9"/>
<stop offset="0.96" stop-color="#A683F7"/>
</linearGradient>
<clipPath id="clip0_66_4573">
<rect width="144" height="144" fill="white"/>
</clipPath>
</defs>
</svg>
