<svg width="24" height="24" viewBox="0 0 24 24" fill="none" xmlns="http://www.w3.org/2000/svg">
<g clip-path="url(#clip0_71_2096)">
<path d="M19.9998 0.300049H3.9998C1.95635 0.300049 0.299805 1.9566 0.299805 4.00005V20C0.299805 22.0435 1.95635 23.7 3.9998 23.7H19.9998C22.0433 23.7 23.6998 22.0435 23.6998 20V4.00005C23.6998 1.9566 22.0433 0.300049 19.9998 0.300049Z" fill="#1C1B1C"/>
<path d="M20 0.6C21.8747 0.6 23.4 2.12533 23.4 4V20C23.4 21.8747 21.8747 23.4 20 23.4H4C2.12533 23.4 0.6 21.8747 0.6 20V4C0.6 2.12533 2.12533 0.6 4 0.6H20ZM20 0H4C1.791 0 0 1.791 0 4V20C0 22.209 1.791 24 4 24H20C22.209 24 24 22.209 24 20V4C24 1.791 22.209 0 20 0Z" fill="#8DFCF1"/>
<path d="M13 7.66659V15.3333H6V5.33325H11.8333L13 7.66659Z" fill="#FF996C"/>
<path d="M18 10.9998V18.6665H11V8.6665H16.8333L18 10.9998Z" fill="#8DFCF1"/>
<path fill-rule="evenodd" clip-rule="evenodd" d="M13.0002 15.3332H9.3335L11.0002 11.9998L9.3335 8.6665H13.0002L14.6668 11.9998L13.0002 15.3332Z" fill="url(#paint0_linear_71_2096)"/>
</g>
<defs>
<linearGradient id="paint0_linear_71_2096" x1="9.3335" y1="11.9998" x2="14.6668" y2="11.9998" gradientUnits="userSpaceOnUse">
<stop offset="0.136" stop-color="#8DFCF1"/>
<stop offset="0.942" stop-color="#FF996C"/>
</linearGradient>
<clipPath id="clip0_71_2096">
<rect width="24" height="24" fill="white"/>
</clipPath>
</defs>
</svg>
