<svg width="72" height="72" viewBox="0 0 72 72" fill="none" xmlns="http://www.w3.org/2000/svg">
<g clip-path="url(#clip0_66_5177)">
<path d="M59.9999 0.899902H11.9999C5.86954 0.899902 0.899902 5.86954 0.899902 11.9999V59.9999C0.899902 66.1303 5.86954 71.0999 11.9999 71.0999H59.9999C66.1303 71.0999 71.0999 66.1303 71.0999 59.9999V11.9999C71.0999 5.86954 66.1303 0.899902 59.9999 0.899902Z" fill="#1C1B1C"/>
<path d="M60 1.8C65.624 1.8 70.2 6.376 70.2 12V60C70.2 65.624 65.624 70.2 60 70.2H12C6.376 70.2 1.8 65.624 1.8 60V12C1.8 6.376 6.376 1.8 12 1.8H60ZM60 0H12C5.373 0 0 5.373 0 12V60C0 66.627 5.373 72 12 72H60C66.627 72 72 66.627 72 60V12C72 5.373 66.627 0 60 0Z" fill="#8DFCF1"/>
<path d="M39 23V46H18V16H35.5L39 23Z" fill="#FF996C"/>
<path d="M54 33V56H33V26H50.5L54 33Z" fill="#8DFCF1"/>
<path fill-rule="evenodd" clip-rule="evenodd" d="M39 46H28L33 36L28 26H39L44 36L39 46Z" fill="url(#paint0_linear_66_5177)"/>
</g>
<defs>
<linearGradient id="paint0_linear_66_5177" x1="28" y1="36" x2="44" y2="36" gradientUnits="userSpaceOnUse">
<stop offset="0.136" stop-color="#8DFCF1"/>
<stop offset="0.942" stop-color="#FF996C"/>
</linearGradient>
<clipPath id="clip0_66_5177">
<rect width="72" height="72" fill="white"/>
</clipPath>
</defs>
</svg>
