<svg width="200" height="200" viewBox="0 0 200 200" fill="none" xmlns="http://www.w3.org/2000/svg">
<g clip-path="url(#clip0_66_4840)">
<path d="M166.667 2.5H33.3333C16.3046 2.5 2.5 16.3046 2.5 33.3333V166.667C2.5 183.695 16.3046 197.5 33.3333 197.5H166.667C183.695 197.5 197.5 183.695 197.5 166.667V33.3333C197.5 16.3046 183.695 2.5 166.667 2.5Z" fill="#1C1B1C"/>
<path d="M166.667 5C182.289 5 195 17.7111 195 33.3333V166.667C195 182.289 182.289 195 166.667 195H33.3333C17.7111 195 5 182.289 5 166.667V33.3333C5 17.7111 17.7111 5 33.3333 5H166.667ZM166.667 0H33.3333C14.925 0 0 14.925 0 33.3333V166.667C0 185.075 14.925 200 33.3333 200H166.667C185.075 200 200 185.075 200 166.667V33.3333C200 14.925 185.075 0 166.667 0Z" fill="#8DFCF1"/>
<path d="M108.333 63.8888V127.778H50V44.4443H98.6111L108.333 63.8888Z" fill="#FF996C"/>
<path d="M150 91.6666V155.556H91.6665V72.2222H140.278L150 91.6666Z" fill="#8DFCF1"/>
<path fill-rule="evenodd" clip-rule="evenodd" d="M108.333 127.778H77.7778L91.6667 99.9999L77.7778 72.2222H108.333L122.222 99.9999L108.333 127.778Z" fill="url(#paint0_linear_66_4840)"/>
</g>
<defs>
<linearGradient id="paint0_linear_66_4840" x1="77.7778" y1="99.9999" x2="122.222" y2="99.9999" gradientUnits="userSpaceOnUse">
<stop offset="0.136" stop-color="#8DFCF1"/>
<stop offset="0.942" stop-color="#FF996C"/>
</linearGradient>
<clipPath id="clip0_66_4840">
<rect width="200" height="200" fill="white"/>
</clipPath>
</defs>
</svg>
