<svg width="24" height="24" viewBox="0 0 24 24" fill="none" xmlns="http://www.w3.org/2000/svg">
<path d="M19.9998 0.300049H3.9998C1.95635 0.300049 0.299805 1.9566 0.299805 4.00005V20C0.299805 22.0435 1.95635 23.7 3.99981 23.7H19.9998C22.0433 23.7 23.6998 22.0435 23.6998 20V4.00005C23.6998 1.9566 22.0433 0.300049 19.9998 0.300049Z" fill="#1C1B1C"/>
<path d="M20 0.6C21.8747 0.6 23.4 2.12533 23.4 4V20C23.4 21.8747 21.8747 23.4 20 23.4H4C2.12533 23.4 0.6 21.8747 0.6 20V4C0.6 2.12533 2.12533 0.6 4 0.6H20ZM20 0H4C1.791 0 0 1.791 0 4V20C0 22.209 1.791 24 4 24H20C22.209 24 24 22.209 24 20V4C24 1.791 22.209 0 20 0Z" fill="#397BFF"/>
<path d="M19.6667 8.20435L12.5361 5L7.77402 15.7956L14.9046 19L19.6667 8.20435Z" fill="#397BFF"/>
<path d="M7.77393 5.75098V15.7957L12.2048 5.75098H7.77393Z" fill="url(#paint0_linear_71_2028)"/>
<path d="M4.3335 7.99586L7.77411 15.7957V6.44971L4.3335 7.99586Z" fill="#FFF6B6"/>
<defs>
<linearGradient id="paint0_linear_71_2028" x1="11.8002" y1="14.7178" x2="7.80043" y2="5.73917" gradientUnits="userSpaceOnUse">
<stop stop-color="#FFF3B7"/>
<stop offset="0.97" stop-color="#397BFF"/>
</linearGradient>
</defs>
</svg>
