<svg width="200" height="200" viewBox="0 0 200 200" fill="none" xmlns="http://www.w3.org/2000/svg">
<path d="M166.667 2.50012H33.3333C16.3045 2.50012 2.5 16.3047 2.5 33.3335V166.667C2.5 183.696 16.3046 197.5 33.3334 197.5H166.667C183.696 197.5 197.5 183.696 197.5 166.667V33.3335C197.5 16.3047 183.696 2.50012 166.667 2.50012Z" fill="#1C1B1C"/>
<path d="M166.667 5.00012C182.289 5.00012 195 17.7112 195 33.3335V166.667C195 182.289 182.289 195 166.667 195H33.3333C17.7111 195 5 182.289 5 166.667V33.3335C5 17.7112 17.7111 5.00012 33.3333 5.00012H166.667ZM166.667 0.00012207H33.3333C14.925 0.00012207 0 14.9251 0 33.3335V166.667C0 185.075 14.925 200 33.3333 200H166.667C185.075 200 200 185.075 200 166.667V33.3335C200 14.9251 185.075 0.00012207 166.667 0.00012207Z" fill="#397BFF"/>
<path d="M163.889 68.3696L104.468 41.6666L64.7835 131.63L124.205 158.333L163.889 68.3696Z" fill="#397BFF"/>
<path d="M64.7832 47.9244V131.63L101.707 47.9244H64.7832Z" fill="url(#paint0_linear_66_4782)"/>
<path d="M36.1113 66.6317L64.7831 131.63V53.7471L36.1113 66.6317Z" fill="#FFF6B6"/>
<defs>
<linearGradient id="paint0_linear_66_4782" x1="98.3352" y1="122.648" x2="65.0041" y2="47.826" gradientUnits="userSpaceOnUse">
<stop stop-color="#FFF3B7"/>
<stop offset="0.97" stop-color="#397BFF"/>
</linearGradient>
</defs>
</svg>
