<svg width="144" height="144" viewBox="0 0 144 144" fill="none" xmlns="http://www.w3.org/2000/svg">
<path d="M120 1.80005H23.9998C11.7391 1.80005 1.7998 11.7393 1.7998 24V120C1.7998 132.261 11.7391 142.2 23.9998 142.2H120C132.261 142.2 142.2 132.261 142.2 120V24C142.2 11.7393 132.261 1.80005 120 1.80005Z" fill="#1C1B1C"/>
<path d="M120 3.6C131.248 3.6 140.4 12.752 140.4 24V120C140.4 131.248 131.248 140.4 120 140.4H24C12.752 140.4 3.6 131.248 3.6 120V24C3.6 12.752 12.752 3.6 24 3.6H120ZM120 0H24C10.746 0 0 10.746 0 24V120C0 133.254 10.746 144 24 144H120C133.254 144 144 133.254 144 120V24C144 10.746 133.254 0 120 0Z" fill="#397BFF"/>
<path d="M118 49.2261L75.2168 30L46.6441 94.7739L89.4277 114L118 49.2261Z" fill="#397BFF"/>
<path d="M46.644 34.5056V94.7739L73.2293 34.5056H46.644Z" fill="url(#paint0_linear_66_4445)"/>
<path d="M26 47.9748L46.6437 94.7739V38.6979L26 47.9748Z" fill="#FFF6B6"/>
<defs>
<linearGradient id="paint0_linear_66_4445" x1="70.8015" y1="88.3064" x2="46.8031" y2="34.4348" gradientUnits="userSpaceOnUse">
<stop stop-color="#FFF3B7"/>
<stop offset="0.97" stop-color="#397BFF"/>
</linearGradient>
</defs>
</svg>
