<svg width="48" height="48" viewBox="0 0 48 48" fill="none" xmlns="http://www.w3.org/2000/svg">
<path d="M40.0001 0.599976H8.0001C3.91318 0.599976 0.600098 3.91307 0.600098 7.99998V40C0.600098 44.0869 3.91319 47.4 8.0001 47.4H40.0001C44.087 47.4 47.4001 44.0869 47.4001 40V7.99998C47.4001 3.91307 44.087 0.599976 40.0001 0.599976Z" fill="#1C1B1C"/>
<path d="M40 1.2C43.7493 1.2 46.8 4.25067 46.8 8V40C46.8 43.7493 43.7493 46.8 40 46.8H8C4.25067 46.8 1.2 43.7493 1.2 40V8C1.2 4.25067 4.25067 1.2 8 1.2H40ZM40 0H8C3.582 0 0 3.582 0 8V40C0 44.418 3.582 48 8 48H40C44.418 48 48 44.418 48 40V8C48 3.582 44.418 0 40 0Z" fill="#397BFF"/>
<path d="M39.3335 16.4087L25.0723 10L15.548 31.5913L29.8092 38L39.3335 16.4087Z" fill="#397BFF"/>
<path d="M15.5479 11.5018V31.5913L24.4096 11.5018H15.5479Z" fill="url(#paint0_linear_66_5469)"/>
<path d="M8.6665 15.9916L15.5477 31.5913V12.8993L8.6665 15.9916Z" fill="#FFF6B6"/>
<defs>
<linearGradient id="paint0_linear_66_5469" x1="23.6003" y1="29.4354" x2="15.6009" y2="11.4782" gradientUnits="userSpaceOnUse">
<stop stop-color="#FFF3B7"/>
<stop offset="0.97" stop-color="#397BFF"/>
</linearGradient>
</defs>
</svg>
