<svg width="144" height="144" viewBox="0 0 144 144" fill="none" xmlns="http://www.w3.org/2000/svg">
<g clip-path="url(#clip0_66_4493)">
<path d="M120 1.80005H23.9998C11.7391 1.80005 1.7998 11.7393 1.7998 24V120C1.7998 132.261 11.7391 142.2 23.9998 142.2H120C132.261 142.2 142.2 132.261 142.2 120V24C142.2 11.7393 132.261 1.80005 120 1.80005Z" fill="#1C1B1C"/>
<path d="M120 3.6C131.248 3.6 140.4 12.752 140.4 24V120C140.4 131.248 131.248 140.4 120 140.4H24C12.752 140.4 3.6 131.248 3.6 120V24C3.6 12.752 12.752 3.6 24 3.6H120ZM120 0H24C10.746 0 0 10.746 0 24V120C0 133.254 10.746 144 24 144H120C133.254 144 144 133.254 144 120V24C144 10.746 133.254 0 120 0Z" fill="#8DFCF1"/>
<path fill-rule="evenodd" clip-rule="evenodd" d="M61.74 48L51.5 64H31L41 48H61.74Z" fill="white"/>
<path d="M96 64H80V30L48 80H64V114L96 64Z" fill="url(#paint0_linear_66_4493)"/>
<path d="M114 80L103.76 96H82L92.24 80H114Z" fill="#8DFCF1"/>
<path d="M62 48L51.76 64H30L40.24 48H62Z" fill="#8DFCF1"/>
</g>
<defs>
<linearGradient id="paint0_linear_66_4493" x1="72" y1="30.25" x2="72" y2="98.396" gradientUnits="userSpaceOnUse">
<stop offset="0.35" stop-color="#397BFF"/>
<stop offset="1" stop-color="#8EF4E9"/>
</linearGradient>
<clipPath id="clip0_66_4493">
<rect width="144" height="144" fill="white"/>
</clipPath>
</defs>
</svg>
