<svg width="24" height="24" viewBox="0 0 24 24" fill="none" xmlns="http://www.w3.org/2000/svg">
<g clip-path="url(#clip0_69_1913)">
<path d="M19.9998 0.300049H3.9998C1.95635 0.300049 0.299805 1.9566 0.299805 4.00005V20C0.299805 22.0435 1.95635 23.7 3.9998 23.7H19.9998C22.0433 23.7 23.6998 22.0435 23.6998 20V4.00005C23.6998 1.9566 22.0433 0.300049 19.9998 0.300049Z" fill="#1C1B1C"/>
<path d="M20 0.6C21.8747 0.6 23.4 2.12533 23.4 4V20C23.4 21.8747 21.8747 23.4 20 23.4H4C2.12533 23.4 0.6 21.8747 0.6 20V4C0.6 2.12533 2.12533 0.6 4 0.6H20ZM20 0H4C1.791 0 0 1.791 0 4V20C0 22.209 1.791 24 4 24H20C22.209 24 24 22.209 24 20V4C24 1.791 22.209 0 20 0Z" fill="#8DFCF1"/>
<path d="M12 5C8.13333 5 5 8.13333 5 12C5 13.9333 5.78333 15.6833 7.05 16.95L12 12L16.95 16.95C18.2167 15.6833 19 13.9333 19 12C19 8.13333 15.8667 5 12 5Z" fill="#397BFF"/>
<path d="M16 12C16 13.1067 15.5533 14.1067 14.83 14.83L12 12L9.17 14.83C8.44667 14.1067 8 13.1067 8 12C8 9.79 9.79 8 12 8C14.21 8 16 9.79 16 12Z" fill="#8DFCF1"/>
<path d="M14.8299 14.83C14.1066 15.5533 13.1066 16 11.9999 16C10.8933 16 9.89326 15.5533 9.16992 14.83L11.9999 12L14.8299 14.83Z" fill="url(#paint0_linear_69_1913)"/>
</g>
<defs>
<linearGradient id="paint0_linear_69_1913" x1="11.9999" y1="9.70767" x2="11.9999" y2="15.5137" gradientUnits="userSpaceOnUse">
<stop offset="0.395" stop-color="#3E7FF9"/>
<stop offset="0.969" stop-color="#8BF5EA"/>
</linearGradient>
<clipPath id="clip0_69_1913">
<rect width="24" height="24" fill="white"/>
</clipPath>
</defs>
</svg>
