<svg width="200" height="200" viewBox="0 0 200 200" fill="none" xmlns="http://www.w3.org/2000/svg">
<g clip-path="url(#clip0_66_4830)">
<path d="M166.667 2.5H33.3333C16.3046 2.5 2.5 16.3046 2.5 33.3333V166.667C2.5 183.695 16.3046 197.5 33.3333 197.5H166.667C183.695 197.5 197.5 183.695 197.5 166.667V33.3333C197.5 16.3046 183.695 2.5 166.667 2.5Z" fill="#1C1B1C"/>
<path d="M166.667 5C182.289 5 195 17.7111 195 33.3333V166.667C195 182.289 182.289 195 166.667 195H33.3333C17.7111 195 5 182.289 5 166.667V33.3333C5 17.7111 17.7111 5 33.3333 5H166.667ZM166.667 0H33.3333C14.925 0 0 14.925 0 33.3333V166.667C0 185.075 14.925 200 33.3333 200H166.667C185.075 200 200 185.075 200 166.667V33.3333C200 14.925 185.075 0 166.667 0Z" fill="#8DFCF1"/>
<path fill-rule="evenodd" clip-rule="evenodd" d="M85.7496 66.6667L71.5274 88.889H43.0552L56.9441 66.6667H85.7496Z" fill="white"/>
<path d="M133.333 88.889H111.111V41.6667L66.6665 111.111H88.8887V158.333L133.333 88.889Z" fill="url(#paint0_linear_66_4830)"/>
<path d="M158.333 111.111L144.111 133.333H113.889L128.111 111.111H158.333Z" fill="#8DFCF1"/>
<path d="M86.1109 66.6667L71.8887 88.889H41.6665L55.8887 66.6667H86.1109Z" fill="#8DFCF1"/>
</g>
<defs>
<linearGradient id="paint0_linear_66_4830" x1="99.9998" y1="42.014" x2="99.9998" y2="136.661" gradientUnits="userSpaceOnUse">
<stop offset="0.35" stop-color="#397BFF"/>
<stop offset="1" stop-color="#8EF4E9"/>
</linearGradient>
<clipPath id="clip0_66_4830">
<rect width="200" height="200" fill="white"/>
</clipPath>
</defs>
</svg>
