<svg width="200" height="200" viewBox="0 0 200 200" fill="none" xmlns="http://www.w3.org/2000/svg">
<g clip-path="url(#clip0_66_4682)">
<path d="M166.667 2.5H33.3333C16.3046 2.5 2.5 16.3046 2.5 33.3333V166.667C2.5 183.695 16.3046 197.5 33.3333 197.5H166.667C183.695 197.5 197.5 183.695 197.5 166.667V33.3333C197.5 16.3046 183.695 2.5 166.667 2.5Z" fill="#1C1B1C"/>
<path d="M166.667 5C182.289 5 195 17.7111 195 33.3333V166.667C195 182.289 182.289 195 166.667 195H33.3333C17.7111 195 5 182.289 5 166.667V33.3333C5 17.7111 17.7111 5 33.3333 5H166.667ZM166.667 0H33.3333C14.925 0 0 14.925 0 33.3333V166.667C0 185.075 14.925 200 33.3333 200H166.667C185.075 200 200 185.075 200 166.667V33.3333C200 14.925 185.075 0 166.667 0Z" fill="#8DFCF1"/>
<path d="M99.9998 41.6667C67.7776 41.6667 41.6665 67.7778 41.6665 100C41.6665 116.111 48.1943 130.694 58.7498 141.25L99.9998 100L141.25 141.25C151.805 130.694 158.333 116.111 158.333 100C158.333 67.7778 132.222 41.6667 99.9998 41.6667Z" fill="#397BFF"/>
<path d="M133.333 100C133.333 109.222 129.611 117.556 123.583 123.583L99.9998 100L76.4165 123.583C70.3887 117.556 66.6665 109.222 66.6665 100C66.6665 81.5834 81.5832 66.6667 99.9998 66.6667C118.417 66.6667 133.333 81.5834 133.333 100Z" fill="#8DFCF1"/>
<path d="M123.583 123.583C117.555 129.611 109.222 133.333 99.9998 133.333C90.7776 133.333 82.4443 129.611 76.4165 123.583L99.9998 100L123.583 123.583Z" fill="url(#paint0_linear_66_4682)"/>
</g>
<defs>
<linearGradient id="paint0_linear_66_4682" x1="99.9998" y1="80.8972" x2="99.9998" y2="129.281" gradientUnits="userSpaceOnUse">
<stop offset="0.395" stop-color="#3E7FF9"/>
<stop offset="0.969" stop-color="#8BF5EA"/>
</linearGradient>
<clipPath id="clip0_66_4682">
<rect width="200" height="200" fill="white"/>
</clipPath>
</defs>
</svg>
