<svg width="48" height="48" viewBox="0 0 48 48" fill="none" xmlns="http://www.w3.org/2000/svg">
<g clip-path="url(#clip0_66_5369)">
<path d="M40.0001 0.599976H8.0001C3.91319 0.599976 0.600098 3.91307 0.600098 7.99998V40C0.600098 44.0869 3.91319 47.4 8.0001 47.4H40.0001C44.087 47.4 47.4001 44.0869 47.4001 40V7.99998C47.4001 3.91307 44.087 0.599976 40.0001 0.599976Z" fill="#1C1B1C"/>
<path d="M40 1.2C43.7493 1.2 46.8 4.25067 46.8 8V40C46.8 43.7493 43.7493 46.8 40 46.8H8C4.25067 46.8 1.2 43.7493 1.2 40V8C1.2 4.25067 4.25067 1.2 8 1.2H40ZM40 0H8C3.582 0 0 3.582 0 8V40C0 44.418 3.582 48 8 48H40C44.418 48 48 44.418 48 40V8C48 3.582 44.418 0 40 0Z" fill="#8DFCF1"/>
<path d="M24 10C16.2667 10 10 16.2667 10 24C10 27.8667 11.5667 31.3667 14.1 33.9L24 24L33.9 33.9C36.4333 31.3667 38 27.8667 38 24C38 16.2667 31.7333 10 24 10Z" fill="#397BFF"/>
<path d="M32 24C32 26.2133 31.1067 28.2133 29.66 29.66L24 24L18.34 29.66C16.8933 28.2133 16 26.2133 16 24C16 19.58 19.58 16 24 16C28.42 16 32 19.58 32 24Z" fill="#8DFCF1"/>
<path d="M29.6598 29.66C28.2132 31.1067 26.2132 32 23.9998 32C21.7865 32 19.7865 31.1067 18.3398 29.66L23.9998 24L29.6598 29.66Z" fill="url(#paint0_linear_66_5369)"/>
</g>
<defs>
<linearGradient id="paint0_linear_66_5369" x1="23.9998" y1="19.4153" x2="23.9998" y2="31.0273" gradientUnits="userSpaceOnUse">
<stop offset="0.395" stop-color="#3E7FF9"/>
<stop offset="0.969" stop-color="#8BF5EA"/>
</linearGradient>
<clipPath id="clip0_66_5369">
<rect width="48" height="48" fill="white"/>
</clipPath>
</defs>
</svg>
