<svg width="144" height="144" viewBox="0 0 144 144" fill="none" xmlns="http://www.w3.org/2000/svg">
<g clip-path="url(#clip0_66_4345)">
<path d="M120 1.79999H23.9998C11.7391 1.79999 1.7998 11.7393 1.7998 24V120C1.7998 132.261 11.7391 142.2 23.9998 142.2H120C132.261 142.2 142.2 132.261 142.2 120V24C142.2 11.7393 132.261 1.79999 120 1.79999Z" fill="#1C1B1C"/>
<path d="M120 3.6C131.248 3.6 140.4 12.752 140.4 24V120C140.4 131.248 131.248 140.4 120 140.4H24C12.752 140.4 3.6 131.248 3.6 120V24C3.6 12.752 12.752 3.6 24 3.6H120ZM120 0H24C10.746 0 0 10.746 0 24V120C0 133.254 10.746 144 24 144H120C133.254 144 144 133.254 144 120V24C144 10.746 133.254 0 120 0Z" fill="#8DFCF1"/>
<path d="M72 30C48.8 30 30 48.8 30 72C30 83.6 34.7 94.1 42.3 101.7L72 72L101.7 101.7C109.3 94.1 114 83.6 114 72C114 48.8 95.2 30 72 30Z" fill="#397BFF"/>
<path d="M96 72C96 78.64 93.32 84.64 88.98 88.98L72 72L55.02 88.98C50.68 84.64 48 78.64 48 72C48 58.74 58.74 48 72 48C85.26 48 96 58.74 96 72Z" fill="#8DFCF1"/>
<path d="M88.98 88.98C84.64 93.32 78.64 96 72 96C65.36 96 59.36 93.32 55.02 88.98L72 72L88.98 88.98Z" fill="url(#paint0_linear_66_4345)"/>
</g>
<defs>
<linearGradient id="paint0_linear_66_4345" x1="72" y1="58.246" x2="72" y2="93.082" gradientUnits="userSpaceOnUse">
<stop offset="0.395" stop-color="#3E7FF9"/>
<stop offset="0.969" stop-color="#8BF5EA"/>
</linearGradient>
<clipPath id="clip0_66_4345">
<rect width="144" height="144" fill="white"/>
</clipPath>
</defs>
</svg>
