<svg width="72" height="72" viewBox="0 0 72 72" fill="none" xmlns="http://www.w3.org/2000/svg">
<g clip-path="url(#clip0_66_5019)">
<path d="M59.9999 0.900024H11.9999C5.86954 0.900024 0.899902 5.86966 0.899902 12V60C0.899902 66.1304 5.86954 71.1 11.9999 71.1H59.9999C66.1303 71.1 71.0999 66.1304 71.0999 60V12C71.0999 5.86966 66.1303 0.900024 59.9999 0.900024Z" fill="#1C1B1C"/>
<path d="M60 1.8C65.624 1.8 70.2 6.376 70.2 12V60C70.2 65.624 65.624 70.2 60 70.2H12C6.376 70.2 1.8 65.624 1.8 60V12C1.8 6.376 6.376 1.8 12 1.8H60ZM60 0H12C5.373 0 0 5.373 0 12V60C0 66.627 5.373 72 12 72H60C66.627 72 72 66.627 72 60V12C72 5.373 66.627 0 60 0Z" fill="#8DFCF1"/>
<path d="M36 15C24.4 15 15 24.4 15 36C15 41.8 17.35 47.05 21.15 50.85L36 36L50.85 50.85C54.65 47.05 57 41.8 57 36C57 24.4 47.6 15 36 15Z" fill="#397BFF"/>
<path d="M48 36C48 39.32 46.66 42.32 44.49 44.49L36 36L27.51 44.49C25.34 42.32 24 39.32 24 36C24 29.37 29.37 24 36 24C42.63 24 48 29.37 48 36Z" fill="#8DFCF1"/>
<path d="M44.4898 44.49C42.3198 46.66 39.3198 48 35.9998 48C32.6798 48 29.6798 46.66 27.5098 44.49L35.9998 36L44.4898 44.49Z" fill="url(#paint0_linear_66_5019)"/>
</g>
<defs>
<linearGradient id="paint0_linear_66_5019" x1="35.9998" y1="29.123" x2="35.9998" y2="46.541" gradientUnits="userSpaceOnUse">
<stop offset="0.395" stop-color="#3E7FF9"/>
<stop offset="0.969" stop-color="#8BF5EA"/>
</linearGradient>
<clipPath id="clip0_66_5019">
<rect width="72" height="72" fill="white"/>
</clipPath>
</defs>
</svg>
