<svg width="72" height="72" viewBox="0 0 72 72" fill="none" xmlns="http://www.w3.org/2000/svg">
<g clip-path="url(#clip0_66_5305)">
<path d="M59.9999 0.900024H11.9999C5.86954 0.900024 0.899902 5.86966 0.899902 12V60C0.899902 66.1304 5.86954 71.1 11.9999 71.1H59.9999C66.1303 71.1 71.0999 66.1304 71.0999 60V12C71.0999 5.86966 66.1303 0.900024 59.9999 0.900024Z" fill="#1C1B1C"/>
<path d="M60 1.8C65.624 1.8 70.2 6.376 70.2 12V60C70.2 65.624 65.624 70.2 60 70.2H12C6.376 70.2 1.8 65.624 1.8 60V12C1.8 6.376 6.376 1.8 12 1.8H60ZM60 0H12C5.373 0 0 5.373 0 12V60C0 66.627 5.373 72 12 72H60C66.627 72 72 66.627 72 60V12C72 5.373 66.627 0 60 0Z" fill="#FFF6B6"/>
<rect x="29" y="19" width="25" height="9" fill="url(#paint0_linear_66_5305)"/>
<rect x="29" y="43" width="25" height="9" fill="url(#paint1_linear_66_5305)"/>
<rect x="29" y="31" width="25" height="9" fill="url(#paint2_linear_66_5305)"/>
<circle cx="22.5" cy="47.5" r="4.5" fill="#FFF6B6"/>
<circle cx="22.5" cy="35.5" r="4.5" fill="#FFF6B6"/>
<circle cx="22.5" cy="23.5" r="4.5" fill="#FFF6B6"/>
</g>
<defs>
<linearGradient id="paint0_linear_66_5305" x1="52.2143" y1="20.8" x2="30.1058" y2="23.4039" gradientUnits="userSpaceOnUse">
<stop stop-color="#FC9471"/>
<stop offset="1" stop-color="#FFF6B6"/>
</linearGradient>
<linearGradient id="paint1_linear_66_5305" x1="52.2143" y1="44.8" x2="30.1058" y2="47.4039" gradientUnits="userSpaceOnUse">
<stop stop-color="#FC9471"/>
<stop offset="1" stop-color="#FFF6B6"/>
</linearGradient>
<linearGradient id="paint2_linear_66_5305" x1="52.2143" y1="32.8" x2="30.1058" y2="35.4039" gradientUnits="userSpaceOnUse">
<stop stop-color="#FC9471"/>
<stop offset="1" stop-color="#FFF6B6"/>
</linearGradient>
<clipPath id="clip0_66_5305">
<rect width="72" height="72" fill="white"/>
</clipPath>
</defs>
</svg>
