<svg width="144" height="144" viewBox="0 0 144 144" fill="none" xmlns="http://www.w3.org/2000/svg">
<g clip-path="url(#clip0_66_4631)">
<path d="M120 1.79999H23.9998C11.7391 1.79999 1.7998 11.7393 1.7998 24V120C1.7998 132.261 11.7391 142.2 23.9998 142.2H120C132.261 142.2 142.2 132.261 142.2 120V24C142.2 11.7393 132.261 1.79999 120 1.79999Z" fill="#1C1B1C"/>
<path d="M120 3.6C131.248 3.6 140.4 12.752 140.4 24V120C140.4 131.248 131.248 140.4 120 140.4H24C12.752 140.4 3.6 131.248 3.6 120V24C3.6 12.752 12.752 3.6 24 3.6H120ZM120 0H24C10.746 0 0 10.746 0 24V120C0 133.254 10.746 144 24 144H120C133.254 144 144 133.254 144 120V24C144 10.746 133.254 0 120 0Z" fill="#FFF6B6"/>
<rect x="58" y="38" width="50" height="18" fill="url(#paint0_linear_66_4631)"/>
<rect x="58" y="86" width="50" height="18" fill="url(#paint1_linear_66_4631)"/>
<rect x="58" y="62" width="50" height="18" fill="url(#paint2_linear_66_4631)"/>
<circle cx="45" cy="95" r="9" fill="#FFF6B6"/>
<circle cx="45" cy="71" r="9" fill="#FFF6B6"/>
<circle cx="45" cy="47" r="9" fill="#FFF6B6"/>
</g>
<defs>
<linearGradient id="paint0_linear_66_4631" x1="104.429" y1="41.6" x2="60.2116" y2="46.8078" gradientUnits="userSpaceOnUse">
<stop stop-color="#FC9471"/>
<stop offset="1" stop-color="#FFF6B6"/>
</linearGradient>
<linearGradient id="paint1_linear_66_4631" x1="104.429" y1="89.6" x2="60.2116" y2="94.8078" gradientUnits="userSpaceOnUse">
<stop stop-color="#FC9471"/>
<stop offset="1" stop-color="#FFF6B6"/>
</linearGradient>
<linearGradient id="paint2_linear_66_4631" x1="104.429" y1="65.6" x2="60.2116" y2="70.8078" gradientUnits="userSpaceOnUse">
<stop stop-color="#FC9471"/>
<stop offset="1" stop-color="#FFF6B6"/>
</linearGradient>
<clipPath id="clip0_66_4631">
<rect width="144" height="144" fill="white"/>
</clipPath>
</defs>
</svg>
