<svg width="24" height="24" viewBox="0 0 24 24" fill="none" xmlns="http://www.w3.org/2000/svg">
<g clip-path="url(#clip0_71_2224)">
<path d="M19.9998 0.300049H3.9998C1.95635 0.300049 0.299805 1.9566 0.299805 4.00005V20C0.299805 22.0435 1.95635 23.7 3.9998 23.7H19.9998C22.0433 23.7 23.6998 22.0435 23.6998 20V4.00005C23.6998 1.9566 22.0433 0.300049 19.9998 0.300049Z" fill="#1C1B1C"/>
<path d="M20 0.6C21.8747 0.6 23.4 2.12533 23.4 4V20C23.4 21.8747 21.8747 23.4 20 23.4H4C2.12533 23.4 0.6 21.8747 0.6 20V4C0.6 2.12533 2.12533 0.6 4 0.6H20ZM20 0H4C1.791 0 0 1.791 0 4V20C0 22.209 1.791 24 4 24H20C22.209 24 24 22.209 24 20V4C24 1.791 22.209 0 20 0Z" fill="#FFF6B6"/>
<rect x="9.6665" y="6.33337" width="8.33333" height="3" fill="url(#paint0_linear_71_2224)"/>
<rect x="9.6665" y="14.3334" width="8.33333" height="3" fill="url(#paint1_linear_71_2224)"/>
<rect x="9.6665" y="10.3334" width="8.33333" height="3" fill="url(#paint2_linear_71_2224)"/>
<circle cx="7.5" cy="15.8334" r="1.5" fill="#FFF6B6"/>
<circle cx="7.5" cy="11.8334" r="1.5" fill="#FFF6B6"/>
<circle cx="7.5" cy="7.83337" r="1.5" fill="#FFF6B6"/>
</g>
<defs>
<linearGradient id="paint0_linear_71_2224" x1="17.4046" y1="6.93337" x2="10.0351" y2="7.80135" gradientUnits="userSpaceOnUse">
<stop stop-color="#FC9471"/>
<stop offset="1" stop-color="#FFF6B6"/>
</linearGradient>
<linearGradient id="paint1_linear_71_2224" x1="17.4046" y1="14.9334" x2="10.0351" y2="15.8013" gradientUnits="userSpaceOnUse">
<stop stop-color="#FC9471"/>
<stop offset="1" stop-color="#FFF6B6"/>
</linearGradient>
<linearGradient id="paint2_linear_71_2224" x1="17.4046" y1="10.9334" x2="10.0351" y2="11.8013" gradientUnits="userSpaceOnUse">
<stop stop-color="#FC9471"/>
<stop offset="1" stop-color="#FFF6B6"/>
</linearGradient>
<clipPath id="clip0_71_2224">
<rect width="24" height="24" fill="white"/>
</clipPath>
</defs>
</svg>
