<svg width="24" height="24" viewBox="0 0 24 24" fill="none" xmlns="http://www.w3.org/2000/svg">
<g clip-path="url(#clip0_71_2066)">
<path d="M19.9998 0.300049H3.99984C1.95637 0.300049 0.299805 1.95661 0.299805 4.00008V20.0001C0.299805 22.0436 1.95637 23.7001 3.99984 23.7001H19.9998C22.0433 23.7001 23.6999 22.0436 23.6999 20.0001V4.00008C23.6999 1.95661 22.0433 0.300049 19.9998 0.300049Z" fill="#1C1B1C"/>
<path d="M20 0.6C21.8748 0.6 23.4 2.12524 23.4 4V20C23.4 21.8748 21.8748 23.4 20 23.4H4C2.12524 23.4 0.6 21.8748 0.6 20V4C0.6 2.12524 2.12524 0.6 4 0.6H20ZM20 0H4C1.79086 0 0 1.79086 0 4V20C0 22.2091 1.79086 24 4 24H20C22.2091 24 24 22.2091 24 20V4C24 1.79086 22.2091 0 20 0Z" fill="#397BFF"/>
<path d="M14 10H5V14H14V10Z" fill="#397BFF"/>
<path d="M14 10H10V19H14V10Z" fill="#397BFF"/>
<path d="M10 10V14H14V10H10Z" fill="url(#paint0_linear_71_2066)"/>
<path d="M12.0002 8.33333C12.9205 8.33333 13.6668 7.587 13.6668 6.66667C13.6668 5.74633 12.9205 5 12.0002 5C11.0798 5 10.3335 5.74633 10.3335 6.66667C10.3335 7.587 11.0798 8.33333 12.0002 8.33333Z" fill="#FF996C"/>
<path d="M17.3332 13.6666C18.2535 13.6666 18.9998 12.9203 18.9998 11.9999C18.9998 11.0796 18.2535 10.3333 17.3332 10.3333C16.4128 10.3333 15.6665 11.0796 15.6665 11.9999C15.6665 12.9203 16.4128 13.6666 17.3332 13.6666Z" fill="#FF996C"/>
</g>
<defs>
<linearGradient id="paint0_linear_71_2066" x1="14" y1="14" x2="10.0357" y2="10.0357" gradientUnits="userSpaceOnUse">
<stop stop-color="#3E7FFA"/>
<stop offset="1" stop-color="#FC9471"/>
</linearGradient>
<clipPath id="clip0_71_2066">
<rect width="24" height="24" fill="white"/>
</clipPath>
</defs>
</svg>
