<svg width="144" height="144" viewBox="0 0 144 144" fill="none" xmlns="http://www.w3.org/2000/svg">
<g clip-path="url(#clip0_66_4473)">
<path d="M120 1.7998H24C11.7392 1.7998 1.7998 11.7392 1.7998 24V120C1.7998 132.261 11.7392 142.2 24 142.2H120C132.261 142.2 142.2 132.261 142.2 120V24C142.2 11.7392 132.261 1.7998 120 1.7998Z" fill="#1C1B1C"/>
<path d="M120 3.6C131.249 3.6 140.4 12.7514 140.4 24V120C140.4 131.249 131.249 140.4 120 140.4H24C12.7514 140.4 3.6 131.249 3.6 120V24C3.6 12.7514 12.7514 3.6 24 3.6H120ZM120 0H24C10.7452 0 0 10.7452 0 24V120C0 133.255 10.7452 144 24 144H120C133.255 144 144 133.255 144 120V24C144 10.7452 133.255 0 120 0Z" fill="#397BFF"/>
<path d="M84 60H30V84H84V60Z" fill="#397BFF"/>
<path d="M84 60H60V114H84V60Z" fill="#397BFF"/>
<path d="M60 60V84H84V60H60Z" fill="url(#paint0_linear_66_4473)"/>
<path d="M72 50C77.522 50 82 45.522 82 40C82 34.478 77.522 30 72 30C66.478 30 62 34.478 62 40C62 45.522 66.478 50 72 50Z" fill="#FF996C"/>
<path d="M104 82C109.522 82 114 77.522 114 72C114 66.478 109.522 62 104 62C98.478 62 94 66.478 94 72C94 77.522 98.478 82 104 82Z" fill="#FF996C"/>
</g>
<defs>
<linearGradient id="paint0_linear_66_4473" x1="84" y1="84" x2="60.214" y2="60.214" gradientUnits="userSpaceOnUse">
<stop stop-color="#3E7FFA"/>
<stop offset="1" stop-color="#FC9471"/>
</linearGradient>
<clipPath id="clip0_66_4473">
<rect width="144" height="144" fill="white"/>
</clipPath>
</defs>
</svg>
