<svg width="48" height="48" viewBox="0 0 48 48" fill="none" xmlns="http://www.w3.org/2000/svg">
<g clip-path="url(#clip0_66_5497)">
<path d="M40.0002 0.599854H8.00016C3.91322 0.599854 0.600098 3.91298 0.600098 7.99992V39.9999C0.600098 44.0869 3.91322 47.4 8.00016 47.4H40.0002C44.0871 47.4 47.4002 44.0869 47.4002 39.9999V7.99992C47.4002 3.91298 44.0871 0.599854 40.0002 0.599854Z" fill="#1C1B1C"/>
<path d="M40 1.2C43.7495 1.2 46.8 4.25047 46.8 8V40C46.8 43.7495 43.7495 46.8 40 46.8H8C4.25047 46.8 1.2 43.7495 1.2 40V8C1.2 4.25047 4.25047 1.2 8 1.2H40ZM40 0H8C3.58173 0 0 3.58173 0 8V40C0 44.4183 3.58173 48 8 48H40C44.4183 48 48 44.4183 48 40V8C48 3.58173 44.4183 0 40 0Z" fill="#397BFF"/>
<path d="M28 20H10V28H28V20Z" fill="#397BFF"/>
<path d="M28 20H20V38H28V20Z" fill="#397BFF"/>
<path d="M20 20V28H28V20H20Z" fill="url(#paint0_linear_66_5497)"/>
<path d="M23.9998 16.6667C25.8405 16.6667 27.3332 15.174 27.3332 13.3333C27.3332 11.4927 25.8405 10 23.9998 10C22.1592 10 20.6665 11.4927 20.6665 13.3333C20.6665 15.174 22.1592 16.6667 23.9998 16.6667Z" fill="#FF996C"/>
<path d="M34.6668 27.3334C36.5075 27.3334 38.0002 25.8407 38.0002 24.0001C38.0002 22.1594 36.5075 20.6667 34.6668 20.6667C32.8262 20.6667 31.3335 22.1594 31.3335 24.0001C31.3335 25.8407 32.8262 27.3334 34.6668 27.3334Z" fill="#FF996C"/>
</g>
<defs>
<linearGradient id="paint0_linear_66_5497" x1="28" y1="28" x2="20.0713" y2="20.0713" gradientUnits="userSpaceOnUse">
<stop stop-color="#3E7FFA"/>
<stop offset="1" stop-color="#FC9471"/>
</linearGradient>
<clipPath id="clip0_66_5497">
<rect width="48" height="48" fill="white"/>
</clipPath>
</defs>
</svg>
