<svg width="200" height="200" viewBox="0 0 200 200" fill="none" xmlns="http://www.w3.org/2000/svg">
<g clip-path="url(#clip0_66_4810)">
<path d="M166.666 2.49976H33.3331C16.3042 2.49976 2.49951 16.3044 2.49951 33.3334V166.667C2.49951 183.696 16.3042 197.5 33.3331 197.5H166.666C183.695 197.5 197.5 183.696 197.5 166.667V33.3334C197.5 16.3044 183.695 2.49976 166.666 2.49976Z" fill="#1C1B1C"/>
<path d="M166.667 5C182.29 5 195 17.7103 195 33.3333V166.667C195 182.29 182.29 195 166.667 195H33.3333C17.7103 195 5 182.29 5 166.667V33.3333C5 17.7103 17.7103 5 33.3333 5H166.667ZM166.667 0H33.3333C14.9239 0 0 14.9239 0 33.3333V166.667C0 185.076 14.9239 200 33.3333 200H166.667C185.076 200 200 185.076 200 166.667V33.3333C200 14.9239 185.076 0 166.667 0Z" fill="#397BFF"/>
<path d="M116.667 83.3335H41.6665V116.667H116.667V83.3335Z" fill="#397BFF"/>
<path d="M116.666 83.3335H83.333V158.333H116.666V83.3335Z" fill="#397BFF"/>
<path d="M83.333 83.3335V116.667H116.666V83.3335H83.333Z" fill="url(#paint0_linear_66_4810)"/>
<path d="M99.9997 69.4445C107.669 69.4445 113.889 63.2251 113.889 55.5556C113.889 47.8862 107.669 41.6667 99.9997 41.6667C92.3303 41.6667 86.1108 47.8862 86.1108 55.5556C86.1108 63.2251 92.3303 69.4445 99.9997 69.4445Z" fill="#FF996C"/>
<path d="M144.444 113.889C152.114 113.889 158.333 107.669 158.333 100C158.333 92.3305 152.114 86.1111 144.444 86.1111C136.775 86.1111 130.555 92.3305 130.555 100C130.555 107.669 136.775 113.889 144.444 113.889Z" fill="#FF996C"/>
</g>
<defs>
<linearGradient id="paint0_linear_66_4810" x1="116.666" y1="116.667" x2="83.6302" y2="83.6307" gradientUnits="userSpaceOnUse">
<stop stop-color="#3E7FFA"/>
<stop offset="1" stop-color="#FC9471"/>
</linearGradient>
<clipPath id="clip0_66_4810">
<rect width="200" height="200" fill="white"/>
</clipPath>
</defs>
</svg>
