<svg width="48" height="48" viewBox="0 0 48 48" fill="none" xmlns="http://www.w3.org/2000/svg">
<g clip-path="url(#clip0_66_5536)">
<path d="M40.0001 0.600098H8.0001C3.91319 0.600098 0.600098 3.91319 0.600098 8.0001V40.0001C0.600098 44.087 3.91319 47.4001 8.0001 47.4001H40.0001C44.087 47.4001 47.4001 44.087 47.4001 40.0001V8.0001C47.4001 3.91319 44.087 0.600098 40.0001 0.600098Z" fill="#1C1B1C"/>
<path d="M40 1.2C43.7493 1.2 46.8 4.25067 46.8 8V40C46.8 43.7493 43.7493 46.8 40 46.8H8C4.25067 46.8 1.2 43.7493 1.2 40V8C1.2 4.25067 4.25067 1.2 8 1.2H40ZM40 0H8C3.582 0 0 3.582 0 8V40C0 44.418 3.582 48 8 48H40C44.418 48 48 44.418 48 40V8C48 3.582 44.418 0 40 0Z" fill="#8DFCF1"/>
<path d="M31.3333 12H12V21.3333H31.3333V12Z" fill="#8DFCF1"/>
<path d="M37.9998 19.3333V28.6666H31.3332V26.6666H18.6665V19.3333H37.9998Z" fill="#A97DFF"/>
<path d="M31.3332 26.6667H18.6665V28.6667H31.3332V26.6667Z" fill="url(#paint0_linear_66_5536)"/>
<path d="M31.3333 28.6667V36.0001H12V26.6667H18.6667V28.6667H31.3333Z" fill="#8DFCF1"/>
</g>
<defs>
<linearGradient id="paint0_linear_66_5536" x1="28.3992" y1="24.2674" x2="21.5952" y2="31.0714" gradientUnits="userSpaceOnUse">
<stop stop-color="#8CF6EB"/>
<stop offset="1" stop-color="#A480FB"/>
</linearGradient>
<clipPath id="clip0_66_5536">
<rect width="48" height="48" fill="white"/>
</clipPath>
</defs>
</svg>
