<svg width="200" height="200" viewBox="0 0 200 200" fill="none" xmlns="http://www.w3.org/2000/svg">
<g clip-path="url(#clip0_66_4849)">
<path d="M166.667 2.5H33.3333C16.3046 2.5 2.5 16.3046 2.5 33.3333V166.667C2.5 183.695 16.3046 197.5 33.3333 197.5H166.667C183.695 197.5 197.5 183.695 197.5 166.667V33.3333C197.5 16.3046 183.695 2.5 166.667 2.5Z" fill="#1C1B1C"/>
<path d="M166.667 5C182.289 5 195 17.7111 195 33.3333V166.667C195 182.289 182.289 195 166.667 195H33.3333C17.7111 195 5 182.289 5 166.667V33.3333C5 17.7111 17.7111 5 33.3333 5H166.667ZM166.667 0H33.3333C14.925 0 0 14.925 0 33.3333V166.667C0 185.075 14.925 200 33.3333 200H166.667C185.075 200 200 185.075 200 166.667V33.3333C200 14.925 185.075 0 166.667 0Z" fill="#8DFCF1"/>
<path d="M130.556 50H50V88.8889H130.556V50Z" fill="#8DFCF1"/>
<path d="M158.333 80.5557V119.445H130.556V111.111H77.7778V80.5557H158.333Z" fill="#A97DFF"/>
<path d="M130.556 111.111H77.7778V119.444H130.556V111.111Z" fill="url(#paint0_linear_66_4849)"/>
<path d="M130.556 119.444V150H50V111.111H77.7778V119.444H130.556Z" fill="#8DFCF1"/>
</g>
<defs>
<linearGradient id="paint0_linear_66_4849" x1="118.331" y1="101.114" x2="89.9806" y2="129.464" gradientUnits="userSpaceOnUse">
<stop stop-color="#8CF6EB"/>
<stop offset="1" stop-color="#A480FB"/>
</linearGradient>
<clipPath id="clip0_66_4849">
<rect width="200" height="200" fill="white"/>
</clipPath>
</defs>
</svg>
