<svg width="144" height="144" viewBox="0 0 144 144" fill="none" xmlns="http://www.w3.org/2000/svg">
<g clip-path="url(#clip0_66_4398)">
<path d="M120 1.80005H23.9998C11.7391 1.80005 1.7998 11.7393 1.7998 24V120C1.7998 132.261 11.7391 142.2 23.9998 142.2H120C132.261 142.2 142.2 132.261 142.2 120V24C142.2 11.7393 132.261 1.80005 120 1.80005Z" fill="#1C1B1C"/>
<path d="M120 3.6C131.248 3.6 140.4 12.752 140.4 24V120C140.4 131.248 131.248 140.4 120 140.4H24C12.752 140.4 3.6 131.248 3.6 120V24C3.6 12.752 12.752 3.6 24 3.6H120ZM120 0H24C10.746 0 0 10.746 0 24V120C0 133.254 10.746 144 24 144H120C133.254 144 144 133.254 144 120V24C144 10.746 133.254 0 120 0Z" fill="#397BFF"/>
<path d="M104 76C104 84.9 100.38 92.94 94.52 98.76C88.74 104.46 80.78 108 72 108C54.32 108 40 93.68 40 76C40 58.32 54.32 44 72 44C72.56 44 73.1 44.02 73.64 44.04C74 44.06 74.38 44.08 74.76 44.12C75.2 44.16 75.64 44.2 76.08 44.26C76.52 44.32 76.96 44.38 77.4 44.46C77.84 44.52 78.26 44.6 78.7 44.7C80.16 45.02 81.6 45.42 83 45.94C83.5 46.12 83.98 46.32 84.46 46.52C84.9 46.7 85.34 46.9 85.78 47.12C86.66 47.52 87.5 47.98 88.34 48.48C88.54 48.6 88.74 48.72 88.94 48.84C89.26 49.04 89.58 49.24 89.9 49.46C90.24 49.68 90.58 49.92 90.9 50.16C92.14 51.06 93.3 52.06 94.4 53.14L95 53.74C96.02 54.8 96.96 55.92 97.84 57.1C98.32 57.74 98.76 58.42 99.18 59.1C99.42 59.48 99.64 59.84 99.84 60.22C99.98 60.46 100.14 60.74 100.28 61C100.46 61.32 100.62 61.64 100.76 61.98C101.6 63.7 102.3 65.5 102.82 67.38C103.6 70.12 104 73.02 104 76Z" fill="#397BFF"/>
<path d="M86 30H58V40H86V30Z" fill="#8DFCF1"/>
<path d="M104 76C104 84.9 100.38 92.94 94.52 98.76L72 76V44C72.56 44 73.1 44.02 73.64 44.04C74 44.06 74.38 44.08 74.76 44.12C75.2 44.16 75.64 44.2 76.08 44.26C76.52 44.32 76.96 44.38 77.4 44.46C77.84 44.52 78.26 44.6 78.7 44.7C80.16 45.02 81.6 45.42 83 45.94C83.5 46.12 83.98 46.32 84.46 46.52C84.9 46.7 85.34 46.9 85.78 47.12C86.66 47.52 87.5 47.98 88.34 48.48C88.54 48.6 88.74 48.72 88.94 48.84C89.26 49.04 89.58 49.24 89.9 49.46C90.24 49.68 90.58 49.92 90.9 50.16C92.14 51.06 93.3 52.06 94.4 53.14L95 53.74C96.02 54.8 96.96 55.92 97.84 57.1C98.32 57.76 98.76 58.42 99.18 59.1C99.42 59.48 99.64 59.84 99.84 60.22C99.98 60.46 100.14 60.74 100.28 61C100.46 61.32 100.62 61.64 100.76 61.98C101.6 63.7 102.3 65.5 102.82 67.38C103.6 70.12 104 73.02 104 76Z" fill="url(#paint0_linear_66_4398)"/>
</g>
<defs>
<linearGradient id="paint0_linear_66_4398" x1="102.674" y1="59.432" x2="73.332" y2="77.49" gradientUnits="userSpaceOnUse">
<stop stop-color="#3E7FFA"/>
<stop offset="1" stop-color="#8DFCF1"/>
</linearGradient>
<clipPath id="clip0_66_4398">
<rect width="144" height="144" fill="white"/>
</clipPath>
</defs>
</svg>
