<svg width="48" height="48" viewBox="0 0 48 48" fill="none" xmlns="http://www.w3.org/2000/svg">
<g clip-path="url(#clip0_66_5422)">
<path d="M40.0001 0.600098H8.0001C3.91319 0.600098 0.600098 3.91319 0.600098 8.0001V40.0001C0.600098 44.087 3.91319 47.4001 8.0001 47.4001H40.0001C44.087 47.4001 47.4001 44.087 47.4001 40.0001V8.0001C47.4001 3.91319 44.087 0.600098 40.0001 0.600098Z" fill="#1C1B1C"/>
<path d="M40 1.2C43.7493 1.2 46.8 4.25067 46.8 8V40C46.8 43.7493 43.7493 46.8 40 46.8H8C4.25067 46.8 1.2 43.7493 1.2 40V8C1.2 4.25067 4.25067 1.2 8 1.2H40ZM40 0H8C3.582 0 0 3.582 0 8V40C0 44.418 3.582 48 8 48H40C44.418 48 48 44.418 48 40V8C48 3.582 44.418 0 40 0Z" fill="#397BFF"/>
<path d="M34.6668 25.3334C34.6668 28.3001 33.4602 30.9801 31.5068 32.9201C29.5802 34.8201 26.9268 36.0001 24.0002 36.0001C18.1068 36.0001 13.3335 31.2267 13.3335 25.3334C13.3335 19.4401 18.1068 14.6667 24.0002 14.6667C24.1868 14.6667 24.3668 14.6734 24.5468 14.6801C24.6668 14.6867 24.7935 14.6934 24.9202 14.7067C25.0668 14.7201 25.2135 14.7334 25.3602 14.7534C25.5068 14.7734 25.6535 14.7934 25.8002 14.8201C25.9468 14.8401 26.0868 14.8667 26.2335 14.9001C26.7202 15.0067 27.2002 15.1401 27.6668 15.3134C27.8335 15.3734 27.9935 15.4401 28.1535 15.5067C28.3002 15.5667 28.4468 15.6334 28.5935 15.7067C28.8868 15.8401 29.1668 15.9934 29.4468 16.1601C29.5135 16.2001 29.5802 16.2401 29.6468 16.2801C29.7535 16.3467 29.8602 16.4134 29.9668 16.4867C30.0802 16.5601 30.1935 16.6401 30.3002 16.7201C30.7135 17.0201 31.1002 17.3534 31.4668 17.7134L31.6668 17.9134C32.0068 18.2667 32.3202 18.6401 32.6135 19.0334C32.7735 19.2467 32.9202 19.4734 33.0602 19.7001C33.1402 19.8267 33.2135 19.9467 33.2802 20.0734C33.3268 20.1534 33.3802 20.2467 33.4268 20.3334C33.4868 20.4401 33.5402 20.5467 33.5868 20.6601C33.8668 21.2334 34.1002 21.8334 34.2735 22.4601C34.5335 23.3734 34.6668 24.3401 34.6668 25.3334Z" fill="#397BFF"/>
<path d="M28.6668 10H19.3335V13.3333H28.6668V10Z" fill="#8DFCF1"/>
<path d="M34.6667 25.3334C34.6667 28.3001 33.46 30.9801 31.5067 32.9201L24 25.3334V14.6667C24.1867 14.6667 24.3667 14.6734 24.5467 14.6801C24.6667 14.6867 24.7933 14.6934 24.92 14.7067C25.0667 14.7201 25.2133 14.7334 25.36 14.7534C25.5067 14.7734 25.6533 14.7934 25.8 14.8201C25.9467 14.8401 26.0867 14.8667 26.2333 14.9001C26.72 15.0067 27.2 15.1401 27.6667 15.3134C27.8333 15.3734 27.9933 15.4401 28.1533 15.5067C28.3 15.5667 28.4467 15.6334 28.5933 15.7067C28.8867 15.8401 29.1667 15.9934 29.4467 16.1601C29.5133 16.2001 29.58 16.2401 29.6467 16.2801C29.7533 16.3467 29.86 16.4134 29.9667 16.4867C30.08 16.5601 30.1933 16.6401 30.3 16.7201C30.7133 17.0201 31.1 17.3534 31.4667 17.7134L31.6667 17.9134C32.0067 18.2667 32.32 18.6401 32.6133 19.0334C32.7733 19.2534 32.92 19.4734 33.06 19.7001C33.14 19.8267 33.2133 19.9467 33.28 20.0734C33.3267 20.1534 33.38 20.2467 33.4267 20.3334C33.4867 20.4401 33.54 20.5467 33.5867 20.6601C33.8667 21.2334 34.1 21.8334 34.2733 22.4601C34.5333 23.3734 34.6667 24.3401 34.6667 25.3334Z" fill="url(#paint0_linear_66_5422)"/>
</g>
<defs>
<linearGradient id="paint0_linear_66_5422" x1="34.2247" y1="19.8107" x2="24.444" y2="25.8301" gradientUnits="userSpaceOnUse">
<stop stop-color="#3E7FFA"/>
<stop offset="1" stop-color="#8DFCF1"/>
</linearGradient>
<clipPath id="clip0_66_5422">
<rect width="48" height="48" fill="white"/>
</clipPath>
</defs>
</svg>
