<svg width="72" height="72" viewBox="0 0 72 72" fill="none" xmlns="http://www.w3.org/2000/svg">
<g clip-path="url(#clip0_66_5072)">
<path d="M59.9999 0.899902H11.9999C5.86954 0.899902 0.899902 5.86954 0.899902 11.9999V59.9999C0.899902 66.1303 5.86954 71.0999 11.9999 71.0999H59.9999C66.1303 71.0999 71.0999 66.1303 71.0999 59.9999V11.9999C71.0999 5.86954 66.1303 0.899902 59.9999 0.899902Z" fill="#1C1B1C"/>
<path d="M60 1.8C65.624 1.8 70.2 6.376 70.2 12V60C70.2 65.624 65.624 70.2 60 70.2H12C6.376 70.2 1.8 65.624 1.8 60V12C1.8 6.376 6.376 1.8 12 1.8H60ZM60 0H12C5.373 0 0 5.373 0 12V60C0 66.627 5.373 72 12 72H60C66.627 72 72 66.627 72 60V12C72 5.373 66.627 0 60 0Z" fill="#397BFF"/>
<path d="M52 38C52 42.45 50.19 46.47 47.26 49.38C44.37 52.23 40.39 54 36 54C27.16 54 20 46.84 20 38C20 29.16 27.16 22 36 22C36.28 22 36.55 22.01 36.82 22.02C37 22.03 37.19 22.04 37.38 22.06C37.6 22.08 37.82 22.1 38.04 22.13C38.26 22.16 38.48 22.19 38.7 22.23C38.92 22.26 39.13 22.3 39.35 22.35C40.08 22.51 40.8 22.71 41.5 22.97C41.75 23.06 41.99 23.16 42.23 23.26C42.45 23.35 42.67 23.45 42.89 23.56C43.33 23.76 43.75 23.99 44.17 24.24C44.27 24.3 44.37 24.36 44.47 24.42C44.63 24.52 44.79 24.62 44.95 24.73C45.12 24.84 45.29 24.96 45.45 25.08C46.07 25.53 46.65 26.03 47.2 26.57L47.5 26.87C48.01 27.4 48.48 27.96 48.92 28.55C49.16 28.87 49.38 29.21 49.59 29.55C49.71 29.74 49.82 29.92 49.92 30.11C49.99 30.23 50.07 30.37 50.14 30.5C50.23 30.66 50.31 30.82 50.38 30.99C50.8 31.85 51.15 32.75 51.41 33.69C51.8 35.06 52 36.51 52 38Z" fill="#397BFF"/>
<path d="M43 15H29V20H43V15Z" fill="#8DFCF1"/>
<path d="M52 38C52 42.45 50.19 46.47 47.26 49.38L36 38V22C36.28 22 36.55 22.01 36.82 22.02C37 22.03 37.19 22.04 37.38 22.06C37.6 22.08 37.82 22.1 38.04 22.13C38.26 22.16 38.48 22.19 38.7 22.23C38.92 22.26 39.13 22.3 39.35 22.35C40.08 22.51 40.8 22.71 41.5 22.97C41.75 23.06 41.99 23.16 42.23 23.26C42.45 23.35 42.67 23.45 42.89 23.56C43.33 23.76 43.75 23.99 44.17 24.24C44.27 24.3 44.37 24.36 44.47 24.42C44.63 24.52 44.79 24.62 44.95 24.73C45.12 24.84 45.29 24.96 45.45 25.08C46.07 25.53 46.65 26.03 47.2 26.57L47.5 26.87C48.01 27.4 48.48 27.96 48.92 28.55C49.16 28.88 49.38 29.21 49.59 29.55C49.71 29.74 49.82 29.92 49.92 30.11C49.99 30.23 50.07 30.37 50.14 30.5C50.23 30.66 50.31 30.82 50.38 30.99C50.8 31.85 51.15 32.75 51.41 33.69C51.8 35.06 52 36.51 52 38Z" fill="url(#paint0_linear_66_5072)"/>
</g>
<defs>
<linearGradient id="paint0_linear_66_5072" x1="51.337" y1="29.716" x2="36.666" y2="38.745" gradientUnits="userSpaceOnUse">
<stop stop-color="#3E7FFA"/>
<stop offset="1" stop-color="#8DFCF1"/>
</linearGradient>
<clipPath id="clip0_66_5072">
<rect width="72" height="72" fill="white"/>
</clipPath>
</defs>
</svg>
