<svg width="200" height="200" viewBox="0 0 200 200" fill="none" xmlns="http://www.w3.org/2000/svg">
<g clip-path="url(#clip0_66_4735)">
<path d="M166.667 2.5H33.3333C16.3046 2.5 2.5 16.3046 2.5 33.3333V166.667C2.5 183.695 16.3046 197.5 33.3333 197.5H166.667C183.695 197.5 197.5 183.695 197.5 166.667V33.3333C197.5 16.3046 183.695 2.5 166.667 2.5Z" fill="#1C1B1C"/>
<path d="M166.667 5C182.289 5 195 17.7111 195 33.3333V166.667C195 182.289 182.289 195 166.667 195H33.3333C17.7111 195 5 182.289 5 166.667V33.3333C5 17.7111 17.7111 5 33.3333 5H166.667ZM166.667 0H33.3333C14.925 0 0 14.925 0 33.3333V166.667C0 185.075 14.925 200 33.3333 200H166.667C185.075 200 200 185.075 200 166.667V33.3333C200 14.925 185.075 0 166.667 0Z" fill="#397BFF"/>
<path d="M144.445 105.556C144.445 117.917 139.417 129.083 131.278 137.167C123.25 145.083 112.195 150 100 150C75.4446 150 55.5557 130.111 55.5557 105.556C55.5557 81 75.4446 61.1111 100 61.1111C100.778 61.1111 101.528 61.1389 102.278 61.1666C102.778 61.1944 103.306 61.2222 103.833 61.2777C104.445 61.3333 105.056 61.3889 105.667 61.4722C106.278 61.5555 106.889 61.6389 107.5 61.75C108.111 61.8333 108.695 61.9444 109.306 62.0833C111.333 62.5278 113.333 63.0833 115.278 63.8055C115.972 64.0555 116.639 64.3333 117.306 64.6111C117.917 64.8611 118.528 65.1389 119.139 65.4444C120.361 66 121.528 66.6389 122.695 67.3333C122.972 67.5 123.25 67.6666 123.528 67.8333C123.972 68.1111 124.417 68.3889 124.861 68.6944C125.333 69 125.806 69.3333 126.25 69.6666C127.972 70.9166 129.583 72.3055 131.111 73.8055L131.945 74.6389C133.361 76.1111 134.667 77.6666 135.889 79.3055C136.556 80.1944 137.167 81.1389 137.75 82.0833C138.083 82.6111 138.389 83.1111 138.667 83.6389C138.861 83.9722 139.083 84.3611 139.278 84.7222C139.528 85.1666 139.75 85.6111 139.945 86.0833C141.111 88.4722 142.083 90.9722 142.806 93.5833C143.889 97.3889 144.445 101.417 144.445 105.556Z" fill="#397BFF"/>
<path d="M119.445 41.6667H80.5557V55.5556H119.445V41.6667Z" fill="#8DFCF1"/>
<path d="M144.444 105.556C144.444 117.917 139.417 129.083 131.278 137.167L100 105.556V61.1111C100.778 61.1111 101.528 61.1389 102.278 61.1666C102.778 61.1944 103.306 61.2222 103.833 61.2777C104.444 61.3333 105.056 61.3889 105.667 61.4722C106.278 61.5555 106.889 61.6389 107.5 61.75C108.111 61.8333 108.694 61.9444 109.306 62.0833C111.333 62.5278 113.333 63.0833 115.278 63.8055C115.972 64.0555 116.639 64.3333 117.306 64.6111C117.917 64.8611 118.528 65.1389 119.139 65.4444C120.361 66 121.528 66.6389 122.694 67.3333C122.972 67.5 123.25 67.6666 123.528 67.8333C123.972 68.1111 124.417 68.3889 124.861 68.6944C125.333 69 125.806 69.3333 126.25 69.6666C127.972 70.9166 129.583 72.3055 131.111 73.8055L131.944 74.6389C133.361 76.1111 134.667 77.6666 135.889 79.3055C136.556 80.2222 137.167 81.1389 137.75 82.0833C138.083 82.6111 138.389 83.1111 138.667 83.6389C138.861 83.9722 139.083 84.3611 139.278 84.7222C139.528 85.1666 139.75 85.6111 139.944 86.0833C141.111 88.4722 142.083 90.9722 142.806 93.5833C143.889 97.3889 144.444 101.417 144.444 105.556Z" fill="url(#paint0_linear_66_4735)"/>
</g>
<defs>
<linearGradient id="paint0_linear_66_4735" x1="142.603" y1="82.5444" x2="101.85" y2="107.625" gradientUnits="userSpaceOnUse">
<stop stop-color="#3E7FFA"/>
<stop offset="1" stop-color="#8DFCF1"/>
</linearGradient>
<clipPath id="clip0_66_4735">
<rect width="200" height="200" fill="white"/>
</clipPath>
</defs>
</svg>
