<svg width="24" height="24" viewBox="0 0 24 24" fill="none" xmlns="http://www.w3.org/2000/svg">
<g clip-path="url(#clip0_71_1981)">
<path d="M19.9998 0.300049H3.9998C1.95635 0.300049 0.299805 1.9566 0.299805 4.00005V20C0.299805 22.0435 1.95635 23.7 3.9998 23.7H19.9998C22.0433 23.7 23.6998 22.0435 23.6998 20V4.00005C23.6998 1.9566 22.0433 0.300049 19.9998 0.300049Z" fill="#1C1B1C"/>
<path d="M20 0.6C21.8747 0.6 23.4 2.12533 23.4 4V20C23.4 21.8747 21.8747 23.4 20 23.4H4C2.12533 23.4 0.6 21.8747 0.6 20V4C0.6 2.12533 2.12533 0.6 4 0.6H20ZM20 0H4C1.791 0 0 1.791 0 4V20C0 22.209 1.791 24 4 24H20C22.209 24 24 22.209 24 20V4C24 1.791 22.209 0 20 0Z" fill="#397BFF"/>
<path d="M17.3332 12.6666C17.3332 14.1499 16.7298 15.4899 15.7532 16.4599C14.7898 17.4099 13.4632 17.9999 11.9998 17.9999C9.05317 17.9999 6.6665 15.6133 6.6665 12.6666C6.6665 9.71992 9.05317 7.33325 11.9998 7.33325C12.0932 7.33325 12.1832 7.33659 12.2732 7.33992C12.3332 7.34325 12.3965 7.34659 12.4598 7.35325C12.5332 7.35992 12.6065 7.36659 12.6798 7.37659C12.7532 7.38659 12.8265 7.39659 12.8998 7.40992C12.9732 7.41992 13.0432 7.43325 13.1165 7.44992C13.3598 7.50325 13.5998 7.56992 13.8332 7.65659C13.9165 7.68659 13.9965 7.71992 14.0765 7.75325C14.1498 7.78325 14.2232 7.81659 14.2965 7.85325C14.4432 7.91992 14.5832 7.99659 14.7232 8.07992C14.7565 8.09992 14.7898 8.11992 14.8232 8.13992C14.8765 8.17325 14.9298 8.20659 14.9832 8.24325C15.0398 8.27992 15.0965 8.31992 15.1498 8.35992C15.3565 8.50992 15.5498 8.67659 15.7332 8.85659L15.8332 8.95659C16.0032 9.13325 16.1598 9.31992 16.3065 9.51659C16.3865 9.62325 16.4598 9.73659 16.5298 9.84992C16.5698 9.91325 16.6065 9.97325 16.6398 10.0366C16.6632 10.0766 16.6898 10.1233 16.7132 10.1666C16.7432 10.2199 16.7698 10.2733 16.7932 10.3299C16.9332 10.6166 17.0498 10.9166 17.1365 11.2299C17.2665 11.6866 17.3332 12.1699 17.3332 12.6666Z" fill="#397BFF"/>
<path d="M14.3332 5H9.6665V6.66667H14.3332V5Z" fill="#8DFCF1"/>
<path d="M17.3333 12.6666C17.3333 14.1499 16.73 15.4899 15.7533 16.4599L12 12.6666V7.33325C12.0933 7.33325 12.1833 7.33659 12.2733 7.33992C12.3333 7.34325 12.3967 7.34659 12.46 7.35325C12.5333 7.35992 12.6067 7.36659 12.68 7.37659C12.7533 7.38659 12.8267 7.39659 12.9 7.40992C12.9733 7.41992 13.0433 7.43325 13.1167 7.44992C13.36 7.50325 13.6 7.56992 13.8333 7.65659C13.9167 7.68659 13.9967 7.71992 14.0767 7.75325C14.15 7.78325 14.2233 7.81659 14.2967 7.85325C14.4433 7.91992 14.5833 7.99659 14.7233 8.07992C14.7567 8.09992 14.79 8.11992 14.8233 8.13992C14.8767 8.17325 14.93 8.20659 14.9833 8.24325C15.04 8.27992 15.0967 8.31992 15.15 8.35992C15.3567 8.50992 15.55 8.67659 15.7333 8.85659L15.8333 8.95659C16.0033 9.13325 16.16 9.31992 16.3067 9.51659C16.3867 9.62659 16.46 9.73659 16.53 9.84992C16.57 9.91325 16.6067 9.97325 16.64 10.0366C16.6633 10.0766 16.69 10.1233 16.7133 10.1666C16.7433 10.2199 16.77 10.2733 16.7933 10.3299C16.9333 10.6166 17.05 10.9166 17.1367 11.2299C17.2667 11.6866 17.3333 12.1699 17.3333 12.6666Z" fill="url(#paint0_linear_71_1981)"/>
</g>
<defs>
<linearGradient id="paint0_linear_71_1981" x1="17.1123" y1="9.90525" x2="12.222" y2="12.9149" gradientUnits="userSpaceOnUse">
<stop stop-color="#3E7FFA"/>
<stop offset="1" stop-color="#8DFCF1"/>
</linearGradient>
<clipPath id="clip0_71_1981">
<rect width="24" height="24" fill="white"/>
</clipPath>
</defs>
</svg>
