<svg width="16" height="16" viewBox="0 0 16 16" fill="none" xmlns="http://www.w3.org/2000/svg">
<path d="M13.6666 8.02737C13.6666 4.88604 11.116 2.33537 7.97463 2.33537C4.8333 2.33537 2.28263 4.88604 2.28263 8.02737C2.28263 8.18937 2.2893 8.35204 2.30863 8.50737V8.51404C1.9453 8.96204 1.66596 9.46804 1.50396 10.0327C0.906631 11.876 1.9453 13.8687 3.55463 14.6667C3.55463 14.6667 2.2633 12.674 3.1393 11.0194C4.13863 12.642 5.92996 13.7194 7.97463 13.7194C8.8573 13.7194 9.6813 13.5114 10.428 13.1547L13.6913 13.6914L13.1086 10.4807C13.4593 9.73404 13.6666 8.90337 13.6666 8.02737ZM6.72863 10.052V8.82537L6.1053 8.79937H5.9493C4.65796 8.79937 3.4833 9.38337 2.78196 10.3634C2.7693 10.376 2.75596 10.396 2.7433 10.4154C2.69796 10.4867 2.65263 10.5647 2.6133 10.636L2.58063 10.6947C2.30796 11.2007 2.20396 11.72 2.1913 12.22C1.95796 11.6034 1.8993 10.9154 2.11996 10.234C2.20463 9.94871 2.31463 9.68271 2.46396 9.43604C2.5613 9.25404 2.67796 9.08537 2.81463 8.91671C3.59996 7.94337 4.85263 7.33337 6.08596 7.32004L6.72863 7.31337V6.00271L10.1746 8.02737L6.72863 10.052Z" fill="#44546F"/>
</svg>
