<svg width="16" height="16" viewBox="0 0 16 16" fill="none" xmlns="http://www.w3.org/2000/svg">
<path d="M7.52015 4.2C7.22681 4.2 6.94015 4.23334 6.66681 4.3C6.60015 4.57334 6.56681 4.86 6.56681 5.16C6.56681 7.27334 8.28015 8.98667 10.3935 8.98667C10.6868 8.98667 10.9735 8.95334 11.2468 8.88667C11.3135 8.60667 11.3468 8.32 11.3468 8.02667C11.3468 5.92 9.63348 4.2 7.52015 4.2Z" fill="#44546F"/>
<path d="M13.2466 7.70001C13.8533 7.02668 14.2133 6.13334 14.2133 5.16001C14.2133 3.04668 12.5066 1.33334 10.3933 1.33334C9.41327 1.33334 8.51994 1.70001 7.85327 2.30001C10.7533 2.46668 13.0866 4.79334 13.2466 7.70001Z" fill="#44546F"/>
<path d="M13.2602 8.02667C13.2602 7.91334 13.2533 7.80668 13.2466 7.70001C12.7333 8.28001 12.0335 8.70667 11.2468 8.88667C10.8601 10.5867 9.3402 11.8533 7.5202 11.8533C5.41353 11.8533 3.7002 10.14 3.7002 8.02667C3.7002 6.21334 4.96681 4.68667 6.66681 4.3C6.84015 3.51334 7.2666 2.82001 7.85327 2.30001C7.73994 2.29334 7.63353 2.28667 7.5202 2.28667C4.3602 2.28667 1.78687 4.86001 1.78687 8.02667C1.78687 11.1933 4.3602 13.7667 7.5202 13.7667C8.64686 13.7667 9.68687 13.4333 10.5669 12.88L12.3602 14.6667L14.1602 12.86L12.3735 11.0733C12.9335 10.1933 13.2602 9.14667 13.2602 8.02667Z" fill="#44546F"/>
</svg>
