<svg width="16" height="16" viewBox="0 0 16 16" fill="none" xmlns="http://www.w3.org/2000/svg">
<path d="M14.6666 8C14.6666 9.84 13.9199 11.5067 12.7133 12.7133L10.6933 10.6933C11.3866 10.0067 11.8066 9.05333 11.8066 8C11.8066 5.89333 10.1066 4.19333 7.99992 4.19333C5.89325 4.19333 4.19325 5.89333 4.19325 8C4.19325 9.05333 4.61325 10.0067 5.30659 10.6933L3.28659 12.7133C2.07992 11.5067 1.33325 9.84 1.33325 8C1.33325 4.31999 4.31992 1.33333 7.99992 1.33333C11.6799 1.33333 14.6666 4.31999 14.6666 8Z" fill="#44546F"/>
<path d="M10.6933 10.6933C10.0066 11.3867 9.05323 11.8067 7.99989 11.8067C6.94656 11.8067 5.99325 11.3867 5.30659 10.6933L7.99989 8L10.6933 10.6933Z" fill="#44546F"/>
</svg>
