<svg width="24" height="24" viewBox="0 0 24 24" fill="none" xmlns="http://www.w3.org/2000/svg">
<path d="M21.01 16.31C21.64 15 22 13.54 22 12C22 6.48 17.52 2 12 2C6.48 2 2 6.48 2 12C2 17.52 6.48 22 12 22C13.54 22 15 21.64 16.31 21.01V21.02L22 22L21.02 16.31H21.01ZM12 18.67C8.32 18.67 5.33 15.68 5.33 12C5.33 8.32 8.32 5.33 12 5.33C15.68 5.33 18.67 8.32 18.67 12C18.67 15.68 15.68 18.67 12 18.67Z" fill="#44546F"/>
<path d="M11.9999 8.66998C10.1599 8.66998 8.66992 10.16 8.66992 12C8.66992 13.84 10.1599 15.33 11.9999 15.33C13.8399 15.33 15.3299 13.84 15.3299 12C15.3299 10.16 13.8399 8.66998 11.9999 8.66998Z" fill="#44546F"/>
</svg>
