<svg width="24" height="24" viewBox="0 0 24 24" fill="none" xmlns="http://www.w3.org/2000/svg">
<path fill-rule="evenodd" clip-rule="evenodd" d="M22 11.9561C22 14.3331 20.097 15.7631 18.193 15.7631H16.763V10.5261L12 8.14005L7.237 10.5261V15.7631H5.807C3.904 15.7631 2 14.3331 2 11.9561C2 9.09605 4.386 8.14005 5.816 8.14005C5.816 3.38605 10.096 2.43005 12 2.43005C14.377 2.43005 17.71 4.80705 17.71 7.66705C19.149 7.66705 22 8.62205 22 11.9561Z" fill="#44546F"/>
<path fill-rule="evenodd" clip-rule="evenodd" d="M16.763 15.7631L16.7631 21L12.0001 18.623L7.23706 21L7.237 15.7631L12.0001 13.377L16.763 15.7631Z" fill="#44546F"/>
</svg>
