<svg width="16" height="16" viewBox="0 0 16 16" fill="none" xmlns="http://www.w3.org/2000/svg">
<path d="M10.3927 1.33333H5.60675V3.04266H10.3927V1.33333Z" fill="#44546F"/>
<path d="M13.1334 7.89999C13.0534 7.58666 12.9334 7.27999 12.7934 6.99333C12.7667 6.93999 12.7401 6.88666 12.7134 6.83333C12.6934 6.78666 12.6601 6.73999 12.6401 6.69999C12.6067 6.63999 12.5734 6.57999 12.5334 6.51333C12.4601 6.40666 12.3867 6.29333 12.3067 6.18C12.1601 5.98666 12.0067 5.79999 11.8334 5.61999L11.7334 5.52666C11.5534 5.34666 11.3601 5.17999 11.1534 5.02666C11.0934 4.98666 11.0401 4.94666 10.9867 4.90666C10.9267 4.87333 10.8801 4.83999 10.8201 4.80666C10.7867 4.78666 10.7601 4.76666 10.7201 4.74666C10.5867 4.65999 10.4467 4.58666 10.3001 4.51999C10.2201 4.48666 10.1534 4.44666 10.0734 4.41999C9.99341 4.38666 9.92008 4.35333 9.83342 4.31999C9.60008 4.23999 9.36008 4.17333 9.11341 4.11333C9.04675 4.09999 8.97342 4.08666 8.90008 4.07333C8.82675 4.06666 8.75342 4.05333 8.68008 4.04666C8.60675 4.03333 8.53341 4.02666 8.46008 4.01999C8.40008 4.01333 8.33341 4.01333 8.27341 4.00666C8.18008 4.00666 8.09341 3.99999 8.00008 3.99999C5.05341 3.99999 2.66675 6.38666 2.66675 9.33333C2.66675 12.28 5.05341 14.6667 8.00008 14.6667C9.46675 14.6667 10.7867 14.0733 11.7534 13.1267C11.7734 13.1067 11.7934 13.0867 11.8201 13.06C12.7601 12.0933 13.3334 10.7867 13.3334 9.33333C13.3334 8.83999 13.2667 8.35333 13.1334 7.89999ZM11.3467 12.58L8.00008 9.19333V4.66666C10.5801 4.66666 12.6667 6.75333 12.6667 9.33333C12.6667 10.6 12.1667 11.74 11.3467 12.58Z" fill="#44546F"/>
</svg>
