<svg width="24" height="24" viewBox="0 0 24 24" fill="none" xmlns="http://www.w3.org/2000/svg">
<path d="M22 9.78C22 10.32 21.94 10.84 21.84 11.34C21.79 11.6 21.73 11.84 21.65 12.09C21.35 13.06 20.86 13.96 20.22 14.73C20.06 14.92 19.9 15.1 19.72 15.28C19.53 15.47 19.32 15.65 19.11 15.83C19.01 15.9 18.91 15.98 18.8 16.06C18.69 16.14 18.58 16.22 18.47 16.29C18.24 16.44 18.01 16.57 17.77 16.7C17.53 16.82 17.28 16.93 17.03 17.03C17.37 16.16 17.56 15.21 17.56 14.22C17.56 12.08 16.68 10.13 15.28 8.72C13.87 7.32 11.92 6.44 9.78 6.44C8.79 6.44 7.84 6.63 6.97 6.97C7.11 6.61 7.28 6.26 7.47 5.92C7.56 5.76 7.67 5.59 7.77 5.43C7.88 5.27 7.99 5.12 8.11 4.97C8.23 4.82 8.35 4.67 8.48 4.53C8.61 4.39 8.75 4.25 8.89 4.12C9.01 4 9.14 3.89 9.27 3.78C9.56 3.54 9.87 3.32 10.19 3.13C10.28 3.07 10.37 3.02 10.47 2.97C10.74 2.82 11.02 2.68 11.3 2.57C11.48 2.49 11.67 2.43 11.85 2.37C11.87 2.36 11.89 2.36 11.91 2.35C12.08 2.3 12.24 2.25 12.41 2.21C12.75 2.13 13.1 2.07 13.46 2.04C13.55 2.03 13.65 2.02 13.75 2.02C13.9 2 14.06 2 14.22 2C14.76 2 15.28 2.06 15.79 2.16C16.04 2.21 16.29 2.27 16.54 2.35C16.78 2.43 17.02 2.51 17.25 2.61C17.48 2.71 17.71 2.82 17.93 2.94C18.15 3.06 18.36 3.19 18.57 3.33C18.78 3.47 18.98 3.62 19.17 3.78C19.36 3.94 19.54 4.1 19.72 4.28C19.9 4.46 20.06 4.64 20.22 4.83C20.38 5.02 20.53 5.22 20.67 5.43C20.81 5.64 20.94 5.85 21.06 6.07C21.18 6.29 21.29 6.52 21.39 6.75C21.49 6.98 21.57 7.22 21.65 7.46C21.73 7.71 21.79 7.96 21.84 8.21C21.94 8.72 22 9.24 22 9.78Z" fill="currentColor"/>
<path d="M17.03 17.04C16.64 18.05 16.03 18.96 15.28 19.72C13.87 21.13 11.92 22 9.78 22H2V14.22C2 10.92 4.06 8.1 6.96 6.97C6.88 7.19 6.8 7.41 6.74 7.64C6.68 7.86 6.62 8.1 6.58 8.33C6.53 8.56 6.5 8.8 6.48 9.05C6.45 9.29 6.44 9.53 6.44 9.78V17.56H14.22C14.47 17.56 14.71 17.55 14.95 17.52C15.2 17.5 15.44 17.47 15.67 17.42C15.9 17.38 16.14 17.32 16.36 17.26C16.59 17.2 16.81 17.12 17.03 17.04Z" fill="currentColor"/>
</svg>
