<svg width="24" height="24" viewBox="0 0 24 24" fill="none" xmlns="http://www.w3.org/2000/svg">
<path d="M15.589 2H8.41V4.564H15.589V2Z" fill="currentColor"/>
<path d="M19.7 11.85C19.58 11.38 19.4 10.92 19.19 10.49C19.15 10.41 19.11 10.33 19.07 10.25C19.04 10.18 18.99 10.11 18.96 10.05C18.91 9.96 18.86 9.87 18.8 9.77C18.69 9.61 18.58 9.44 18.46 9.27C18.24 8.98 18.01 8.7 17.75 8.43L17.6 8.29C17.33 8.02 17.04 7.77 16.73 7.54C16.64 7.48 16.56 7.42 16.48 7.36C16.39 7.31 16.32 7.26 16.23 7.21C16.18 7.18 16.14 7.15 16.08 7.12C15.88 6.99 15.67 6.88 15.45 6.78C15.33 6.73 15.23 6.67 15.11 6.63C14.99 6.58 14.88 6.53 14.75 6.48C14.4 6.36 14.04 6.26 13.67 6.17C13.57 6.15 13.46 6.13 13.35 6.11C13.24 6.1 13.13 6.08 13.02 6.07C12.91 6.05 12.8 6.04 12.69 6.03C12.6 6.02 12.5 6.02 12.41 6.01C12.27 6.01 12.14 6 12 6C7.58 6 4 9.58 4 14C4 18.42 7.58 22 12 22C14.2 22 16.18 21.11 17.63 19.69C17.66 19.66 17.69 19.63 17.73 19.59C19.14 18.14 20 16.18 20 14C20 13.26 19.9 12.53 19.7 11.85ZM17.02 18.87L12 13.79V7C15.87 7 19 10.13 19 14C19 15.9 18.25 17.61 17.02 18.87Z" fill="currentColor"/>
</svg>
