<svg width="16" height="16" viewBox="0 0 16 16" fill="none" xmlns="http://www.w3.org/2000/svg">
<path d="M1.33325 6.09334V9.90668H6.09325V14.6667H9.90658V6.09334H1.33325ZM9.23992 9.24001H6.75992V6.76001H9.23992V9.24001Z" fill="#44546F"/>
<path d="M7.99992 4.50668C8.87621 4.50668 9.58659 3.7963 9.58659 2.92001C9.58659 2.04372 8.87621 1.33334 7.99992 1.33334C7.12363 1.33334 6.41325 2.04372 6.41325 2.92001C6.41325 3.7963 7.12363 4.50668 7.99992 4.50668Z" fill="#44546F"/>
<path d="M13.0799 9.58668C13.9562 9.58668 14.6666 8.8763 14.6666 8.00001C14.6666 7.12372 13.9562 6.41334 13.0799 6.41334C12.2036 6.41334 11.4933 7.12372 11.4933 8.00001C11.4933 8.8763 12.2036 9.58668 13.0799 9.58668Z" fill="#44546F"/>
</svg>
