<svg width="24" height="24" viewBox="0 0 24 24" fill="none" xmlns="http://www.w3.org/2000/svg">
<path d="M22 12C22 14.76 20.88 17.26 19.07 19.07L16.04 16.04C17.08 15.01 17.71 13.58 17.71 12C17.71 8.84 15.16 6.29 12 6.29C8.84 6.29 6.29 8.84 6.29 12C6.29 13.58 6.92 15.01 7.96 16.04L4.93 19.07C3.12 17.26 2 14.76 2 12C2 6.48 6.48 2 12 2C17.52 2 22 6.48 22 12Z" style="fill:var(--ds-icon, #44546F);"/>
<path d="M16.04 16.04C15.01 17.08 13.58 17.71 12 17.71C10.42 17.71 8.99 17.08 7.96 16.04L12 12L16.04 16.04Z" style="fill:var(--ds-icon, #44546F);"/>
</svg>
