<svg width="16" height="16" viewBox="0 0 16 16" fill="none" xmlns="http://www.w3.org/2000/svg">
<path fill-rule="evenodd" clip-rule="evenodd" d="M14.6666 7.97069C14.6666 9.55536 13.3979 10.5087 12.1286 10.5087H11.1753V7.01736L7.99992 5.42669L4.82458 7.01736V10.5087H3.87125C2.60259 10.5087 1.33325 9.55536 1.33325 7.97069C1.33325 6.06403 2.92392 5.42669 3.87725 5.42669C3.87725 2.25736 6.73059 1.62003 7.99992 1.62003C9.58459 1.62003 11.8066 3.20469 11.8066 5.11136C12.7659 5.11136 14.6666 5.74803 14.6666 7.97069Z" fill="currentColor"/>
<path fill-rule="evenodd" clip-rule="evenodd" d="M11.1753 10.5087L11.1753 14L7.99996 12.4153L4.82463 14L4.82458 10.5087L7.99996 8.91796L11.1753 10.5087Z" fill="currentColor"/>
</svg>
