<svg width="24" height="24" viewBox="0 0 24 24" fill="none" xmlns="http://www.w3.org/2000/svg">
<path d="M12 2C6.48 2 2 6.48 2 12C2 17.52 6.48 22 12 22C17.52 22 22 17.52 22 12C22 6.48 17.52 2 12 2ZM12 19.14C8.06 19.14 4.86 15.94 4.86 12C4.86 8.06 8.06 4.86 12 4.86C15.94 4.86 19.14 8.06 19.14 12C19.14 15.94 15.94 19.14 12 19.14Z" fill="currentColor"/>
<path d="M12 7.71C9.64 7.71 7.71 9.64 7.71 12C7.71 14.36 9.64 16.29 12 16.29C14.36 16.29 16.29 14.36 16.29 12C16.29 9.64 14.36 7.71 12 7.71ZM12 13.9C10.95 13.9 10.1 13.05 10.1 12C10.1 10.95 10.95 10.1 12 10.1C13.05 10.1 13.9 10.95 13.9 12C13.9 13.05 13.05 13.9 12 13.9Z" fill="currentColor"/>
</svg>
