<svg width="24" height="24" viewBox="0 0 24 24" fill="none" xmlns="http://www.w3.org/2000/svg">
<path d="M16.29 10.57V22H7.70996V10.57H9.61996V18.67C9.61996 19.32 9.88996 19.92 10.32 20.35C10.75 20.78 11.34 21.05 12 21.05C13.31 21.05 14.38 19.98 14.38 18.67V10.57H16.29Z" fill="currentColor"/>
<path d="M14.38 4.38C14.38 5.04 14.11 5.64 13.68 6.06C13.25 6.5 12.66 6.76 12 6.76C11.34 6.76 10.75 6.5 10.32 6.06C9.88996 5.64 9.61996 5.04 9.61996 4.38C9.61996 3.07 10.69 2 12 2C12.66 2 13.25 2.27 13.68 2.7C14.11 3.13 14.38 3.72 14.38 4.38Z" fill="currentColor"/>
<path d="M14.38 10.57H9.61996C9.61996 9.26 10.69 8.19 12 8.19C13.31 8.19 14.38 9.26 14.38 10.57Z" fill="currentColor"/>
</svg>
