<svg width="16" height="16" viewBox="0 0 16 16" fill="none" xmlns="http://www.w3.org/2000/svg">
<path d="M14.6666 6.51999C14.6666 6.87999 14.6266 7.22666 14.5599 7.55999C14.5266 7.73333 14.4866 7.89333 14.4333 8.05999C14.2333 8.70666 13.9066 9.30666 13.4799 9.81999C13.3733 9.94666 13.2666 10.0667 13.1466 10.1867C13.0199 10.3133 12.8799 10.4333 12.7399 10.5533C12.6733 10.6 12.6066 10.6533 12.5333 10.7067C12.4599 10.76 12.3866 10.8133 12.3133 10.86C12.1599 10.96 12.0066 11.0467 11.8466 11.1333C11.6866 11.2133 11.5199 11.2867 11.3533 11.3533C11.5799 10.7733 11.7066 10.14 11.7066 9.47999C11.7066 8.05333 11.1199 6.75333 10.1866 5.81333C9.24658 4.87999 7.94658 4.29333 6.51992 4.29333C5.85992 4.29333 5.22658 4.41999 4.64658 4.64666C4.73992 4.40666 4.85325 4.17333 4.97992 3.94666C5.03992 3.83999 5.11325 3.72666 5.17992 3.61999C5.25325 3.51333 5.32658 3.41333 5.40658 3.31333C5.48658 3.21333 5.56658 3.11333 5.65325 3.01999C5.73992 2.92666 5.83325 2.83333 5.92659 2.74666C6.00659 2.66666 6.09325 2.59333 6.17992 2.51999C6.37325 2.35999 6.57992 2.21333 6.79325 2.08666C6.85325 2.04666 6.91325 2.01333 6.97992 1.97999C7.15992 1.87999 7.34659 1.78666 7.53325 1.71333C7.65325 1.65999 7.77992 1.61999 7.89992 1.57999C7.91325 1.57333 7.92658 1.57333 7.93992 1.56666C8.05325 1.53333 8.15992 1.49999 8.27325 1.47333C8.49992 1.41999 8.73325 1.37999 8.97325 1.35999C9.03325 1.35333 9.09992 1.34666 9.16658 1.34666C9.26658 1.33333 9.37325 1.33333 9.47992 1.33333C9.83992 1.33333 10.1866 1.37333 10.5266 1.43999C10.6933 1.47333 10.8599 1.51333 11.0266 1.56666C11.1866 1.61999 11.3466 1.67333 11.4999 1.73999C11.6533 1.80666 11.8066 1.87999 11.9533 1.95999C12.0999 2.03999 12.2399 2.12666 12.3799 2.21999C12.5199 2.31333 12.6533 2.41333 12.7799 2.51999C12.9066 2.62666 13.0266 2.73333 13.1466 2.85333C13.2666 2.97333 13.3733 3.09333 13.4799 3.21999C13.5866 3.34666 13.6866 3.47999 13.7799 3.61999C13.8733 3.75999 13.9599 3.89999 14.0399 4.04666C14.1199 4.19333 14.1933 4.34666 14.2599 4.49999C14.3266 4.65333 14.3799 4.81333 14.4333 4.97333C14.4866 5.13999 14.5266 5.30666 14.5599 5.47333C14.6266 5.81333 14.6666 6.15999 14.6666 6.51999Z" fill="currentColor"/>
<path d="M11.3533 11.36C11.0933 12.0333 10.6866 12.64 10.1866 13.1467C9.24658 14.0867 7.94658 14.6667 6.51992 14.6667H1.33325V9.47999C1.33325 7.27999 2.70659 5.39999 4.63992 4.64666C4.58659 4.79333 4.53325 4.93999 4.49325 5.09333C4.45325 5.23999 4.41325 5.39999 4.38658 5.55333C4.35325 5.70666 4.33325 5.86666 4.31992 6.03333C4.29992 6.19333 4.29325 6.35333 4.29325 6.51999V11.7067H9.47992C9.64658 11.7067 9.80658 11.7 9.96658 11.68C10.1333 11.6667 10.2933 11.6467 10.4466 11.6133C10.5999 11.5867 10.7599 11.5467 10.9066 11.5067C11.0599 11.4667 11.2066 11.4133 11.3533 11.36Z" fill="currentColor"/>
</svg>
