<svg width="16" height="16" viewBox="0 0 16 16" fill="none" xmlns="http://www.w3.org/2000/svg">
<path d="M14.0066 10.8733C14.4266 9.99999 14.6666 9.02666 14.6666 7.99999C14.6666 4.31999 11.6799 1.33333 7.99992 1.33333C4.31992 1.33333 1.33325 4.31999 1.33325 7.99999C1.33325 11.68 4.31992 14.6667 7.99992 14.6667C9.02658 14.6667 9.99992 14.4267 10.8733 14.0067V14.0133L14.6666 14.6667L14.0133 10.8733H14.0066ZM7.99992 12.4467C5.54659 12.4467 3.55325 10.4533 3.55325 7.99999C3.55325 5.54666 5.54659 3.55333 7.99992 3.55333C10.4533 3.55333 12.4466 5.54666 12.4466 7.99999C12.4466 10.4533 10.4533 12.4467 7.99992 12.4467Z" style="fill:var(--ds-icon, #44546F);"/>
<path d="M7.99987 5.77998C6.7732 5.77998 5.77987 6.77332 5.77987 7.99998C5.77987 9.22665 6.7732 10.22 7.99987 10.22C9.22653 10.22 10.2199 9.22665 10.2199 7.99998C10.2199 6.77332 9.22653 5.77998 7.99987 5.77998Z" style="fill:var(--ds-icon, #44546F);"/>
</svg>
