<svg width="16" height="16" viewBox="0 0 16 16" fill="none" xmlns="http://www.w3.org/2000/svg">
<path d="M9.95992 11.7067C9.35325 13.4333 7.71325 14.6667 5.77992 14.6667H1.33325V10.22C1.33325 8.28666 2.56659 6.64666 4.29325 6.03999V11.7067H9.95992Z" fill="currentColor"/>
<path d="M14.6666 1.33333V11.7067H9.96659C9.97992 11.6733 9.98658 11.6467 9.99325 11.6133C10.0133 11.56 10.0333 11.5 10.0466 11.4467C10.0733 11.36 10.0933 11.28 10.1066 11.1933C10.1199 11.1533 10.1266 11.1133 10.1333 11.0733C10.1533 11.0067 10.1599 10.94 10.1666 10.8733C10.1866 10.7867 10.1933 10.6933 10.1999 10.6067C10.2133 10.48 10.2199 10.3467 10.2199 10.22C10.2199 7.76666 8.23325 5.77999 5.77992 5.77999C5.65325 5.77999 5.51992 5.78666 5.39325 5.79999C5.30659 5.80666 5.21325 5.81333 5.12659 5.83333C5.05992 5.83999 4.99325 5.84666 4.92658 5.86666C4.88658 5.87333 4.84659 5.87999 4.80659 5.89333C4.71992 5.90666 4.63992 5.92666 4.55325 5.95333C4.49992 5.96666 4.43992 5.98666 4.38658 6.00666C4.35325 6.01333 4.32659 6.01999 4.29325 6.03333V1.33333H14.6666Z" fill="currentColor"/>
</svg>
