<svg width="16" height="16" viewBox="0 0 16 16" fill="none" xmlns="http://www.w3.org/2000/svg">
<path fill-rule="evenodd" clip-rule="evenodd" d="M14.6666 2H5.33325V5.33333H14.6666V2ZM14.6666 11.3333H5.33325V14.6667H14.6666V11.3333ZM5.33325 6.66667H14.6666V10H5.33325V6.66667ZM2.99992 14.6667C3.92039 14.6667 4.66659 13.9205 4.66659 13C4.66659 12.0795 3.92039 11.3333 2.99992 11.3333C2.07944 11.3333 1.33325 12.0795 1.33325 13C1.33325 13.9205 2.07944 14.6667 2.99992 14.6667ZM4.66659 8.33333C4.66659 9.25381 3.92039 10 2.99992 10C2.07944 10 1.33325 9.25381 1.33325 8.33333C1.33325 7.41286 2.07944 6.66667 2.99992 6.66667C3.92039 6.66667 4.66659 7.41286 4.66659 8.33333ZM2.99992 5.33333C3.92039 5.33333 4.66659 4.58714 4.66659 3.66667C4.66659 2.74619 3.92039 2 2.99992 2C2.07944 2 1.33325 2.74619 1.33325 3.66667C1.33325 4.58714 2.07944 5.33333 2.99992 5.33333Z" style="fill:var(--ds-icon, #44546F);"/>
</svg>
