<svg width="24" height="24" viewBox="0 0 24 24" fill="none" xmlns="http://www.w3.org/2000/svg">
<path d="M14.94 17.56C14.03 20.15 11.57 22 8.67 22H2V15.33C2 12.43 3.85 9.97 6.44 9.06V17.56H14.94Z" fill="currentColor"/>
<path d="M22 2V17.56H14.95C14.97 17.51 14.98 17.47 14.99 17.42C15.02 17.34 15.05 17.25 15.07 17.17C15.11 17.04 15.14 16.92 15.16 16.79C15.18 16.73 15.19 16.67 15.2 16.61C15.23 16.51 15.24 16.41 15.25 16.31C15.28 16.18 15.29 16.04 15.3 15.91C15.32 15.72 15.33 15.52 15.33 15.33C15.33 11.65 12.35 8.67 8.67 8.67C8.48 8.67 8.28 8.68 8.09 8.7C7.96 8.71 7.82 8.72 7.69 8.75C7.59 8.76 7.49 8.77 7.39 8.8C7.33 8.81 7.27 8.82 7.21 8.84C7.08 8.86 6.96 8.89 6.83 8.93C6.75 8.95 6.66 8.98 6.58 9.01C6.53 9.02 6.49 9.03 6.44 9.05V2H22Z" fill="currentColor"/>
</svg>
