<svg width="24" height="24" viewBox="0 0 24 24" fill="none" xmlns="http://www.w3.org/2000/svg">
<path d="M11.2801 6.29999C10.8401 6.29999 10.4101 6.34999 10.0001 6.44999C9.9001 6.85999 9.8501 7.28999 9.8501 7.73999C9.8501 10.91 12.4201 13.48 15.5901 13.48C16.0301 13.48 16.4601 13.43 16.8701 13.33C16.9701 12.91 17.0201 12.48 17.0201 12.04C17.0201 8.87999 14.4501 6.29999 11.2801 6.29999Z" fill="currentColor"/>
<path d="M19.8698 11.55C20.7798 10.54 21.3198 9.2 21.3198 7.74C21.3198 4.57 18.7598 2 15.5898 2C14.1198 2 12.7798 2.55 11.7798 3.45C16.1298 3.7 19.6298 7.19 19.8698 11.55Z" fill="currentColor"/>
<path d="M19.8902 12.04C19.8902 11.87 19.8798 11.71 19.8698 11.55C19.0998 12.42 18.0501 13.06 16.8701 13.33C16.2901 15.88 14.0102 17.78 11.2802 17.78C8.12018 17.78 5.55018 15.21 5.55018 12.04C5.55018 9.31999 7.4501 7.02999 10.0001 6.44999C10.2601 5.26999 10.8998 4.23 11.7798 3.45C11.6098 3.44 11.4502 3.42999 11.2802 3.42999C6.54018 3.42999 2.68018 7.28999 2.68018 12.04C2.68018 16.79 6.54018 20.65 11.2802 20.65C12.9702 20.65 14.5302 20.15 15.8502 19.32L18.5402 22L21.2402 19.29L18.5602 16.61C19.4002 15.29 19.8902 13.72 19.8902 12.04Z" fill="currentColor"/>
</svg>
