<svg width="24" height="24" viewBox="0 0 24 24" fill="none" xmlns="http://www.w3.org/2000/svg">
<path d="M2 9.14V14.86H9.14V22H14.86V9.14H2ZM13.86 13.86H10.14V10.14H13.86V13.86Z" fill="#44546F"/>
<path d="M12 6.76C13.3144 6.76 14.38 5.69444 14.38 4.38C14.38 3.06556 13.3144 2 12 2C10.6856 2 9.62 3.06556 9.62 4.38C9.62 5.69444 10.6856 6.76 12 6.76Z" fill="#44546F"/>
<path d="M19.62 14.38C20.9344 14.38 22 13.3144 22 12C22 10.6856 20.9344 9.62 19.62 9.62C18.3056 9.62 17.24 10.6856 17.24 12C17.24 13.3144 18.3056 14.38 19.62 14.38Z" fill="#44546F"/>
</svg>
