<svg width="24" height="24" viewBox="0 0 24 24" fill="none" xmlns="http://www.w3.org/2000/svg">
<path fill-rule="evenodd" clip-rule="evenodd" d="M22 3H8V8H22V3ZM22 17H8V22H22V17ZM8 10H22V15H8V10ZM4.5 22C5.88071 22 7 20.8807 7 19.5C7 18.1193 5.88071 17 4.5 17C3.11929 17 2 18.1193 2 19.5C2 20.8807 3.11929 22 4.5 22ZM7 12.5C7 13.8807 5.88071 15 4.5 15C3.11929 15 2 13.8807 2 12.5C2 11.1193 3.11929 10 4.5 10C5.88071 10 7 11.1193 7 12.5ZM4.5 8C5.88071 8 7 6.88071 7 5.5C7 4.11929 5.88071 3 4.5 3C3.11929 3 2 4.11929 2 5.5C2 6.88071 3.11929 8 4.5 8Z" fill="currentColor"/>
</svg>
