<svg width="16" height="16" viewBox="0 0 16 16" fill="none" xmlns="http://www.w3.org/2000/svg">
<path d="M10.8599 7.04668V14.6667H5.13989V7.04668H6.41323V12.4467C6.41323 12.88 6.59323 13.28 6.87989 13.5667C7.16656 13.8533 7.55989 14.0333 7.99989 14.0333C8.87323 14.0333 9.58656 13.32 9.58656 12.4467V7.04668H10.8599Z" style="fill:var(--ds-icon, #44546F);"/>
<path d="M9.58656 2.92001C9.58656 3.36001 9.40656 3.76001 9.11989 4.04001C8.83323 4.33334 8.43989 4.50668 7.99989 4.50668C7.55989 4.50668 7.16656 4.33334 6.87989 4.04001C6.59323 3.76001 6.41323 3.36001 6.41323 2.92001C6.41323 2.04668 7.12656 1.33334 7.99989 1.33334C8.43989 1.33334 8.83323 1.51334 9.11989 1.80001C9.40656 2.08668 9.58656 2.48001 9.58656 2.92001Z" style="fill:var(--ds-icon, #44546F);"/>
<path d="M9.58656 7.04668H6.41323C6.41323 6.17334 7.12656 5.46001 7.99989 5.46001C8.87323 5.46001 9.58656 6.17334 9.58656 7.04668Z" style="fill:var(--ds-icon, #44546F);"/>
</svg>
