<svg width="24" height="24" viewBox="0 0 24 24" fill="none" xmlns="http://www.w3.org/2000/svg">
<path d="M20.5001 12.0411C20.5001 7.32905 16.6741 3.50305 11.9621 3.50305C7.25007 3.50305 3.42407 7.32905 3.42407 12.0411C3.42407 12.2841 3.43407 12.5281 3.46307 12.7611V12.7711C2.91807 13.4431 2.49907 14.2021 2.25607 15.0491C1.36007 17.8141 2.91807 20.8031 5.33207 22.0001C5.33207 22.0001 3.39507 19.0111 4.70907 16.5291C6.20807 18.9631 8.89507 20.5791 11.9621 20.5791C13.2861 20.5791 14.5221 20.2671 15.6421 19.7321L20.5371 20.5371L19.6631 15.7211C20.1891 14.6011 20.5001 13.3551 20.5001 12.0411ZM10.0931 15.0781V13.2381L9.15807 13.1991H8.92407C6.98707 13.1991 5.22507 14.0751 4.17307 15.5451C4.15407 15.5641 4.13407 15.5941 4.11507 15.6231C4.04707 15.7301 3.97907 15.8471 3.92007 15.9541L3.87107 16.0421C3.46207 16.8011 3.30607 17.5801 3.28707 18.3301C2.93707 17.4051 2.84907 16.3731 3.18007 15.3511C3.30707 14.9231 3.47207 14.5241 3.69607 14.1541C3.84207 13.8811 4.01707 13.6281 4.22207 13.3751C5.40007 11.9151 7.27907 11.0001 9.12907 10.9801L10.0931 10.9701V9.00405L15.2621 12.0411L10.0931 15.0781Z" style="fill:var(--ds-icon, #44546F);"/>
</svg>
