<svg width="24" height="24" viewBox="0 0 24 24" fill="none" xmlns="http://www.w3.org/2000/svg">
<path fill-rule="evenodd" clip-rule="evenodd" d="M8.66667 2C4.98477 2 2 4.98477 2 8.66667C2 12.3486 4.98477 15.3333 8.66667 15.3333H2V22H15.3333C19.0152 22 22 19.0152 22 15.3333C22 11.6514 19.0152 8.66667 15.3333 8.66667H22V2H8.66667ZM15.3333 11.9997C15.3333 10.1587 13.841 8.66634 12 8.66634C10.1591 8.66634 8.66668 10.1587 8.66668 11.9997C8.66668 13.8406 10.1591 15.333 12 15.333C13.841 15.333 15.3333 13.8406 15.3333 11.9997Z" fill="currentColor"/>
</svg>
