<svg width="16" height="16" viewBox="0 0 16 16" fill="none" xmlns="http://www.w3.org/2000/svg">
<path fill-rule="evenodd" clip-rule="evenodd" d="M5.59919 14.8655C4.23561 14.5954 2.98308 13.9287 2 12.9497L3.45616 11.4997C3.91764 11.9591 4.46546 12.3236 5.06835 12.5723C5.67141 12.821 6.31776 12.9491 6.97051 12.9491C7.62325 12.9491 8.2696 12.821 8.87266 12.5723C9.47571 12.3235 10.0237 11.9589 10.4852 11.4993L6.97051 7.99931L6.97035 7.99946L6.97055 7.99966L3.48122 11.4744C3.2621 11.253 3.06338 11.0105 2.88831 10.7496C2.34214 9.93563 2.05062 8.97865 2.05062 7.99969C2.05062 7.02073 2.34214 6.06375 2.88831 5.24977C3.06335 4.98891 3.26202 4.74648 3.48109 4.52514L2 3.05025C2.98309 2.07129 4.23561 1.4046 5.59919 1.13451C6.96277 0.86441 8.37615 1.00303 9.66061 1.53285C10.9451 2.06266 12.0429 2.95987 12.8153 4.11101C13.5877 5.26215 14 6.61553 14 8C14 9.38447 13.5877 10.7378 12.8153 11.889C12.0429 13.0401 10.9451 13.9373 9.66061 14.4672C8.37615 14.997 6.96276 15.1356 5.59919 14.8655ZM10.4853 4.49919C10.0237 4.03957 9.47577 3.67497 8.87272 3.42622C8.26966 3.17748 7.62331 3.04945 6.97056 3.04945C6.31782 3.04945 5.67147 3.17748 5.06841 3.42622C4.46536 3.67497 3.9174 4.03957 3.45585 4.49919L6.97056 7.99919L10.4853 4.49919Z" fill="currentColor"/>
</svg>
