<svg width="16" height="16" viewBox="0 0 16 16" fill="none" xmlns="http://www.w3.org/2000/svg">
<path fill-rule="evenodd" clip-rule="evenodd" d="M5.66667 1C3.08934 1 1 3.08934 1 5.66667C1 8.244 3.08934 10.3333 5.66667 10.3333H1V15H10.3333C12.9107 15 15 12.9107 15 10.3333C15 7.75601 12.9107 5.66667 10.3333 5.66667H15V1H5.66667ZM10.3333 7.99977C10.3333 6.71111 9.28867 5.66644 8.00001 5.66644C6.71134 5.66644 5.66667 6.71111 5.66667 7.99977C5.66667 9.28844 6.71134 10.3331 8.00001 10.3331C9.28867 10.3331 10.3333 9.28844 10.3333 7.99977Z" fill="currentColor"/>
</svg>
