<svg width="24" height="24" viewBox="0 0 24 24" fill="none" xmlns="http://www.w3.org/2000/svg">
<path fill-rule="evenodd" clip-rule="evenodd" d="M9.09885 21.8078C7.16711 21.422 5.3927 20.4696 4 19.0711L6.0629 16.9995C6.71666 17.6559 7.49274 18.1766 8.34683 18.5318C9.20116 18.8872 10.1168 19.0701 11.0415 19.0701C11.9663 19.0701 12.8819 18.8872 13.7363 18.5318C14.5906 18.1765 15.3669 17.6556 16.0207 16.999L11.0415 11.999L11.0413 11.9992L11.0416 11.9995L6.0984 16.9634C5.78797 16.6471 5.50645 16.3008 5.25844 15.928C4.4847 14.7652 4.07171 13.3981 4.07171 11.9996C4.07171 10.601 4.4847 9.23392 5.25844 8.0711C5.50641 7.69844 5.78786 7.35212 6.09822 7.03592L4 4.92893C5.3927 3.53041 7.16712 2.578 9.09885 2.19215C11.0306 1.8063 13.0329 2.00433 14.8525 2.76121C16.6722 3.51809 18.2275 4.79981 19.3217 6.4443C20.416 8.08879 21 10.0222 21 12C21 13.9778 20.416 15.9112 19.3217 17.5557C18.2275 19.2002 16.6722 20.4819 14.8525 21.2388C13.0329 21.9957 11.0306 22.1937 9.09885 21.8078ZM16.0208 6.99885C15.3669 6.34224 14.5907 5.82139 13.7363 5.46603C12.882 5.11068 11.9664 4.92778 11.0416 4.92778C10.1169 4.92778 9.20125 5.11068 8.34692 5.46603C7.49259 5.82139 6.71632 6.34224 6.06245 6.99885L11.0416 11.9988L16.0208 6.99885Z" fill="currentColor"/>
</svg>
