<svg width="16" height="16" viewBox="0 0 16 16" fill="none" xmlns="http://www.w3.org/2000/svg">
<path d="M7.99992 1.33334C4.31992 1.33334 1.33325 4.32001 1.33325 8.00001C1.33325 11.68 4.31992 14.6667 7.99992 14.6667C11.6799 14.6667 14.6666 11.68 14.6666 8.00001C14.6666 4.32001 11.6799 1.33334 7.99992 1.33334ZM7.99992 12.76C5.37325 12.76 3.23992 10.6267 3.23992 8.00001C3.23992 5.37334 5.37325 3.24001 7.99992 3.24001C10.6266 3.24001 12.7599 5.37334 12.7599 8.00001C12.7599 10.6267 10.6266 12.76 7.99992 12.76Z" style="fill:var(--ds-icon, #44546F);"/>
<path d="M7.99992 5.14001C6.42659 5.14001 5.13992 6.42668 5.13992 8.00001C5.13992 9.57334 6.42659 10.86 7.99992 10.86C9.57325 10.86 10.8599 9.57334 10.8599 8.00001C10.8599 6.42668 9.57325 5.14001 7.99992 5.14001ZM7.99992 9.26668C7.29992 9.26668 6.73325 8.70001 6.73325 8.00001C6.73325 7.30001 7.29992 6.73334 7.99992 6.73334C8.69992 6.73334 9.26658 7.30001 9.26658 8.00001C9.26658 8.70001 8.69992 9.26668 7.99992 9.26668Z" style="fill:var(--ds-icon, #44546F);"/>
</svg>
